M48
;DRILL file {Pcbnew (2013-mar-13)-testing} date Sun 07 Jul 2013 01:13:21 PM PDT
;FORMAT={-:-/ absolute / inch / decimal}
FMAT,2
INCH,TZ
T1C0.025
T2C0.032
T3C0.051
T4C0.120
%
G90
G05
M72
T1
X4.5039Y-4.1732
X4.5039Y-4.252
X4.5039Y-4.3307
X4.5039Y-4.4094
X4.6693Y-3.4724
X4.8425Y-4.1732
X4.8425Y-4.252
X4.8425Y-4.3307
X4.8425Y-4.4094
X5.0394Y-5.4173
X5.1614Y-4.7087
X5.2638Y-4.4331
X5.3819Y-2.7441
X5.4724Y-5.5118
X5.4921Y-4.2205
X5.5866Y-4.4134
X5.6024Y-5.1378
X5.8701Y-3.0472
X6.0591Y-4.3543
X6.2205Y-2.9921
X6.2874Y-4.3346
X6.4173Y-3.4016
X6.4213Y-3.8701
X6.5276Y-4.5472
T2
X4.1929Y-3.2531
X4.1929Y-3.3531
X4.4961Y-2.9193
X4.5406Y-2.1457
X4.5496Y-5.7283
X4.6063Y-2.7224
X4.6406Y-2.1457
X4.6496Y-5.7283
X4.7496Y-5.7283
X4.8228Y-2.6063
X4.8228Y-3.5591
X5.0197Y-2.7165
X5.0197Y-3.6693
X5.189Y-4.1693
X5.2571Y-2.1457
X5.2622Y-5.7283
X5.3571Y-2.1457
X5.3622Y-5.7283
X5.3858Y-3.4449
X5.3858Y-3.7283
X5.4622Y-5.7283
X5.4764Y-3.2402
X5.7598Y-3.5276
X5.7598Y-3.6457
X5.7677Y-4.765
X5.7677Y-4.865
X5.7795Y-4.5315
X5.8449Y-2.1457
X5.8921Y-5.7283
X5.9449Y-2.1457
X5.9921Y-5.7283
X6.0449Y-2.1457
X6.0921Y-5.7283
X6.3268Y-5.4685
X6.3346Y-4.1102
X6.3437Y-2.8937
X6.4437Y-2.8937
T3
X4.9095Y-2.9882
X4.9095Y-3.3386
X5.1063Y-2.9882
X5.1063Y-3.3386
X5.2914Y-2.9882
X5.4882Y-2.9882
T4
X4.1339Y-2.1654
X4.1339Y-5.7087
X6.4961Y-2.1654
X6.4961Y-5.7087
T0
M30
