G04 (created by PCBNEW (2013-mar-13)-testing) date Sun 07 Jul 2013 01:13:12 PM PDT*
%MOIN*%
G04 Gerber Fmt 3.4, Leading zero omitted, Abs format*
%FSLAX34Y34*%
G01*
G70*
G90*
G04 APERTURE LIST*
%ADD10C,0.005906*%
%ADD11C,0.011811*%
%ADD12C,0.009843*%
%ADD13C,0.003937*%
%ADD14C,0.015000*%
%ADD15C,0.012000*%
%ADD16C,0.012500*%
%ADD17C,0.003900*%
%ADD18C,0.004700*%
%ADD19C,0.008000*%
%ADD20C,0.000100*%
%ADD21C,0.010700*%
%ADD22C,0.010000*%
%ADD23C,0.004724*%
%ADD24C,0.005100*%
G04 APERTURE END LIST*
G54D10*
G54D11*
X41352Y-44296D02*
X41380Y-44319D01*
X41408Y-44386D01*
X41408Y-44431D01*
X41380Y-44499D01*
X41324Y-44544D01*
X41268Y-44566D01*
X41155Y-44589D01*
X41071Y-44589D01*
X40958Y-44566D01*
X40902Y-44544D01*
X40846Y-44499D01*
X40818Y-44431D01*
X40818Y-44386D01*
X40846Y-44319D01*
X40874Y-44296D01*
X41352Y-43824D02*
X41380Y-43847D01*
X41408Y-43914D01*
X41408Y-43959D01*
X41380Y-44026D01*
X41324Y-44071D01*
X41268Y-44094D01*
X41155Y-44116D01*
X41071Y-44116D01*
X40958Y-44094D01*
X40902Y-44071D01*
X40846Y-44026D01*
X40818Y-43959D01*
X40818Y-43914D01*
X40846Y-43847D01*
X40874Y-43824D01*
X41183Y-43622D02*
X41183Y-43262D01*
X41099Y-42879D02*
X41127Y-42812D01*
X41155Y-42789D01*
X41212Y-42767D01*
X41296Y-42767D01*
X41352Y-42789D01*
X41380Y-42812D01*
X41408Y-42857D01*
X41408Y-43037D01*
X40818Y-43037D01*
X40818Y-42879D01*
X40846Y-42834D01*
X40874Y-42812D01*
X40930Y-42789D01*
X40987Y-42789D01*
X41043Y-42812D01*
X41071Y-42834D01*
X41099Y-42879D01*
X41099Y-43037D01*
X41127Y-42474D02*
X41408Y-42474D01*
X40818Y-42632D02*
X41127Y-42474D01*
X40818Y-42317D01*
X41183Y-42159D02*
X41183Y-41799D01*
X41380Y-41597D02*
X41408Y-41529D01*
X41408Y-41417D01*
X41380Y-41372D01*
X41352Y-41349D01*
X41296Y-41327D01*
X41240Y-41327D01*
X41183Y-41349D01*
X41155Y-41372D01*
X41127Y-41417D01*
X41099Y-41507D01*
X41071Y-41552D01*
X41043Y-41574D01*
X40987Y-41597D01*
X40930Y-41597D01*
X40874Y-41574D01*
X40846Y-41552D01*
X40818Y-41507D01*
X40818Y-41394D01*
X40846Y-41327D01*
X41240Y-41147D02*
X41240Y-40922D01*
X41408Y-41192D02*
X40818Y-41034D01*
X41408Y-40877D01*
X42128Y-51985D02*
X42156Y-52030D01*
X42156Y-52120D01*
X42128Y-52165D01*
X42072Y-52187D01*
X41847Y-52187D01*
X41791Y-52165D01*
X41763Y-52120D01*
X41763Y-52030D01*
X41791Y-51985D01*
X41847Y-51962D01*
X41903Y-51962D01*
X41960Y-52187D01*
X41763Y-51827D02*
X41763Y-51647D01*
X41566Y-51760D02*
X42072Y-51760D01*
X42128Y-51737D01*
X42156Y-51692D01*
X42156Y-51647D01*
X42156Y-51490D02*
X41566Y-51490D01*
X42156Y-51287D02*
X41847Y-51287D01*
X41791Y-51310D01*
X41763Y-51355D01*
X41763Y-51422D01*
X41791Y-51467D01*
X41819Y-51490D01*
X42128Y-50883D02*
X42156Y-50928D01*
X42156Y-51017D01*
X42128Y-51062D01*
X42072Y-51085D01*
X41847Y-51085D01*
X41791Y-51062D01*
X41763Y-51017D01*
X41763Y-50928D01*
X41791Y-50883D01*
X41847Y-50860D01*
X41903Y-50860D01*
X41960Y-51085D01*
X42156Y-50658D02*
X41763Y-50658D01*
X41875Y-50658D02*
X41819Y-50635D01*
X41791Y-50613D01*
X41763Y-50568D01*
X41763Y-50523D01*
X42156Y-50365D02*
X41566Y-50365D01*
X41931Y-50320D02*
X42156Y-50185D01*
X41763Y-50185D02*
X41988Y-50365D01*
X42156Y-49983D02*
X41763Y-49983D01*
X41566Y-49983D02*
X41594Y-50005D01*
X41622Y-49983D01*
X41594Y-49960D01*
X41566Y-49983D01*
X41622Y-49983D01*
X41763Y-49825D02*
X41763Y-49645D01*
X41566Y-49758D02*
X42072Y-49758D01*
X42128Y-49735D01*
X42156Y-49690D01*
X42156Y-49645D01*
X42100Y-49488D02*
X42128Y-49465D01*
X42156Y-49488D01*
X42128Y-49510D01*
X42100Y-49488D01*
X42156Y-49488D01*
X42128Y-49060D02*
X42156Y-49105D01*
X42156Y-49195D01*
X42128Y-49240D01*
X42100Y-49263D01*
X42044Y-49285D01*
X41875Y-49285D01*
X41819Y-49263D01*
X41791Y-49240D01*
X41763Y-49195D01*
X41763Y-49105D01*
X41791Y-49060D01*
X42156Y-48790D02*
X42128Y-48835D01*
X42100Y-48858D01*
X42044Y-48880D01*
X41875Y-48880D01*
X41819Y-48858D01*
X41791Y-48835D01*
X41763Y-48790D01*
X41763Y-48723D01*
X41791Y-48678D01*
X41819Y-48655D01*
X41875Y-48633D01*
X42044Y-48633D01*
X42100Y-48655D01*
X42128Y-48678D01*
X42156Y-48723D01*
X42156Y-48790D01*
X42156Y-48430D02*
X41763Y-48430D01*
X41819Y-48430D02*
X41791Y-48408D01*
X41763Y-48363D01*
X41763Y-48295D01*
X41791Y-48250D01*
X41847Y-48228D01*
X42156Y-48228D01*
X41847Y-48228D02*
X41791Y-48205D01*
X41763Y-48160D01*
X41763Y-48093D01*
X41791Y-48048D01*
X41847Y-48025D01*
X42156Y-48025D01*
X41622Y-47463D02*
X41594Y-47440D01*
X41566Y-47395D01*
X41566Y-47283D01*
X41594Y-47238D01*
X41622Y-47215D01*
X41678Y-47193D01*
X41735Y-47193D01*
X41819Y-47215D01*
X42156Y-47485D01*
X42156Y-47193D01*
X41566Y-46901D02*
X41566Y-46856D01*
X41594Y-46811D01*
X41622Y-46788D01*
X41678Y-46766D01*
X41791Y-46743D01*
X41931Y-46743D01*
X42044Y-46766D01*
X42100Y-46788D01*
X42128Y-46811D01*
X42156Y-46856D01*
X42156Y-46901D01*
X42128Y-46946D01*
X42100Y-46968D01*
X42044Y-46991D01*
X41931Y-47013D01*
X41791Y-47013D01*
X41678Y-46991D01*
X41622Y-46968D01*
X41594Y-46946D01*
X41566Y-46901D01*
X42156Y-46293D02*
X42156Y-46563D01*
X42156Y-46428D02*
X41566Y-46428D01*
X41650Y-46473D01*
X41706Y-46518D01*
X41735Y-46563D01*
X41566Y-46136D02*
X41566Y-45843D01*
X41791Y-46001D01*
X41791Y-45933D01*
X41819Y-45888D01*
X41847Y-45866D01*
X41903Y-45843D01*
X42044Y-45843D01*
X42100Y-45866D01*
X42128Y-45888D01*
X42156Y-45933D01*
X42156Y-46068D01*
X42128Y-46113D01*
X42100Y-46136D01*
X40919Y-51850D02*
X40947Y-51872D01*
X40975Y-51940D01*
X40975Y-51985D01*
X40947Y-52052D01*
X40891Y-52097D01*
X40835Y-52120D01*
X40722Y-52142D01*
X40638Y-52142D01*
X40525Y-52120D01*
X40469Y-52097D01*
X40413Y-52052D01*
X40385Y-51985D01*
X40385Y-51940D01*
X40413Y-51872D01*
X40441Y-51850D01*
X40975Y-51377D02*
X40694Y-51535D01*
X40975Y-51647D02*
X40385Y-51647D01*
X40385Y-51467D01*
X40413Y-51422D01*
X40441Y-51400D01*
X40497Y-51377D01*
X40582Y-51377D01*
X40638Y-51400D01*
X40666Y-51422D01*
X40694Y-51467D01*
X40694Y-51647D01*
X40385Y-51220D02*
X40975Y-50905D01*
X40385Y-50905D02*
X40975Y-51220D01*
X40975Y-50478D02*
X40975Y-50748D01*
X40975Y-50613D02*
X40385Y-50613D01*
X40469Y-50658D01*
X40525Y-50703D01*
X40553Y-50748D01*
X40975Y-49645D02*
X40694Y-49803D01*
X40975Y-49915D02*
X40385Y-49915D01*
X40385Y-49735D01*
X40413Y-49690D01*
X40441Y-49668D01*
X40497Y-49645D01*
X40582Y-49645D01*
X40638Y-49668D01*
X40666Y-49690D01*
X40694Y-49735D01*
X40694Y-49915D01*
X40947Y-49263D02*
X40975Y-49308D01*
X40975Y-49398D01*
X40947Y-49443D01*
X40891Y-49465D01*
X40666Y-49465D01*
X40610Y-49443D01*
X40582Y-49398D01*
X40582Y-49308D01*
X40610Y-49263D01*
X40666Y-49240D01*
X40722Y-49240D01*
X40778Y-49465D01*
X40947Y-48835D02*
X40975Y-48880D01*
X40975Y-48970D01*
X40947Y-49015D01*
X40919Y-49038D01*
X40863Y-49060D01*
X40694Y-49060D01*
X40638Y-49038D01*
X40610Y-49015D01*
X40582Y-48970D01*
X40582Y-48880D01*
X40610Y-48835D01*
X40947Y-48453D02*
X40975Y-48498D01*
X40975Y-48588D01*
X40947Y-48633D01*
X40891Y-48655D01*
X40666Y-48655D01*
X40610Y-48633D01*
X40582Y-48588D01*
X40582Y-48498D01*
X40610Y-48453D01*
X40666Y-48430D01*
X40722Y-48430D01*
X40778Y-48655D01*
X40975Y-48228D02*
X40582Y-48228D01*
X40385Y-48228D02*
X40413Y-48250D01*
X40441Y-48228D01*
X40413Y-48205D01*
X40385Y-48228D01*
X40441Y-48228D01*
X40582Y-48048D02*
X40975Y-47935D01*
X40582Y-47823D01*
X40947Y-47463D02*
X40975Y-47508D01*
X40975Y-47598D01*
X40947Y-47643D01*
X40891Y-47665D01*
X40666Y-47665D01*
X40610Y-47643D01*
X40582Y-47598D01*
X40582Y-47508D01*
X40610Y-47463D01*
X40666Y-47440D01*
X40722Y-47440D01*
X40778Y-47665D01*
X40975Y-47238D02*
X40582Y-47238D01*
X40694Y-47238D02*
X40638Y-47215D01*
X40610Y-47193D01*
X40582Y-47148D01*
X40582Y-47103D01*
G54D12*
X42849Y-33385D02*
X42812Y-33363D01*
X42755Y-33363D01*
X42699Y-33385D01*
X42662Y-33430D01*
X42643Y-33475D01*
X42624Y-33565D01*
X42624Y-33633D01*
X42643Y-33723D01*
X42662Y-33768D01*
X42699Y-33813D01*
X42755Y-33835D01*
X42793Y-33835D01*
X42849Y-33813D01*
X42868Y-33790D01*
X42868Y-33633D01*
X42793Y-33633D01*
X43037Y-33835D02*
X43037Y-33363D01*
X43262Y-33835D01*
X43262Y-33363D01*
X43449Y-33835D02*
X43449Y-33363D01*
X43543Y-33363D01*
X43599Y-33385D01*
X43637Y-33430D01*
X43655Y-33475D01*
X43674Y-33565D01*
X43674Y-33633D01*
X43655Y-33723D01*
X43637Y-33768D01*
X43599Y-33813D01*
X43543Y-33835D01*
X43449Y-33835D01*
X42682Y-32260D02*
X42814Y-32733D01*
X42945Y-32260D01*
X43207Y-32485D02*
X43076Y-32485D01*
X43076Y-32733D02*
X43076Y-32260D01*
X43263Y-32260D01*
X43488Y-32260D02*
X43563Y-32260D01*
X43601Y-32283D01*
X43638Y-32328D01*
X43657Y-32418D01*
X43657Y-32575D01*
X43638Y-32665D01*
X43601Y-32710D01*
X43563Y-32733D01*
X43488Y-32733D01*
X43451Y-32710D01*
X43413Y-32665D01*
X43395Y-32575D01*
X43395Y-32418D01*
X43413Y-32328D01*
X43451Y-32283D01*
X43488Y-32260D01*
X47322Y-56323D02*
X47300Y-56361D01*
X47300Y-56417D01*
X47322Y-56473D01*
X47367Y-56511D01*
X47412Y-56529D01*
X47502Y-56548D01*
X47570Y-56548D01*
X47660Y-56529D01*
X47705Y-56511D01*
X47750Y-56473D01*
X47772Y-56417D01*
X47772Y-56379D01*
X47750Y-56323D01*
X47727Y-56304D01*
X47570Y-56304D01*
X47570Y-56379D01*
X47772Y-56136D02*
X47300Y-56136D01*
X47772Y-55911D01*
X47300Y-55911D01*
X47772Y-55723D02*
X47300Y-55723D01*
X47300Y-55629D01*
X47322Y-55573D01*
X47367Y-55536D01*
X47412Y-55517D01*
X47502Y-55498D01*
X47570Y-55498D01*
X47660Y-55517D01*
X47705Y-55536D01*
X47750Y-55573D01*
X47772Y-55629D01*
X47772Y-55723D01*
G54D11*
X46496Y-56141D02*
X46496Y-56614D01*
X45511Y-56141D02*
X46496Y-56141D01*
X45511Y-56614D02*
X45511Y-56141D01*
X58425Y-22165D02*
X58425Y-22637D01*
X58425Y-22637D02*
X59448Y-22637D01*
X59448Y-22637D02*
X59448Y-22165D01*
X59448Y-22637D02*
X59448Y-22165D01*
X58425Y-22637D02*
X59448Y-22637D01*
X58425Y-22165D02*
X58425Y-22637D01*
X58425Y-22165D02*
X58425Y-22637D01*
X58425Y-22637D02*
X59448Y-22637D01*
X59448Y-22637D02*
X59448Y-22165D01*
G54D12*
X46158Y-55926D02*
X45686Y-55926D01*
X45686Y-55776D01*
X45708Y-55738D01*
X45731Y-55719D01*
X45776Y-55701D01*
X45843Y-55701D01*
X45888Y-55719D01*
X45911Y-55738D01*
X45933Y-55776D01*
X45933Y-55926D01*
X46158Y-55532D02*
X45686Y-55532D01*
X46158Y-55363D02*
X45911Y-55363D01*
X45866Y-55382D01*
X45843Y-55419D01*
X45843Y-55476D01*
X45866Y-55513D01*
X45888Y-55532D01*
X46113Y-55176D02*
X46136Y-55157D01*
X46158Y-55176D01*
X46136Y-55194D01*
X46113Y-55176D01*
X46158Y-55176D01*
G54D11*
X59448Y-22637D02*
X59448Y-22165D01*
X58425Y-22637D02*
X59448Y-22637D01*
X58425Y-22165D02*
X58425Y-22637D01*
G54D12*
X59150Y-25187D02*
X58678Y-25187D01*
X59150Y-24962D02*
X58880Y-25131D01*
X58678Y-24962D02*
X58948Y-25187D01*
X59128Y-24643D02*
X59150Y-24681D01*
X59150Y-24756D01*
X59128Y-24793D01*
X59083Y-24812D01*
X58903Y-24812D01*
X58858Y-24793D01*
X58835Y-24756D01*
X58835Y-24681D01*
X58858Y-24643D01*
X58903Y-24625D01*
X58948Y-24625D01*
X58993Y-24812D01*
X58835Y-24493D02*
X59150Y-24400D01*
X58835Y-24306D02*
X59150Y-24400D01*
X59263Y-24437D01*
X59285Y-24456D01*
X59308Y-24493D01*
X59150Y-23668D02*
X59150Y-23856D01*
X58678Y-23856D01*
X59150Y-23537D02*
X58835Y-23537D01*
X58678Y-23537D02*
X58700Y-23556D01*
X58723Y-23537D01*
X58700Y-23518D01*
X58678Y-23537D01*
X58723Y-23537D01*
X58835Y-23350D02*
X59150Y-23350D01*
X58880Y-23350D02*
X58858Y-23331D01*
X58835Y-23293D01*
X58835Y-23237D01*
X58858Y-23200D01*
X58903Y-23181D01*
X59150Y-23181D01*
X59128Y-22844D02*
X59150Y-22881D01*
X59150Y-22956D01*
X59128Y-22994D01*
X59083Y-23012D01*
X58903Y-23012D01*
X58858Y-22994D01*
X58835Y-22956D01*
X58835Y-22881D01*
X58858Y-22844D01*
X58903Y-22825D01*
X58948Y-22825D01*
X58993Y-23012D01*
X60236Y-23016D02*
X60213Y-23053D01*
X60213Y-23110D01*
X60236Y-23166D01*
X60281Y-23203D01*
X60326Y-23222D01*
X60416Y-23241D01*
X60483Y-23241D01*
X60573Y-23222D01*
X60618Y-23203D01*
X60663Y-23166D01*
X60686Y-23110D01*
X60686Y-23072D01*
X60663Y-23016D01*
X60641Y-22997D01*
X60483Y-22997D01*
X60483Y-23072D01*
X60686Y-22829D02*
X60213Y-22829D01*
X60686Y-22604D01*
X60213Y-22604D01*
X60686Y-22416D02*
X60213Y-22416D01*
X60213Y-22322D01*
X60236Y-22266D01*
X60281Y-22229D01*
X60326Y-22210D01*
X60416Y-22191D01*
X60483Y-22191D01*
X60573Y-22210D01*
X60618Y-22229D01*
X60663Y-22266D01*
X60686Y-22322D01*
X60686Y-22416D01*
X53385Y-23016D02*
X53363Y-23053D01*
X53363Y-23110D01*
X53385Y-23166D01*
X53430Y-23203D01*
X53475Y-23222D01*
X53565Y-23241D01*
X53633Y-23241D01*
X53723Y-23222D01*
X53768Y-23203D01*
X53813Y-23166D01*
X53835Y-23110D01*
X53835Y-23072D01*
X53813Y-23016D01*
X53790Y-22997D01*
X53633Y-22997D01*
X53633Y-23072D01*
X53835Y-22829D02*
X53363Y-22829D01*
X53835Y-22604D01*
X53363Y-22604D01*
X53835Y-22416D02*
X53363Y-22416D01*
X53363Y-22322D01*
X53385Y-22266D01*
X53430Y-22229D01*
X53475Y-22210D01*
X53565Y-22191D01*
X53633Y-22191D01*
X53723Y-22210D01*
X53768Y-22229D01*
X53813Y-22266D01*
X53835Y-22322D01*
X53835Y-22416D01*
X52592Y-24701D02*
X52592Y-24401D01*
X52772Y-24551D02*
X52412Y-24551D01*
X52772Y-24008D02*
X52772Y-24233D01*
X52772Y-24120D02*
X52300Y-24120D01*
X52367Y-24158D01*
X52412Y-24195D01*
X52435Y-24233D01*
X52345Y-23858D02*
X52322Y-23839D01*
X52300Y-23802D01*
X52300Y-23708D01*
X52322Y-23670D01*
X52345Y-23652D01*
X52390Y-23633D01*
X52435Y-23633D01*
X52502Y-23652D01*
X52772Y-23877D01*
X52772Y-23633D01*
X52300Y-23220D02*
X52772Y-23089D01*
X52300Y-22958D01*
X52772Y-22827D02*
X52300Y-22827D01*
X52300Y-22733D01*
X52322Y-22677D01*
X52367Y-22639D01*
X52412Y-22620D01*
X52502Y-22602D01*
X52570Y-22602D01*
X52660Y-22620D01*
X52705Y-22639D01*
X52750Y-22677D01*
X52772Y-22733D01*
X52772Y-22827D01*
X52727Y-22208D02*
X52750Y-22227D01*
X52772Y-22283D01*
X52772Y-22320D01*
X52750Y-22377D01*
X52705Y-22414D01*
X52660Y-22433D01*
X52570Y-22452D01*
X52502Y-22452D01*
X52412Y-22433D01*
X52367Y-22414D01*
X52322Y-22377D01*
X52300Y-22320D01*
X52300Y-22283D01*
X52322Y-22227D01*
X52345Y-22208D01*
X46181Y-23016D02*
X46158Y-23053D01*
X46158Y-23110D01*
X46181Y-23166D01*
X46226Y-23203D01*
X46271Y-23222D01*
X46361Y-23241D01*
X46428Y-23241D01*
X46518Y-23222D01*
X46563Y-23203D01*
X46608Y-23166D01*
X46631Y-23110D01*
X46631Y-23072D01*
X46608Y-23016D01*
X46586Y-22997D01*
X46428Y-22997D01*
X46428Y-23072D01*
X46631Y-22829D02*
X46158Y-22829D01*
X46631Y-22604D01*
X46158Y-22604D01*
X46631Y-22416D02*
X46158Y-22416D01*
X46158Y-22322D01*
X46181Y-22266D01*
X46226Y-22229D01*
X46271Y-22210D01*
X46361Y-22191D01*
X46428Y-22191D01*
X46518Y-22210D01*
X46563Y-22229D01*
X46608Y-22266D01*
X46631Y-22322D01*
X46631Y-22416D01*
X45393Y-24355D02*
X45393Y-24167D01*
X45528Y-24392D02*
X45056Y-24261D01*
X45528Y-24130D01*
X45213Y-23998D02*
X45528Y-23998D01*
X45258Y-23998D02*
X45236Y-23980D01*
X45213Y-23942D01*
X45213Y-23886D01*
X45236Y-23848D01*
X45281Y-23830D01*
X45528Y-23830D01*
X45213Y-23698D02*
X45213Y-23548D01*
X45056Y-23642D02*
X45461Y-23642D01*
X45506Y-23623D01*
X45528Y-23586D01*
X45528Y-23548D01*
X45506Y-23267D02*
X45528Y-23305D01*
X45528Y-23380D01*
X45506Y-23417D01*
X45461Y-23436D01*
X45281Y-23436D01*
X45236Y-23417D01*
X45213Y-23380D01*
X45213Y-23305D01*
X45236Y-23267D01*
X45281Y-23248D01*
X45326Y-23248D01*
X45371Y-23436D01*
X45213Y-23080D02*
X45528Y-23080D01*
X45258Y-23080D02*
X45236Y-23061D01*
X45213Y-23023D01*
X45213Y-22967D01*
X45236Y-22930D01*
X45281Y-22911D01*
X45528Y-22911D01*
X45213Y-22724D02*
X45528Y-22724D01*
X45258Y-22724D02*
X45236Y-22705D01*
X45213Y-22667D01*
X45213Y-22611D01*
X45236Y-22574D01*
X45281Y-22555D01*
X45528Y-22555D01*
X45528Y-22199D02*
X45281Y-22199D01*
X45236Y-22217D01*
X45213Y-22255D01*
X45213Y-22330D01*
X45236Y-22367D01*
X45506Y-22199D02*
X45528Y-22236D01*
X45528Y-22330D01*
X45506Y-22367D01*
X45461Y-22386D01*
X45416Y-22386D01*
X45371Y-22367D01*
X45348Y-22330D01*
X45348Y-22236D01*
X45326Y-22199D01*
G54D13*
X66141Y-59055D02*
G75*
G03X66929Y-58267I0J787D01*
G74*
G01*
X39370Y-58267D02*
G75*
G03X40157Y-59055I787J0D01*
G74*
G01*
X66929Y-20472D02*
G75*
G03X66141Y-19685I-787J0D01*
G74*
G01*
X40157Y-19685D02*
G75*
G03X39370Y-20472I0J-787D01*
G74*
G01*
X66141Y-19685D02*
X40157Y-19685D01*
X66929Y-58267D02*
X66929Y-20472D01*
X40157Y-59055D02*
X66141Y-59055D01*
X39370Y-20472D02*
X39370Y-58267D01*
G54D14*
X55078Y-29094D02*
X55078Y-29330D01*
X55078Y-30668D02*
X55078Y-30432D01*
X55078Y-30668D02*
X53897Y-31062D01*
X55078Y-29094D02*
X53897Y-28700D01*
X52716Y-29881D02*
G75*
G03X53897Y-31062I1181J0D01*
G74*
G01*
X53897Y-28700D02*
G75*
G03X52716Y-29881I0J-1181D01*
G74*
G01*
X48897Y-30668D02*
X48897Y-30432D01*
X48897Y-29094D02*
X48897Y-29330D01*
X48897Y-29094D02*
X50078Y-28700D01*
X48897Y-30668D02*
X50078Y-31062D01*
X51259Y-29881D02*
G75*
G03X50078Y-28700I-1181J0D01*
G74*
G01*
X50078Y-31062D02*
G75*
G03X51259Y-29881I0J1181D01*
G74*
G01*
X48897Y-34172D02*
X48897Y-33936D01*
X48897Y-32598D02*
X48897Y-32834D01*
X48897Y-32598D02*
X50078Y-32204D01*
X48897Y-34172D02*
X50078Y-34566D01*
X51259Y-33385D02*
G75*
G03X50078Y-32204I-1181J0D01*
G74*
G01*
X50078Y-34566D02*
G75*
G03X51259Y-33385I0J1181D01*
G74*
G01*
G54D11*
X57047Y-53011D02*
X58070Y-53011D01*
G54D10*
X57066Y-51909D02*
X57007Y-51909D01*
X57007Y-51909D02*
X57007Y-53681D01*
X57007Y-53681D02*
X57066Y-53681D01*
X58051Y-51909D02*
X58110Y-51909D01*
X58110Y-51909D02*
X58110Y-53681D01*
X58110Y-53681D02*
X58051Y-53681D01*
G54D12*
X56287Y-43740D02*
X56862Y-43740D01*
G54D10*
X56259Y-44393D02*
X56889Y-44393D01*
X56889Y-44393D02*
X56889Y-43606D01*
X56889Y-43606D02*
X56259Y-43606D01*
X56259Y-43606D02*
X56259Y-44393D01*
G54D12*
X52637Y-26417D02*
X51771Y-26417D01*
G54D10*
X51811Y-25905D02*
X51732Y-25905D01*
X51732Y-25905D02*
X51732Y-27322D01*
X51732Y-27322D02*
X51811Y-27322D01*
X52598Y-27322D02*
X52677Y-27322D01*
X52677Y-27322D02*
X52677Y-25905D01*
X52677Y-25905D02*
X52598Y-25905D01*
G54D12*
X61496Y-42637D02*
X62362Y-42637D01*
G54D10*
X62322Y-43149D02*
X62401Y-43149D01*
X62401Y-43149D02*
X62401Y-41732D01*
X62401Y-41732D02*
X62322Y-41732D01*
X61535Y-41732D02*
X61456Y-41732D01*
X61456Y-41732D02*
X61456Y-43149D01*
X61456Y-43149D02*
X61535Y-43149D01*
G54D15*
X57948Y-21956D02*
X57948Y-20956D01*
X57948Y-20956D02*
X60948Y-20956D01*
X60948Y-20956D02*
X60948Y-21956D01*
X60948Y-21956D02*
X57948Y-21956D01*
X58948Y-20956D02*
X58948Y-21956D01*
X44996Y-57783D02*
X44996Y-56783D01*
X44996Y-56783D02*
X47996Y-56783D01*
X47996Y-56783D02*
X47996Y-57783D01*
X47996Y-57783D02*
X44996Y-57783D01*
X45996Y-56783D02*
X45996Y-57783D01*
G54D16*
X51389Y-42192D02*
X52389Y-42192D01*
X51389Y-41192D02*
X52389Y-41192D01*
G54D15*
X51389Y-42192D02*
X51389Y-41192D01*
X52389Y-41192D02*
X52389Y-42192D01*
G54D16*
X54263Y-32901D02*
X55263Y-32901D01*
X54263Y-31901D02*
X55263Y-31901D01*
G54D15*
X54263Y-32901D02*
X54263Y-31901D01*
X55263Y-31901D02*
X55263Y-32901D01*
G54D16*
X57295Y-45814D02*
X58295Y-45814D01*
X57295Y-44814D02*
X58295Y-44814D01*
G54D15*
X57295Y-45814D02*
X57295Y-44814D01*
X58295Y-44814D02*
X58295Y-45814D01*
G54D16*
X62846Y-41602D02*
X63846Y-41602D01*
X62846Y-40602D02*
X63846Y-40602D01*
G54D15*
X62846Y-41602D02*
X62846Y-40602D01*
X63846Y-40602D02*
X63846Y-41602D01*
G54D16*
X62767Y-55185D02*
X63767Y-55185D01*
X62767Y-54185D02*
X63767Y-54185D01*
G54D15*
X62767Y-55185D02*
X62767Y-54185D01*
X63767Y-54185D02*
X63767Y-55185D01*
X58421Y-57783D02*
X58421Y-56783D01*
X58421Y-56783D02*
X61421Y-56783D01*
X61421Y-56783D02*
X61421Y-57783D01*
X61421Y-57783D02*
X58421Y-57783D01*
X59421Y-56783D02*
X59421Y-57783D01*
X52122Y-57783D02*
X52122Y-56783D01*
X52122Y-56783D02*
X55122Y-56783D01*
X55122Y-56783D02*
X55122Y-57783D01*
X55122Y-57783D02*
X52122Y-57783D01*
X53122Y-56783D02*
X53122Y-57783D01*
G54D10*
X60118Y-40531D02*
X60118Y-40255D01*
X58149Y-39901D02*
X58149Y-39409D01*
X58149Y-39409D02*
X60118Y-39409D01*
X60118Y-39409D02*
X60118Y-39606D01*
X60118Y-41181D02*
X60118Y-41377D01*
X60118Y-41377D02*
X58149Y-41377D01*
X58149Y-41377D02*
X58149Y-40885D01*
X56448Y-35866D02*
G75*
G03X56448Y-35866I-937J0D01*
G74*
G01*
X57381Y-35866D02*
G75*
G03X57381Y-35866I-1870J0D01*
G74*
G01*
G54D15*
X62937Y-29437D02*
X62937Y-28437D01*
X62937Y-28437D02*
X64937Y-28437D01*
X64937Y-28437D02*
X64937Y-29437D01*
X64937Y-29437D02*
X62937Y-29437D01*
X57177Y-47149D02*
X58177Y-47149D01*
X58177Y-47149D02*
X58177Y-49149D01*
X58177Y-49149D02*
X57177Y-49149D01*
X57177Y-49149D02*
X57177Y-47149D01*
X52070Y-21956D02*
X52070Y-20956D01*
X52070Y-20956D02*
X54070Y-20956D01*
X54070Y-20956D02*
X54070Y-21956D01*
X54070Y-21956D02*
X52070Y-21956D01*
X41429Y-32031D02*
X42429Y-32031D01*
X42429Y-32031D02*
X42429Y-34031D01*
X42429Y-34031D02*
X41429Y-34031D01*
X41429Y-34031D02*
X41429Y-32031D01*
X44905Y-21956D02*
X44905Y-20956D01*
X44905Y-20956D02*
X46905Y-20956D01*
X46905Y-20956D02*
X46905Y-21956D01*
X46905Y-21956D02*
X44905Y-21956D01*
G54D10*
X46279Y-51732D02*
X46673Y-52125D01*
X46673Y-52125D02*
X46673Y-55000D01*
X43799Y-51732D02*
X43405Y-52125D01*
X43405Y-52125D02*
X43405Y-55000D01*
X44645Y-51732D02*
X43799Y-51732D01*
X45433Y-51732D02*
X46279Y-51732D01*
X44645Y-55000D02*
X43405Y-55000D01*
X45433Y-55000D02*
X46673Y-55000D01*
X55649Y-47322D02*
X56043Y-47716D01*
X56043Y-47716D02*
X56043Y-50590D01*
X53169Y-47322D02*
X52775Y-47716D01*
X52775Y-47716D02*
X52775Y-50590D01*
X54015Y-47322D02*
X53169Y-47322D01*
X54803Y-47322D02*
X55649Y-47322D01*
X54015Y-50590D02*
X52775Y-50590D01*
X54803Y-50590D02*
X56043Y-50590D01*
X51122Y-53740D02*
X50728Y-54133D01*
X50728Y-54133D02*
X50728Y-55826D01*
X52027Y-53740D02*
X52421Y-54133D01*
X52421Y-54133D02*
X52421Y-55826D01*
X51259Y-53740D02*
X51122Y-53740D01*
X51889Y-53740D02*
X52027Y-53740D01*
X51259Y-55826D02*
X50728Y-55826D01*
X51889Y-55826D02*
X52421Y-55826D01*
X58917Y-35905D02*
X58523Y-36299D01*
X58523Y-36299D02*
X58523Y-37992D01*
X59822Y-35905D02*
X60216Y-36299D01*
X60216Y-36299D02*
X60216Y-37992D01*
X59055Y-35905D02*
X58917Y-35905D01*
X59685Y-35905D02*
X59822Y-35905D01*
X59055Y-37992D02*
X58523Y-37992D01*
X59685Y-37992D02*
X60216Y-37992D01*
X61161Y-35905D02*
X60767Y-36299D01*
X60767Y-36299D02*
X60767Y-37992D01*
X62066Y-35905D02*
X62460Y-36299D01*
X62460Y-36299D02*
X62460Y-37992D01*
X61299Y-35905D02*
X61161Y-35905D01*
X61929Y-35905D02*
X62066Y-35905D01*
X61299Y-37992D02*
X60767Y-37992D01*
X61929Y-37992D02*
X62460Y-37992D01*
X44803Y-34311D02*
X45984Y-34311D01*
X45984Y-34311D02*
X45984Y-33976D01*
X45984Y-33976D02*
X44803Y-33976D01*
X44803Y-33976D02*
X44803Y-34311D01*
X59685Y-34074D02*
X60866Y-34074D01*
X60866Y-34074D02*
X60866Y-33740D01*
X60866Y-33740D02*
X59685Y-33740D01*
X59685Y-33740D02*
X59685Y-34074D01*
G54D14*
X42238Y-21653D02*
G75*
G03X42238Y-21653I-900J0D01*
G74*
G01*
X65860Y-21653D02*
G75*
G03X65860Y-21653I-900J0D01*
G74*
G01*
X42238Y-57086D02*
G75*
G03X42238Y-57086I-900J0D01*
G74*
G01*
X65860Y-57086D02*
G75*
G03X65860Y-57086I-900J0D01*
G74*
G01*
G54D12*
X45905Y-47952D02*
X45905Y-48818D01*
G54D10*
X45393Y-48779D02*
X45393Y-48858D01*
X45393Y-48858D02*
X46811Y-48858D01*
X46811Y-48858D02*
X46811Y-48779D01*
X46811Y-47992D02*
X46811Y-47913D01*
X46811Y-47913D02*
X45393Y-47913D01*
X45393Y-47913D02*
X45393Y-47992D01*
G54D12*
X48307Y-47952D02*
X48307Y-48818D01*
G54D10*
X47795Y-48779D02*
X47795Y-48858D01*
X47795Y-48858D02*
X49212Y-48858D01*
X49212Y-48858D02*
X49212Y-48779D01*
X49212Y-47992D02*
X49212Y-47913D01*
X49212Y-47913D02*
X47795Y-47913D01*
X47795Y-47913D02*
X47795Y-47992D01*
G54D17*
X44918Y-39748D02*
X44518Y-39748D01*
X44518Y-39748D02*
X44518Y-39148D01*
X44518Y-39148D02*
X44918Y-39148D01*
X45318Y-39148D02*
X45718Y-39148D01*
X45718Y-39148D02*
X45718Y-39748D01*
X45718Y-39748D02*
X45318Y-39748D01*
X42870Y-26205D02*
X42470Y-26205D01*
X42470Y-26205D02*
X42470Y-25605D01*
X42470Y-25605D02*
X42870Y-25605D01*
X43270Y-25605D02*
X43670Y-25605D01*
X43670Y-25605D02*
X43670Y-26205D01*
X43670Y-26205D02*
X43270Y-26205D01*
X44878Y-46835D02*
X44478Y-46835D01*
X44478Y-46835D02*
X44478Y-46235D01*
X44478Y-46235D02*
X44878Y-46235D01*
X45278Y-46235D02*
X45678Y-46235D01*
X45678Y-46235D02*
X45678Y-46835D01*
X45678Y-46835D02*
X45278Y-46835D01*
X59130Y-56166D02*
X58730Y-56166D01*
X58730Y-56166D02*
X58730Y-55566D01*
X58730Y-55566D02*
X59130Y-55566D01*
X59530Y-55566D02*
X59930Y-55566D01*
X59930Y-55566D02*
X59930Y-56166D01*
X59930Y-56166D02*
X59530Y-56166D01*
X48303Y-39748D02*
X47903Y-39748D01*
X47903Y-39748D02*
X47903Y-39148D01*
X47903Y-39148D02*
X48303Y-39148D01*
X48703Y-39148D02*
X49103Y-39148D01*
X49103Y-39148D02*
X49103Y-39748D01*
X49103Y-39748D02*
X48703Y-39748D01*
X60272Y-29985D02*
X59872Y-29985D01*
X59872Y-29985D02*
X59872Y-29385D01*
X59872Y-29385D02*
X60272Y-29385D01*
X60672Y-29385D02*
X61072Y-29385D01*
X61072Y-29385D02*
X61072Y-29985D01*
X61072Y-29985D02*
X60672Y-29985D01*
X58252Y-31656D02*
X58252Y-32056D01*
X58252Y-32056D02*
X57652Y-32056D01*
X57652Y-32056D02*
X57652Y-31656D01*
X57652Y-31256D02*
X57652Y-30856D01*
X57652Y-30856D02*
X58252Y-30856D01*
X58252Y-30856D02*
X58252Y-31256D01*
X56235Y-31256D02*
X56235Y-30856D01*
X56235Y-30856D02*
X56835Y-30856D01*
X56835Y-30856D02*
X56835Y-31256D01*
X56835Y-31656D02*
X56835Y-32056D01*
X56835Y-32056D02*
X56235Y-32056D01*
X56235Y-32056D02*
X56235Y-31656D01*
X48303Y-46835D02*
X47903Y-46835D01*
X47903Y-46835D02*
X47903Y-46235D01*
X47903Y-46235D02*
X48303Y-46235D01*
X48703Y-46235D02*
X49103Y-46235D01*
X49103Y-46235D02*
X49103Y-46835D01*
X49103Y-46835D02*
X48703Y-46835D01*
X47555Y-29158D02*
X47155Y-29158D01*
X47155Y-29158D02*
X47155Y-28558D01*
X47155Y-28558D02*
X47555Y-28558D01*
X47955Y-28558D02*
X48355Y-28558D01*
X48355Y-28558D02*
X48355Y-29158D01*
X48355Y-29158D02*
X47955Y-29158D01*
X52719Y-33243D02*
X53119Y-33243D01*
X53119Y-33243D02*
X53119Y-33843D01*
X53119Y-33843D02*
X52719Y-33843D01*
X52319Y-33843D02*
X51919Y-33843D01*
X51919Y-33843D02*
X51919Y-33243D01*
X51919Y-33243D02*
X52319Y-33243D01*
X56729Y-29985D02*
X56329Y-29985D01*
X56329Y-29985D02*
X56329Y-29385D01*
X56329Y-29385D02*
X56729Y-29385D01*
X57129Y-29385D02*
X57529Y-29385D01*
X57529Y-29385D02*
X57529Y-29985D01*
X57529Y-29985D02*
X57129Y-29985D01*
X64091Y-47229D02*
X63691Y-47229D01*
X63691Y-47229D02*
X63691Y-46629D01*
X63691Y-46629D02*
X64091Y-46629D01*
X64491Y-46629D02*
X64891Y-46629D01*
X64891Y-46629D02*
X64891Y-47229D01*
X64891Y-47229D02*
X64491Y-47229D01*
X60772Y-46774D02*
X60772Y-47174D01*
X60772Y-47174D02*
X60172Y-47174D01*
X60172Y-47174D02*
X60172Y-46774D01*
X60172Y-46374D02*
X60172Y-45974D01*
X60172Y-45974D02*
X60772Y-45974D01*
X60772Y-45974D02*
X60772Y-46374D01*
X58833Y-46374D02*
X58833Y-45974D01*
X58833Y-45974D02*
X59433Y-45974D01*
X59433Y-45974D02*
X59433Y-46374D01*
X59433Y-46774D02*
X59433Y-47174D01*
X59433Y-47174D02*
X58833Y-47174D01*
X58833Y-47174D02*
X58833Y-46774D01*
X53164Y-39170D02*
X53164Y-38770D01*
X53164Y-38770D02*
X53764Y-38770D01*
X53764Y-38770D02*
X53764Y-39170D01*
X53764Y-39570D02*
X53764Y-39970D01*
X53764Y-39970D02*
X53164Y-39970D01*
X53164Y-39970D02*
X53164Y-39570D01*
X47555Y-30693D02*
X47155Y-30693D01*
X47155Y-30693D02*
X47155Y-30093D01*
X47155Y-30093D02*
X47555Y-30093D01*
X47955Y-30093D02*
X48355Y-30093D01*
X48355Y-30093D02*
X48355Y-30693D01*
X48355Y-30693D02*
X47955Y-30693D01*
X47555Y-32229D02*
X47155Y-32229D01*
X47155Y-32229D02*
X47155Y-31629D01*
X47155Y-31629D02*
X47555Y-31629D01*
X47955Y-31629D02*
X48355Y-31629D01*
X48355Y-31629D02*
X48355Y-32229D01*
X48355Y-32229D02*
X47955Y-32229D01*
X60475Y-44503D02*
X60875Y-44503D01*
X60875Y-44503D02*
X60875Y-45103D01*
X60875Y-45103D02*
X60475Y-45103D01*
X60075Y-45103D02*
X59675Y-45103D01*
X59675Y-45103D02*
X59675Y-44503D01*
X59675Y-44503D02*
X60075Y-44503D01*
X43067Y-35654D02*
X42667Y-35654D01*
X42667Y-35654D02*
X42667Y-35054D01*
X42667Y-35054D02*
X43067Y-35054D01*
X43467Y-35054D02*
X43867Y-35054D01*
X43867Y-35054D02*
X43867Y-35654D01*
X43867Y-35654D02*
X43467Y-35654D01*
X56374Y-39000D02*
X55974Y-39000D01*
X55974Y-39000D02*
X55974Y-38400D01*
X55974Y-38400D02*
X56374Y-38400D01*
X56774Y-38400D02*
X57174Y-38400D01*
X57174Y-38400D02*
X57174Y-39000D01*
X57174Y-39000D02*
X56774Y-39000D01*
X48067Y-38370D02*
X47667Y-38370D01*
X47667Y-38370D02*
X47667Y-37770D01*
X47667Y-37770D02*
X48067Y-37770D01*
X48467Y-37770D02*
X48867Y-37770D01*
X48867Y-37770D02*
X48867Y-38370D01*
X48867Y-38370D02*
X48467Y-38370D01*
X43243Y-37044D02*
X43243Y-36644D01*
X43243Y-36644D02*
X43843Y-36644D01*
X43843Y-36644D02*
X43843Y-37044D01*
X43843Y-37444D02*
X43843Y-37844D01*
X43843Y-37844D02*
X43243Y-37844D01*
X43243Y-37844D02*
X43243Y-37444D01*
X54760Y-39000D02*
X54360Y-39000D01*
X54360Y-39000D02*
X54360Y-38400D01*
X54360Y-38400D02*
X54760Y-38400D01*
X55160Y-38400D02*
X55560Y-38400D01*
X55560Y-38400D02*
X55560Y-39000D01*
X55560Y-39000D02*
X55160Y-39000D01*
X54721Y-40378D02*
X54321Y-40378D01*
X54321Y-40378D02*
X54321Y-39778D01*
X54321Y-39778D02*
X54721Y-39778D01*
X55121Y-39778D02*
X55521Y-39778D01*
X55521Y-39778D02*
X55521Y-40378D01*
X55521Y-40378D02*
X55121Y-40378D01*
X55508Y-56166D02*
X55108Y-56166D01*
X55108Y-56166D02*
X55108Y-55566D01*
X55108Y-55566D02*
X55508Y-55566D01*
X55908Y-55566D02*
X56308Y-55566D01*
X56308Y-55566D02*
X56308Y-56166D01*
X56308Y-56166D02*
X55908Y-56166D01*
X55508Y-54591D02*
X55108Y-54591D01*
X55108Y-54591D02*
X55108Y-53991D01*
X55108Y-53991D02*
X55508Y-53991D01*
X55908Y-53991D02*
X56308Y-53991D01*
X56308Y-53991D02*
X56308Y-54591D01*
X56308Y-54591D02*
X55908Y-54591D01*
X60436Y-42416D02*
X60836Y-42416D01*
X60836Y-42416D02*
X60836Y-43016D01*
X60836Y-43016D02*
X60436Y-43016D01*
X60036Y-43016D02*
X59636Y-43016D01*
X59636Y-43016D02*
X59636Y-42416D01*
X59636Y-42416D02*
X60036Y-42416D01*
X51735Y-48676D02*
X52135Y-48676D01*
X52135Y-48676D02*
X52135Y-49276D01*
X52135Y-49276D02*
X51735Y-49276D01*
X51335Y-49276D02*
X50935Y-49276D01*
X50935Y-49276D02*
X50935Y-48676D01*
X50935Y-48676D02*
X51335Y-48676D01*
X49327Y-52229D02*
X48927Y-52229D01*
X48927Y-52229D02*
X48927Y-51629D01*
X48927Y-51629D02*
X49327Y-51629D01*
X49727Y-51629D02*
X50127Y-51629D01*
X50127Y-51629D02*
X50127Y-52229D01*
X50127Y-52229D02*
X49727Y-52229D01*
X47634Y-54473D02*
X47234Y-54473D01*
X47234Y-54473D02*
X47234Y-53873D01*
X47234Y-53873D02*
X47634Y-53873D01*
X48034Y-53873D02*
X48434Y-53873D01*
X48434Y-53873D02*
X48434Y-54473D01*
X48434Y-54473D02*
X48034Y-54473D01*
X63264Y-36717D02*
X62864Y-36717D01*
X62864Y-36717D02*
X62864Y-36117D01*
X62864Y-36117D02*
X63264Y-36117D01*
X63664Y-36117D02*
X64064Y-36117D01*
X64064Y-36117D02*
X64064Y-36717D01*
X64064Y-36717D02*
X63664Y-36717D01*
X64918Y-38213D02*
X64518Y-38213D01*
X64518Y-38213D02*
X64518Y-37613D01*
X64518Y-37613D02*
X64918Y-37613D01*
X65318Y-37613D02*
X65718Y-37613D01*
X65718Y-37613D02*
X65718Y-38213D01*
X65718Y-38213D02*
X65318Y-38213D01*
X63664Y-37613D02*
X64064Y-37613D01*
X64064Y-37613D02*
X64064Y-38213D01*
X64064Y-38213D02*
X63664Y-38213D01*
X63264Y-38213D02*
X62864Y-38213D01*
X62864Y-38213D02*
X62864Y-37613D01*
X62864Y-37613D02*
X63264Y-37613D01*
X64918Y-36717D02*
X64518Y-36717D01*
X64518Y-36717D02*
X64518Y-36117D01*
X64518Y-36117D02*
X64918Y-36117D01*
X65318Y-36117D02*
X65718Y-36117D01*
X65718Y-36117D02*
X65718Y-36717D01*
X65718Y-36717D02*
X65318Y-36717D01*
X59530Y-54109D02*
X59930Y-54109D01*
X59930Y-54109D02*
X59930Y-54709D01*
X59930Y-54709D02*
X59530Y-54709D01*
X59130Y-54709D02*
X58730Y-54709D01*
X58730Y-54709D02*
X58730Y-54109D01*
X58730Y-54109D02*
X59130Y-54109D01*
X50429Y-38370D02*
X50029Y-38370D01*
X50029Y-38370D02*
X50029Y-37770D01*
X50029Y-37770D02*
X50429Y-37770D01*
X50829Y-37770D02*
X51229Y-37770D01*
X51229Y-37770D02*
X51229Y-38370D01*
X51229Y-38370D02*
X50829Y-38370D01*
X61099Y-56166D02*
X60699Y-56166D01*
X60699Y-56166D02*
X60699Y-55566D01*
X60699Y-55566D02*
X61099Y-55566D01*
X61499Y-55566D02*
X61899Y-55566D01*
X61899Y-55566D02*
X61899Y-56166D01*
X61899Y-56166D02*
X61499Y-56166D01*
X61284Y-31696D02*
X61284Y-32096D01*
X61284Y-32096D02*
X60684Y-32096D01*
X60684Y-32096D02*
X60684Y-31696D01*
X60684Y-31296D02*
X60684Y-30896D01*
X60684Y-30896D02*
X61284Y-30896D01*
X61284Y-30896D02*
X61284Y-31296D01*
X57819Y-55790D02*
X57819Y-56190D01*
X57819Y-56190D02*
X57219Y-56190D01*
X57219Y-56190D02*
X57219Y-55790D01*
X57219Y-55390D02*
X57219Y-54990D01*
X57219Y-54990D02*
X57819Y-54990D01*
X57819Y-54990D02*
X57819Y-55390D01*
X52319Y-32386D02*
X51919Y-32386D01*
X51919Y-32386D02*
X51919Y-31786D01*
X51919Y-31786D02*
X52319Y-31786D01*
X52719Y-31786D02*
X53119Y-31786D01*
X53119Y-31786D02*
X53119Y-32386D01*
X53119Y-32386D02*
X52719Y-32386D01*
X62162Y-31559D02*
X61762Y-31559D01*
X61762Y-31559D02*
X61762Y-30959D01*
X61762Y-30959D02*
X62162Y-30959D01*
X62562Y-30959D02*
X62962Y-30959D01*
X62962Y-30959D02*
X62962Y-31559D01*
X62962Y-31559D02*
X62562Y-31559D01*
X52680Y-35093D02*
X53080Y-35093D01*
X53080Y-35093D02*
X53080Y-35693D01*
X53080Y-35693D02*
X52680Y-35693D01*
X52280Y-35693D02*
X51880Y-35693D01*
X51880Y-35693D02*
X51880Y-35093D01*
X51880Y-35093D02*
X52280Y-35093D01*
X61099Y-54709D02*
X60699Y-54709D01*
X60699Y-54709D02*
X60699Y-54109D01*
X60699Y-54109D02*
X61099Y-54109D01*
X61499Y-54109D02*
X61899Y-54109D01*
X61899Y-54109D02*
X61899Y-54709D01*
X61899Y-54709D02*
X61499Y-54709D01*
X58940Y-29385D02*
X59340Y-29385D01*
X59340Y-29385D02*
X59340Y-29985D01*
X59340Y-29985D02*
X58940Y-29985D01*
X58540Y-29985D02*
X58140Y-29985D01*
X58140Y-29985D02*
X58140Y-29385D01*
X58140Y-29385D02*
X58540Y-29385D01*
X51865Y-39170D02*
X51865Y-38770D01*
X51865Y-38770D02*
X52465Y-38770D01*
X52465Y-38770D02*
X52465Y-39170D01*
X52465Y-39570D02*
X52465Y-39970D01*
X52465Y-39970D02*
X51865Y-39970D01*
X51865Y-39970D02*
X51865Y-39570D01*
X62162Y-32898D02*
X61762Y-32898D01*
X61762Y-32898D02*
X61762Y-32298D01*
X61762Y-32298D02*
X62162Y-32298D01*
X62562Y-32298D02*
X62962Y-32298D01*
X62962Y-32298D02*
X62962Y-32898D01*
X62962Y-32898D02*
X62562Y-32898D01*
X56853Y-33046D02*
X57253Y-33046D01*
X57253Y-33046D02*
X57253Y-33646D01*
X57253Y-33646D02*
X56853Y-33646D01*
X56453Y-33646D02*
X56053Y-33646D01*
X56053Y-33646D02*
X56053Y-33046D01*
X56053Y-33046D02*
X56453Y-33046D01*
X64491Y-45172D02*
X64891Y-45172D01*
X64891Y-45172D02*
X64891Y-45772D01*
X64891Y-45772D02*
X64491Y-45772D01*
X64091Y-45772D02*
X63691Y-45772D01*
X63691Y-45772D02*
X63691Y-45172D01*
X63691Y-45172D02*
X64091Y-45172D01*
X62083Y-45103D02*
X61683Y-45103D01*
X61683Y-45103D02*
X61683Y-44503D01*
X61683Y-44503D02*
X62083Y-44503D01*
X62483Y-44503D02*
X62883Y-44503D01*
X62883Y-44503D02*
X62883Y-45103D01*
X62883Y-45103D02*
X62483Y-45103D01*
X63164Y-34170D02*
X63164Y-33770D01*
X63164Y-33770D02*
X63764Y-33770D01*
X63764Y-33770D02*
X63764Y-34170D01*
X63764Y-34570D02*
X63764Y-34970D01*
X63764Y-34970D02*
X63164Y-34970D01*
X63164Y-34970D02*
X63164Y-34570D01*
X62465Y-34570D02*
X62465Y-34970D01*
X62465Y-34970D02*
X61865Y-34970D01*
X61865Y-34970D02*
X61865Y-34570D01*
X61865Y-34170D02*
X61865Y-33770D01*
X61865Y-33770D02*
X62465Y-33770D01*
X62465Y-33770D02*
X62465Y-34170D01*
X58507Y-33715D02*
X58907Y-33715D01*
X58907Y-33715D02*
X58907Y-34315D01*
X58907Y-34315D02*
X58507Y-34315D01*
X58107Y-34315D02*
X57707Y-34315D01*
X57707Y-34315D02*
X57707Y-33715D01*
X57707Y-33715D02*
X58107Y-33715D01*
X47240Y-33922D02*
X46840Y-33922D01*
X46840Y-33922D02*
X46840Y-33322D01*
X46840Y-33322D02*
X47240Y-33322D01*
X47640Y-33322D02*
X48040Y-33322D01*
X48040Y-33322D02*
X48040Y-33922D01*
X48040Y-33922D02*
X47640Y-33922D01*
X45233Y-32229D02*
X44833Y-32229D01*
X44833Y-32229D02*
X44833Y-31629D01*
X44833Y-31629D02*
X45233Y-31629D01*
X45633Y-31629D02*
X46033Y-31629D01*
X46033Y-31629D02*
X46033Y-32229D01*
X46033Y-32229D02*
X45633Y-32229D01*
X46156Y-37044D02*
X46156Y-36644D01*
X46156Y-36644D02*
X46756Y-36644D01*
X46756Y-36644D02*
X46756Y-37044D01*
X46756Y-37444D02*
X46756Y-37844D01*
X46756Y-37844D02*
X46156Y-37844D01*
X46156Y-37844D02*
X46156Y-37444D01*
X45339Y-37444D02*
X45339Y-37844D01*
X45339Y-37844D02*
X44739Y-37844D01*
X44739Y-37844D02*
X44739Y-37444D01*
X44739Y-37044D02*
X44739Y-36644D01*
X44739Y-36644D02*
X45339Y-36644D01*
X45339Y-36644D02*
X45339Y-37044D01*
X41825Y-37044D02*
X41825Y-36644D01*
X41825Y-36644D02*
X42425Y-36644D01*
X42425Y-36644D02*
X42425Y-37044D01*
X42425Y-37444D02*
X42425Y-37844D01*
X42425Y-37844D02*
X41825Y-37844D01*
X41825Y-37844D02*
X41825Y-37444D01*
X55339Y-43900D02*
X55339Y-44300D01*
X55339Y-44300D02*
X54739Y-44300D01*
X54739Y-44300D02*
X54739Y-43900D01*
X54739Y-43500D02*
X54739Y-43100D01*
X54739Y-43100D02*
X55339Y-43100D01*
X55339Y-43100D02*
X55339Y-43500D01*
X53467Y-45251D02*
X53867Y-45251D01*
X53867Y-45251D02*
X53867Y-45851D01*
X53867Y-45851D02*
X53467Y-45851D01*
X53067Y-45851D02*
X52667Y-45851D01*
X52667Y-45851D02*
X52667Y-45251D01*
X52667Y-45251D02*
X53067Y-45251D01*
X63185Y-25300D02*
X62785Y-25300D01*
X62785Y-25300D02*
X62785Y-24700D01*
X62785Y-24700D02*
X63185Y-24700D01*
X63585Y-24700D02*
X63985Y-24700D01*
X63985Y-24700D02*
X63985Y-25300D01*
X63985Y-25300D02*
X63585Y-25300D01*
X56374Y-40378D02*
X55974Y-40378D01*
X55974Y-40378D02*
X55974Y-39778D01*
X55974Y-39778D02*
X56374Y-39778D01*
X56774Y-39778D02*
X57174Y-39778D01*
X57174Y-39778D02*
X57174Y-40378D01*
X57174Y-40378D02*
X56774Y-40378D01*
X55390Y-26205D02*
X54990Y-26205D01*
X54990Y-26205D02*
X54990Y-25605D01*
X54990Y-25605D02*
X55390Y-25605D01*
X55790Y-25605D02*
X56190Y-25605D01*
X56190Y-25605D02*
X56190Y-26205D01*
X56190Y-26205D02*
X55790Y-26205D01*
X64621Y-26492D02*
X64621Y-26092D01*
X64621Y-26092D02*
X65221Y-26092D01*
X65221Y-26092D02*
X65221Y-26492D01*
X65221Y-26892D02*
X65221Y-27292D01*
X65221Y-27292D02*
X64621Y-27292D01*
X64621Y-27292D02*
X64621Y-26892D01*
X53579Y-54591D02*
X53179Y-54591D01*
X53179Y-54591D02*
X53179Y-53991D01*
X53179Y-53991D02*
X53579Y-53991D01*
X53979Y-53991D02*
X54379Y-53991D01*
X54379Y-53991D02*
X54379Y-54591D01*
X54379Y-54591D02*
X53979Y-54591D01*
X55469Y-53016D02*
X55069Y-53016D01*
X55069Y-53016D02*
X55069Y-52416D01*
X55069Y-52416D02*
X55469Y-52416D01*
X55869Y-52416D02*
X56269Y-52416D01*
X56269Y-52416D02*
X56269Y-53016D01*
X56269Y-53016D02*
X55869Y-53016D01*
X58703Y-42416D02*
X59103Y-42416D01*
X59103Y-42416D02*
X59103Y-43016D01*
X59103Y-43016D02*
X58703Y-43016D01*
X58303Y-43016D02*
X57903Y-43016D01*
X57903Y-43016D02*
X57903Y-42416D01*
X57903Y-42416D02*
X58303Y-42416D01*
X53979Y-55566D02*
X54379Y-55566D01*
X54379Y-55566D02*
X54379Y-56166D01*
X54379Y-56166D02*
X53979Y-56166D01*
X53579Y-56166D02*
X53179Y-56166D01*
X53179Y-56166D02*
X53179Y-55566D01*
X53179Y-55566D02*
X53579Y-55566D01*
X51335Y-52229D02*
X50935Y-52229D01*
X50935Y-52229D02*
X50935Y-51629D01*
X50935Y-51629D02*
X51335Y-51629D01*
X51735Y-51629D02*
X52135Y-51629D01*
X52135Y-51629D02*
X52135Y-52229D01*
X52135Y-52229D02*
X51735Y-52229D01*
X51735Y-50093D02*
X52135Y-50093D01*
X52135Y-50093D02*
X52135Y-50693D01*
X52135Y-50693D02*
X51735Y-50693D01*
X51335Y-50693D02*
X50935Y-50693D01*
X50935Y-50693D02*
X50935Y-50093D01*
X50935Y-50093D02*
X51335Y-50093D01*
X62150Y-40239D02*
X62150Y-40639D01*
X62150Y-40639D02*
X61550Y-40639D01*
X61550Y-40639D02*
X61550Y-40239D01*
X61550Y-39839D02*
X61550Y-39439D01*
X61550Y-39439D02*
X62150Y-39439D01*
X62150Y-39439D02*
X62150Y-39839D01*
X49327Y-50693D02*
X48927Y-50693D01*
X48927Y-50693D02*
X48927Y-50093D01*
X48927Y-50093D02*
X49327Y-50093D01*
X49727Y-50093D02*
X50127Y-50093D01*
X50127Y-50093D02*
X50127Y-50693D01*
X50127Y-50693D02*
X49727Y-50693D01*
X49327Y-56126D02*
X48927Y-56126D01*
X48927Y-56126D02*
X48927Y-55526D01*
X48927Y-55526D02*
X49327Y-55526D01*
X49727Y-55526D02*
X50127Y-55526D01*
X50127Y-55526D02*
X50127Y-56126D01*
X50127Y-56126D02*
X49727Y-56126D01*
X64800Y-31796D02*
X64400Y-31796D01*
X64400Y-31796D02*
X64400Y-31196D01*
X64400Y-31196D02*
X64800Y-31196D01*
X65200Y-31196D02*
X65600Y-31196D01*
X65600Y-31196D02*
X65600Y-31796D01*
X65600Y-31796D02*
X65200Y-31796D01*
X63264Y-39748D02*
X62864Y-39748D01*
X62864Y-39748D02*
X62864Y-39148D01*
X62864Y-39148D02*
X63264Y-39148D01*
X63664Y-39148D02*
X64064Y-39148D01*
X64064Y-39148D02*
X64064Y-39748D01*
X64064Y-39748D02*
X63664Y-39748D01*
X63518Y-43540D02*
X63518Y-43140D01*
X63518Y-43140D02*
X64118Y-43140D01*
X64118Y-43140D02*
X64118Y-43540D01*
X64118Y-43940D02*
X64118Y-44340D01*
X64118Y-44340D02*
X63518Y-44340D01*
X63518Y-44340D02*
X63518Y-43940D01*
X65496Y-43940D02*
X65496Y-44340D01*
X65496Y-44340D02*
X64896Y-44340D01*
X64896Y-44340D02*
X64896Y-43940D01*
X64896Y-43540D02*
X64896Y-43140D01*
X64896Y-43140D02*
X65496Y-43140D01*
X65496Y-43140D02*
X65496Y-43540D01*
X64800Y-35181D02*
X64400Y-35181D01*
X64400Y-35181D02*
X64400Y-34581D01*
X64400Y-34581D02*
X64800Y-34581D01*
X65200Y-34581D02*
X65600Y-34581D01*
X65600Y-34581D02*
X65600Y-35181D01*
X65600Y-35181D02*
X65200Y-35181D01*
X44255Y-48085D02*
X44655Y-48085D01*
X44655Y-48085D02*
X44655Y-48685D01*
X44655Y-48685D02*
X44255Y-48685D01*
X43855Y-48685D02*
X43455Y-48685D01*
X43455Y-48685D02*
X43455Y-48085D01*
X43455Y-48085D02*
X43855Y-48085D01*
X64918Y-39748D02*
X64518Y-39748D01*
X64518Y-39748D02*
X64518Y-39148D01*
X64518Y-39148D02*
X64918Y-39148D01*
X65318Y-39148D02*
X65718Y-39148D01*
X65718Y-39148D02*
X65718Y-39748D01*
X65718Y-39748D02*
X65318Y-39748D01*
X55278Y-45251D02*
X55678Y-45251D01*
X55678Y-45251D02*
X55678Y-45851D01*
X55678Y-45851D02*
X55278Y-45851D01*
X54878Y-45851D02*
X54478Y-45851D01*
X54478Y-45851D02*
X54478Y-45251D01*
X54478Y-45251D02*
X54878Y-45251D01*
X47798Y-50093D02*
X48198Y-50093D01*
X48198Y-50093D02*
X48198Y-50693D01*
X48198Y-50693D02*
X47798Y-50693D01*
X47398Y-50693D02*
X46998Y-50693D01*
X46998Y-50693D02*
X46998Y-50093D01*
X46998Y-50093D02*
X47398Y-50093D01*
X45948Y-50093D02*
X46348Y-50093D01*
X46348Y-50093D02*
X46348Y-50693D01*
X46348Y-50693D02*
X45948Y-50693D01*
X45548Y-50693D02*
X45148Y-50693D01*
X45148Y-50693D02*
X45148Y-50093D01*
X45148Y-50093D02*
X45548Y-50093D01*
G54D18*
X42392Y-30164D02*
X43592Y-30164D01*
X43592Y-30164D02*
X43592Y-30464D01*
X43592Y-30464D02*
X42392Y-30464D01*
X42392Y-30464D02*
X42392Y-30164D01*
X43592Y-28142D02*
X42392Y-28142D01*
X42392Y-28142D02*
X42392Y-27842D01*
X42392Y-27842D02*
X43592Y-27842D01*
X43592Y-27842D02*
X43592Y-28142D01*
X64889Y-33749D02*
X64889Y-32549D01*
X64889Y-32549D02*
X65189Y-32549D01*
X65189Y-32549D02*
X65189Y-33749D01*
X65189Y-33749D02*
X64889Y-33749D01*
X53218Y-26070D02*
X54418Y-26070D01*
X54418Y-26070D02*
X54418Y-26370D01*
X54418Y-26370D02*
X53218Y-26370D01*
X53218Y-26370D02*
X53218Y-26070D01*
X53338Y-43100D02*
X53338Y-44300D01*
X53338Y-44300D02*
X53038Y-44300D01*
X53038Y-44300D02*
X53038Y-43100D01*
X53038Y-43100D02*
X53338Y-43100D01*
X53629Y-42253D02*
X53629Y-41053D01*
X53629Y-41053D02*
X53929Y-41053D01*
X53929Y-41053D02*
X53929Y-42253D01*
X53929Y-42253D02*
X53629Y-42253D01*
X56055Y-41053D02*
X56055Y-42253D01*
X56055Y-42253D02*
X55755Y-42253D01*
X55755Y-42253D02*
X55755Y-41053D01*
X55755Y-41053D02*
X56055Y-41053D01*
G54D14*
X47244Y-35235D02*
X47244Y-37047D01*
X47244Y-37047D02*
X51181Y-37047D01*
X51181Y-37047D02*
X51181Y-35235D01*
X51181Y-35235D02*
X47244Y-35235D01*
X47244Y-25708D02*
X47244Y-27520D01*
X47244Y-27520D02*
X51181Y-27520D01*
X51181Y-27520D02*
X51181Y-25708D01*
X51181Y-25708D02*
X47244Y-25708D01*
X44559Y-30708D02*
X46464Y-30708D01*
X46464Y-30708D02*
X46464Y-25708D01*
X46464Y-25708D02*
X44559Y-25708D01*
X44559Y-25708D02*
X44559Y-30708D01*
G54D19*
X59821Y-51554D02*
X59821Y-51704D01*
X59821Y-52854D02*
X59821Y-52704D01*
X63721Y-52854D02*
X63721Y-52704D01*
X63721Y-51554D02*
X63721Y-51704D01*
X64021Y-51204D02*
X64021Y-51704D01*
X64021Y-53204D02*
X64021Y-52704D01*
X59521Y-53204D02*
X59521Y-52704D01*
X59521Y-51204D02*
X59521Y-51704D01*
X59821Y-52854D02*
X60071Y-53104D01*
X60071Y-53104D02*
X63471Y-53104D01*
X63471Y-53104D02*
X63721Y-52854D01*
X63721Y-51554D02*
X63471Y-51304D01*
X63471Y-51304D02*
X60071Y-51304D01*
X60071Y-51304D02*
X59821Y-51554D01*
X64021Y-53204D02*
X59521Y-53204D01*
X59521Y-51204D02*
X64021Y-51204D01*
X59821Y-48641D02*
X59821Y-48791D01*
X59821Y-49941D02*
X59821Y-49791D01*
X63721Y-49941D02*
X63721Y-49791D01*
X63721Y-48641D02*
X63721Y-48791D01*
X64021Y-48291D02*
X64021Y-48791D01*
X64021Y-50291D02*
X64021Y-49791D01*
X59521Y-50291D02*
X59521Y-49791D01*
X59521Y-48291D02*
X59521Y-48791D01*
X59821Y-49941D02*
X60071Y-50191D01*
X60071Y-50191D02*
X63471Y-50191D01*
X63471Y-50191D02*
X63721Y-49941D01*
X63721Y-48641D02*
X63471Y-48391D01*
X63471Y-48391D02*
X60071Y-48391D01*
X60071Y-48391D02*
X59821Y-48641D01*
X64021Y-50291D02*
X59521Y-50291D01*
X59521Y-48291D02*
X64021Y-48291D01*
X50689Y-40963D02*
X50539Y-40963D01*
X49389Y-40963D02*
X49539Y-40963D01*
X49389Y-44863D02*
X49539Y-44863D01*
X50689Y-44863D02*
X50539Y-44863D01*
X51039Y-45163D02*
X50539Y-45163D01*
X49039Y-45163D02*
X49539Y-45163D01*
X49039Y-40663D02*
X49539Y-40663D01*
X51039Y-40663D02*
X50539Y-40663D01*
X49389Y-40963D02*
X49139Y-41213D01*
X49139Y-41213D02*
X49139Y-44613D01*
X49139Y-44613D02*
X49389Y-44863D01*
X50689Y-44863D02*
X50939Y-44613D01*
X50939Y-44613D02*
X50939Y-41213D01*
X50939Y-41213D02*
X50689Y-40963D01*
X49039Y-45163D02*
X49039Y-40663D01*
X51039Y-40663D02*
X51039Y-45163D01*
X46121Y-44863D02*
X46271Y-44863D01*
X47421Y-44863D02*
X47271Y-44863D01*
X47421Y-40963D02*
X47271Y-40963D01*
X46121Y-40963D02*
X46271Y-40963D01*
X45771Y-40663D02*
X46271Y-40663D01*
X47771Y-40663D02*
X47271Y-40663D01*
X47771Y-45163D02*
X47271Y-45163D01*
X45771Y-45163D02*
X46271Y-45163D01*
X47421Y-44863D02*
X47671Y-44613D01*
X47671Y-44613D02*
X47671Y-41213D01*
X47671Y-41213D02*
X47421Y-40963D01*
X46121Y-40963D02*
X45871Y-41213D01*
X45871Y-41213D02*
X45871Y-44613D01*
X45871Y-44613D02*
X46121Y-44863D01*
X47771Y-40663D02*
X47771Y-45163D01*
X45771Y-45163D02*
X45771Y-40663D01*
X57223Y-26790D02*
X57223Y-26940D01*
X57223Y-28090D02*
X57223Y-27940D01*
X61123Y-28090D02*
X61123Y-27940D01*
X61123Y-26790D02*
X61123Y-26940D01*
X61423Y-26440D02*
X61423Y-26940D01*
X61423Y-28440D02*
X61423Y-27940D01*
X56923Y-28440D02*
X56923Y-27940D01*
X56923Y-26440D02*
X56923Y-26940D01*
X57223Y-28090D02*
X57473Y-28340D01*
X57473Y-28340D02*
X60873Y-28340D01*
X60873Y-28340D02*
X61123Y-28090D01*
X61123Y-26790D02*
X60873Y-26540D01*
X60873Y-26540D02*
X57473Y-26540D01*
X57473Y-26540D02*
X57223Y-26790D01*
X61423Y-28440D02*
X56923Y-28440D01*
X56923Y-26440D02*
X61423Y-26440D01*
X43957Y-40963D02*
X43807Y-40963D01*
X42657Y-40963D02*
X42807Y-40963D01*
X42657Y-44863D02*
X42807Y-44863D01*
X43957Y-44863D02*
X43807Y-44863D01*
X44307Y-45163D02*
X43807Y-45163D01*
X42307Y-45163D02*
X42807Y-45163D01*
X42307Y-40663D02*
X42807Y-40663D01*
X44307Y-40663D02*
X43807Y-40663D01*
X42657Y-40963D02*
X42407Y-41213D01*
X42407Y-41213D02*
X42407Y-44613D01*
X42407Y-44613D02*
X42657Y-44863D01*
X43957Y-44863D02*
X44207Y-44613D01*
X44207Y-44613D02*
X44207Y-41213D01*
X44207Y-41213D02*
X43957Y-40963D01*
X42307Y-45163D02*
X42307Y-40663D01*
X44307Y-40663D02*
X44307Y-45163D01*
G54D18*
X44126Y-49518D02*
X44126Y-50718D01*
X44126Y-50718D02*
X43826Y-50718D01*
X43826Y-50718D02*
X43826Y-49518D01*
X43826Y-49518D02*
X44126Y-49518D01*
X47155Y-52054D02*
X48355Y-52054D01*
X48355Y-52054D02*
X48355Y-52354D01*
X48355Y-52354D02*
X47155Y-52354D01*
X47155Y-52354D02*
X47155Y-52054D01*
X49911Y-47330D02*
X51111Y-47330D01*
X51111Y-47330D02*
X51111Y-47630D01*
X51111Y-47630D02*
X49911Y-47630D01*
X49911Y-47630D02*
X49911Y-47330D01*
X65007Y-41702D02*
X65007Y-40502D01*
X65007Y-40502D02*
X65307Y-40502D01*
X65307Y-40502D02*
X65307Y-41702D01*
X65307Y-41702D02*
X65007Y-41702D01*
X48966Y-53629D02*
X50166Y-53629D01*
X50166Y-53629D02*
X50166Y-53929D01*
X50166Y-53929D02*
X48966Y-53929D01*
X48966Y-53929D02*
X48966Y-53629D01*
X53179Y-52487D02*
X54379Y-52487D01*
X54379Y-52487D02*
X54379Y-52787D01*
X54379Y-52787D02*
X53179Y-52787D01*
X53179Y-52787D02*
X53179Y-52487D01*
X62785Y-26503D02*
X63985Y-26503D01*
X63985Y-26503D02*
X63985Y-26803D01*
X63985Y-26803D02*
X62785Y-26803D01*
X62785Y-26803D02*
X62785Y-26503D01*
X52330Y-37804D02*
X52330Y-36604D01*
X52330Y-36604D02*
X52630Y-36604D01*
X52630Y-36604D02*
X52630Y-37804D01*
X52630Y-37804D02*
X52330Y-37804D01*
X61644Y-46464D02*
X62844Y-46464D01*
X62844Y-46464D02*
X62844Y-46764D01*
X62844Y-46764D02*
X61644Y-46764D01*
X61644Y-46764D02*
X61644Y-46464D01*
X58888Y-31306D02*
X60088Y-31306D01*
X60088Y-31306D02*
X60088Y-31606D01*
X60088Y-31606D02*
X58888Y-31606D01*
X58888Y-31606D02*
X58888Y-31306D01*
G54D20*
G36*
X42246Y-52723D02*
X42246Y-52707D01*
X42245Y-52657D01*
X42243Y-52624D01*
X42240Y-52612D01*
X42232Y-52614D01*
X42204Y-52621D01*
X42157Y-52634D01*
X42096Y-52650D01*
X42023Y-52670D01*
X41881Y-52709D01*
X41806Y-52730D01*
X41740Y-52747D01*
X41689Y-52761D01*
X41654Y-52770D01*
X41640Y-52773D01*
X41639Y-52773D01*
X41623Y-52762D01*
X41591Y-52739D01*
X41547Y-52705D01*
X41494Y-52663D01*
X41434Y-52615D01*
X41239Y-52457D01*
X41239Y-52659D01*
X41452Y-52825D01*
X41479Y-52847D01*
X41538Y-52893D01*
X41589Y-52933D01*
X41629Y-52965D01*
X41654Y-52985D01*
X41663Y-52993D01*
X41657Y-52992D01*
X41629Y-52987D01*
X41582Y-52978D01*
X41519Y-52966D01*
X41441Y-52951D01*
X41353Y-52934D01*
X41257Y-52915D01*
X41189Y-52902D01*
X41097Y-52883D01*
X41015Y-52867D01*
X40945Y-52854D01*
X40891Y-52844D01*
X40856Y-52837D01*
X40841Y-52835D01*
X40838Y-52835D01*
X40834Y-52840D01*
X40832Y-52855D01*
X40832Y-52885D01*
X40832Y-52935D01*
X40834Y-53035D01*
X40883Y-53045D01*
X40929Y-53056D01*
X40962Y-53072D01*
X40989Y-53095D01*
X41003Y-53111D01*
X41018Y-53139D01*
X41022Y-53174D01*
X41022Y-53176D01*
X41018Y-53204D01*
X41003Y-53227D01*
X40999Y-53231D01*
X40980Y-53246D01*
X40957Y-53252D01*
X40921Y-53249D01*
X40868Y-53240D01*
X40832Y-53232D01*
X40802Y-53226D01*
X40790Y-53224D01*
X40789Y-53218D01*
X40789Y-53192D01*
X40788Y-53163D01*
X40620Y-53163D01*
X40618Y-53183D01*
X40615Y-53190D01*
X40610Y-53191D01*
X40604Y-53189D01*
X40578Y-53183D01*
X40541Y-53175D01*
X40525Y-53171D01*
X40486Y-53160D01*
X40459Y-53149D01*
X40454Y-53146D01*
X40423Y-53118D01*
X40404Y-53080D01*
X40398Y-53039D01*
X40406Y-53004D01*
X40430Y-52979D01*
X40432Y-52978D01*
X40467Y-52971D01*
X40516Y-52973D01*
X40571Y-52982D01*
X40617Y-52993D01*
X40619Y-53093D01*
X40620Y-53126D01*
X40620Y-53163D01*
X40788Y-53163D01*
X40788Y-53148D01*
X40788Y-53091D01*
X40787Y-53023D01*
X40787Y-52823D01*
X40773Y-52819D01*
X40770Y-52818D01*
X40728Y-52809D01*
X40673Y-52799D01*
X40613Y-52788D01*
X40553Y-52777D01*
X40500Y-52769D01*
X40458Y-52763D01*
X40435Y-52760D01*
X40423Y-52761D01*
X40352Y-52775D01*
X40290Y-52810D01*
X40240Y-52860D01*
X40210Y-52923D01*
X40208Y-52930D01*
X40201Y-52977D01*
X40201Y-53032D01*
X40207Y-53081D01*
X40221Y-53128D01*
X40261Y-53200D01*
X40317Y-53266D01*
X40383Y-53320D01*
X40454Y-53357D01*
X40463Y-53360D01*
X40498Y-53368D01*
X40549Y-53379D01*
X40611Y-53393D01*
X40680Y-53407D01*
X40751Y-53421D01*
X40819Y-53434D01*
X40878Y-53445D01*
X40924Y-53453D01*
X40952Y-53457D01*
X40992Y-53457D01*
X41057Y-53449D01*
X41111Y-53429D01*
X41124Y-53421D01*
X41175Y-53375D01*
X41211Y-53313D01*
X41229Y-53241D01*
X41227Y-53164D01*
X41226Y-53155D01*
X41222Y-53127D01*
X41222Y-53115D01*
X41225Y-53115D01*
X41249Y-53119D01*
X41293Y-53128D01*
X41354Y-53140D01*
X41432Y-53155D01*
X41522Y-53172D01*
X41622Y-53192D01*
X41786Y-53225D01*
X41890Y-53246D01*
X41986Y-53265D01*
X42070Y-53281D01*
X42141Y-53295D01*
X42194Y-53305D01*
X42229Y-53311D01*
X42241Y-53312D01*
X42242Y-53311D01*
X42244Y-53293D01*
X42245Y-53258D01*
X42246Y-53211D01*
X42246Y-53170D01*
X42245Y-53137D01*
X42243Y-53120D01*
X42239Y-53112D01*
X42232Y-53110D01*
X42222Y-53108D01*
X42191Y-53101D01*
X42146Y-53093D01*
X42092Y-53082D01*
X42076Y-53079D01*
X42012Y-53065D01*
X41972Y-53054D01*
X41953Y-53046D01*
X41949Y-53042D01*
X41915Y-53012D01*
X41880Y-52981D01*
X41850Y-52952D01*
X41829Y-52932D01*
X41821Y-52924D01*
X41827Y-52922D01*
X41853Y-52916D01*
X41897Y-52907D01*
X41954Y-52895D01*
X42020Y-52882D01*
X42066Y-52872D01*
X42128Y-52859D01*
X42180Y-52849D01*
X42216Y-52841D01*
X42232Y-52838D01*
X42233Y-52837D01*
X42239Y-52835D01*
X42243Y-52827D01*
X42245Y-52809D01*
X42246Y-52776D01*
X42246Y-52723D01*
X42246Y-52723D01*
G37*
G36*
X42164Y-55176D02*
X42159Y-55167D01*
X42146Y-55146D01*
X42127Y-55117D01*
X42104Y-55082D01*
X42080Y-55048D01*
X42061Y-55019D01*
X42048Y-54999D01*
X42044Y-54991D01*
X42045Y-54986D01*
X42053Y-54970D01*
X42066Y-54946D01*
X42073Y-54932D01*
X42082Y-54910D01*
X42084Y-54899D01*
X42081Y-54897D01*
X42065Y-54889D01*
X42036Y-54877D01*
X41998Y-54860D01*
X41953Y-54841D01*
X41905Y-54821D01*
X41857Y-54800D01*
X41810Y-54781D01*
X41768Y-54764D01*
X41734Y-54750D01*
X41710Y-54741D01*
X41700Y-54738D01*
X41698Y-54739D01*
X41687Y-54750D01*
X41673Y-54769D01*
X41639Y-54810D01*
X41588Y-54851D01*
X41530Y-54876D01*
X41465Y-54885D01*
X41406Y-54878D01*
X41349Y-54854D01*
X41297Y-54814D01*
X41259Y-54765D01*
X41234Y-54709D01*
X41226Y-54645D01*
X41233Y-54584D01*
X41256Y-54526D01*
X41296Y-54474D01*
X41321Y-54452D01*
X41373Y-54422D01*
X41429Y-54405D01*
X41443Y-54403D01*
X41505Y-54406D01*
X41564Y-54424D01*
X41616Y-54456D01*
X41660Y-54501D01*
X41664Y-54507D01*
X41679Y-54528D01*
X41690Y-54542D01*
X41699Y-54553D01*
X41888Y-54475D01*
X41918Y-54462D01*
X41969Y-54441D01*
X42014Y-54422D01*
X42049Y-54406D01*
X42073Y-54396D01*
X42082Y-54391D01*
X42083Y-54391D01*
X42084Y-54384D01*
X42079Y-54370D01*
X42066Y-54343D01*
X42057Y-54326D01*
X42047Y-54306D01*
X42044Y-54297D01*
X42048Y-54289D01*
X42060Y-54270D01*
X42079Y-54242D01*
X42102Y-54208D01*
X42124Y-54176D01*
X42143Y-54147D01*
X42157Y-54125D01*
X42163Y-54115D01*
X42163Y-54113D01*
X42158Y-54104D01*
X42143Y-54087D01*
X42119Y-54061D01*
X42083Y-54025D01*
X42078Y-54019D01*
X42047Y-53989D01*
X42022Y-53965D01*
X42004Y-53949D01*
X41995Y-53943D01*
X41995Y-53943D01*
X41985Y-53948D01*
X41964Y-53962D01*
X41934Y-53981D01*
X41899Y-54005D01*
X41808Y-54068D01*
X41722Y-54033D01*
X41696Y-54023D01*
X41664Y-54009D01*
X41642Y-53999D01*
X41632Y-53994D01*
X41628Y-53985D01*
X41623Y-53962D01*
X41616Y-53928D01*
X41608Y-53887D01*
X41601Y-53848D01*
X41594Y-53814D01*
X41589Y-53788D01*
X41587Y-53777D01*
X41586Y-53774D01*
X41580Y-53772D01*
X41568Y-53771D01*
X41547Y-53770D01*
X41514Y-53769D01*
X41465Y-53769D01*
X41460Y-53769D01*
X41414Y-53770D01*
X41377Y-53770D01*
X41354Y-53772D01*
X41344Y-53773D01*
X41344Y-53773D01*
X41342Y-53784D01*
X41336Y-53809D01*
X41330Y-53844D01*
X41322Y-53885D01*
X41321Y-53888D01*
X41313Y-53929D01*
X41306Y-53964D01*
X41300Y-53988D01*
X41297Y-53999D01*
X41294Y-54001D01*
X41278Y-54009D01*
X41252Y-54021D01*
X41221Y-54035D01*
X41188Y-54048D01*
X41159Y-54060D01*
X41137Y-54068D01*
X41127Y-54070D01*
X41127Y-54070D01*
X41117Y-54064D01*
X41096Y-54050D01*
X41066Y-54030D01*
X41031Y-54005D01*
X41028Y-54004D01*
X40993Y-53980D01*
X40963Y-53960D01*
X40942Y-53948D01*
X40933Y-53943D01*
X40932Y-53943D01*
X40922Y-53951D01*
X40902Y-53969D01*
X40875Y-53994D01*
X40844Y-54025D01*
X40834Y-54035D01*
X40801Y-54069D01*
X40779Y-54092D01*
X40768Y-54107D01*
X40765Y-54114D01*
X40765Y-54114D01*
X40772Y-54125D01*
X40786Y-54147D01*
X40807Y-54177D01*
X40831Y-54213D01*
X40832Y-54215D01*
X40856Y-54250D01*
X40876Y-54279D01*
X40890Y-54300D01*
X40895Y-54309D01*
X40895Y-54311D01*
X40891Y-54325D01*
X40882Y-54350D01*
X40870Y-54380D01*
X40857Y-54413D01*
X40845Y-54442D01*
X40835Y-54464D01*
X40829Y-54475D01*
X40828Y-54475D01*
X40816Y-54479D01*
X40790Y-54485D01*
X40754Y-54492D01*
X40711Y-54500D01*
X40704Y-54502D01*
X40662Y-54510D01*
X40628Y-54516D01*
X40604Y-54521D01*
X40594Y-54524D01*
X40593Y-54530D01*
X40591Y-54550D01*
X40590Y-54581D01*
X40590Y-54619D01*
X40590Y-54658D01*
X40591Y-54697D01*
X40592Y-54730D01*
X40594Y-54753D01*
X40596Y-54763D01*
X40596Y-54764D01*
X40609Y-54767D01*
X40635Y-54773D01*
X40672Y-54780D01*
X40715Y-54789D01*
X40722Y-54790D01*
X40764Y-54798D01*
X40798Y-54805D01*
X40822Y-54810D01*
X40831Y-54813D01*
X40833Y-54816D01*
X40840Y-54834D01*
X40852Y-54862D01*
X40866Y-54896D01*
X40898Y-54976D01*
X40831Y-55075D01*
X40825Y-55084D01*
X40801Y-55119D01*
X40781Y-55148D01*
X40768Y-55168D01*
X40764Y-55177D01*
X40764Y-55177D01*
X40773Y-55187D01*
X40791Y-55207D01*
X40817Y-55233D01*
X40848Y-55264D01*
X40870Y-55287D01*
X40898Y-55314D01*
X40917Y-55332D01*
X40929Y-55341D01*
X40936Y-55344D01*
X40941Y-55343D01*
X40951Y-55337D01*
X40972Y-55323D01*
X41002Y-55302D01*
X41037Y-55278D01*
X41066Y-55259D01*
X41099Y-55237D01*
X41123Y-55223D01*
X41134Y-55219D01*
X41139Y-55220D01*
X41158Y-55227D01*
X41187Y-55238D01*
X41222Y-55253D01*
X41300Y-55287D01*
X41310Y-55338D01*
X41315Y-55369D01*
X41324Y-55413D01*
X41332Y-55454D01*
X41344Y-55519D01*
X41581Y-55521D01*
X41585Y-55511D01*
X41588Y-55501D01*
X41593Y-55477D01*
X41600Y-55443D01*
X41608Y-55403D01*
X41614Y-55369D01*
X41621Y-55334D01*
X41626Y-55309D01*
X41628Y-55298D01*
X41632Y-55295D01*
X41648Y-55287D01*
X41675Y-55274D01*
X41707Y-55261D01*
X41740Y-55247D01*
X41771Y-55235D01*
X41794Y-55226D01*
X41807Y-55223D01*
X41816Y-55228D01*
X41836Y-55241D01*
X41865Y-55260D01*
X41899Y-55283D01*
X41934Y-55307D01*
X41963Y-55327D01*
X41984Y-55340D01*
X41994Y-55346D01*
X42001Y-55343D01*
X42017Y-55330D01*
X42044Y-55304D01*
X42082Y-55265D01*
X42088Y-55259D01*
X42118Y-55228D01*
X42142Y-55202D01*
X42158Y-55184D01*
X42164Y-55176D01*
X42164Y-55176D01*
G37*
G54D17*
X47162Y-25300D02*
X46762Y-25300D01*
X46762Y-25300D02*
X46762Y-24700D01*
X46762Y-24700D02*
X47162Y-24700D01*
X47562Y-24700D02*
X47962Y-24700D01*
X47962Y-24700D02*
X47962Y-25300D01*
X47962Y-25300D02*
X47562Y-25300D01*
G54D12*
X61141Y-24566D02*
X61141Y-25433D01*
G54D10*
X60629Y-25393D02*
X60629Y-25472D01*
X60629Y-25472D02*
X62047Y-25472D01*
X62047Y-25472D02*
X62047Y-25393D01*
X62047Y-24606D02*
X62047Y-24527D01*
X62047Y-24527D02*
X60629Y-24527D01*
X60629Y-24527D02*
X60629Y-24606D01*
G54D15*
X53812Y-28371D02*
X53787Y-28396D01*
X53714Y-28420D01*
X53666Y-28420D01*
X53592Y-28396D01*
X53544Y-28347D01*
X53519Y-28298D01*
X53495Y-28201D01*
X53495Y-28127D01*
X53519Y-28030D01*
X53544Y-27981D01*
X53592Y-27932D01*
X53666Y-27908D01*
X53714Y-27908D01*
X53787Y-27932D01*
X53812Y-27957D01*
X54007Y-27957D02*
X54031Y-27932D01*
X54080Y-27908D01*
X54202Y-27908D01*
X54251Y-27932D01*
X54275Y-27957D01*
X54299Y-28006D01*
X54299Y-28054D01*
X54275Y-28127D01*
X53982Y-28420D01*
X54299Y-28420D01*
X49788Y-28411D02*
X49764Y-28435D01*
X49691Y-28459D01*
X49642Y-28459D01*
X49569Y-28435D01*
X49520Y-28386D01*
X49496Y-28338D01*
X49472Y-28240D01*
X49472Y-28167D01*
X49496Y-28069D01*
X49520Y-28021D01*
X49569Y-27972D01*
X49642Y-27947D01*
X49691Y-27947D01*
X49764Y-27972D01*
X49788Y-27996D01*
X50276Y-28459D02*
X49984Y-28459D01*
X50130Y-28459D02*
X50130Y-27947D01*
X50081Y-28021D01*
X50032Y-28069D01*
X49984Y-28094D01*
X50715Y-28118D02*
X50715Y-28459D01*
X50593Y-27923D02*
X50471Y-28289D01*
X50788Y-28289D01*
X49749Y-31954D02*
X49725Y-31978D01*
X49652Y-32003D01*
X49603Y-32003D01*
X49530Y-31978D01*
X49481Y-31930D01*
X49457Y-31881D01*
X49432Y-31783D01*
X49432Y-31710D01*
X49457Y-31613D01*
X49481Y-31564D01*
X49530Y-31515D01*
X49603Y-31491D01*
X49652Y-31491D01*
X49725Y-31515D01*
X49749Y-31540D01*
X49944Y-31540D02*
X49969Y-31515D01*
X50017Y-31491D01*
X50139Y-31491D01*
X50188Y-31515D01*
X50212Y-31540D01*
X50237Y-31588D01*
X50237Y-31637D01*
X50212Y-31710D01*
X49920Y-32003D01*
X50237Y-32003D01*
X50554Y-31491D02*
X50602Y-31491D01*
X50651Y-31515D01*
X50676Y-31540D01*
X50700Y-31588D01*
X50724Y-31686D01*
X50724Y-31808D01*
X50700Y-31905D01*
X50676Y-31954D01*
X50651Y-31978D01*
X50602Y-32003D01*
X50554Y-32003D01*
X50505Y-31978D01*
X50481Y-31954D01*
X50456Y-31905D01*
X50432Y-31808D01*
X50432Y-31686D01*
X50456Y-31588D01*
X50481Y-31540D01*
X50505Y-31515D01*
X50554Y-31491D01*
G54D10*
X57268Y-51359D02*
X57268Y-50965D01*
X57362Y-50965D01*
X57418Y-50984D01*
X57455Y-51021D01*
X57474Y-51059D01*
X57493Y-51134D01*
X57493Y-51190D01*
X57474Y-51265D01*
X57455Y-51302D01*
X57418Y-51340D01*
X57362Y-51359D01*
X57268Y-51359D01*
X57624Y-50965D02*
X57868Y-50965D01*
X57737Y-51115D01*
X57793Y-51115D01*
X57830Y-51134D01*
X57849Y-51152D01*
X57868Y-51190D01*
X57868Y-51284D01*
X57849Y-51321D01*
X57830Y-51340D01*
X57793Y-51359D01*
X57680Y-51359D01*
X57643Y-51340D01*
X57624Y-51321D01*
X56284Y-42934D02*
X56284Y-42540D01*
X56377Y-42540D01*
X56434Y-42559D01*
X56471Y-42596D01*
X56490Y-42634D01*
X56509Y-42709D01*
X56509Y-42765D01*
X56490Y-42840D01*
X56471Y-42877D01*
X56434Y-42915D01*
X56377Y-42934D01*
X56284Y-42934D01*
X56846Y-42671D02*
X56846Y-42934D01*
X56752Y-42521D02*
X56659Y-42802D01*
X56902Y-42802D01*
X51914Y-25493D02*
X51914Y-25099D01*
X52007Y-25099D01*
X52064Y-25118D01*
X52101Y-25155D01*
X52120Y-25193D01*
X52139Y-25268D01*
X52139Y-25324D01*
X52120Y-25399D01*
X52101Y-25436D01*
X52064Y-25474D01*
X52007Y-25493D01*
X51914Y-25493D01*
X52495Y-25099D02*
X52307Y-25099D01*
X52289Y-25286D01*
X52307Y-25268D01*
X52345Y-25249D01*
X52439Y-25249D01*
X52476Y-25268D01*
X52495Y-25286D01*
X52514Y-25324D01*
X52514Y-25418D01*
X52495Y-25455D01*
X52476Y-25474D01*
X52439Y-25493D01*
X52345Y-25493D01*
X52307Y-25474D01*
X52289Y-25455D01*
X61638Y-41398D02*
X61638Y-41004D01*
X61732Y-41004D01*
X61788Y-41023D01*
X61826Y-41061D01*
X61844Y-41098D01*
X61863Y-41173D01*
X61863Y-41229D01*
X61844Y-41304D01*
X61826Y-41342D01*
X61788Y-41379D01*
X61732Y-41398D01*
X61638Y-41398D01*
X62200Y-41004D02*
X62125Y-41004D01*
X62088Y-41023D01*
X62069Y-41042D01*
X62032Y-41098D01*
X62013Y-41173D01*
X62013Y-41323D01*
X62032Y-41361D01*
X62050Y-41379D01*
X62088Y-41398D01*
X62163Y-41398D01*
X62200Y-41379D01*
X62219Y-41361D01*
X62238Y-41323D01*
X62238Y-41229D01*
X62219Y-41192D01*
X62200Y-41173D01*
X62163Y-41154D01*
X62088Y-41154D01*
X62050Y-41173D01*
X62032Y-41192D01*
X62013Y-41229D01*
G54D11*
X57165Y-21237D02*
X57165Y-21574D01*
X57142Y-21642D01*
X57097Y-21687D01*
X57030Y-21709D01*
X56985Y-21709D01*
X57345Y-21237D02*
X57637Y-21237D01*
X57480Y-21417D01*
X57547Y-21417D01*
X57592Y-21439D01*
X57615Y-21462D01*
X57637Y-21507D01*
X57637Y-21619D01*
X57615Y-21664D01*
X57592Y-21687D01*
X57547Y-21709D01*
X57412Y-21709D01*
X57367Y-21687D01*
X57345Y-21664D01*
X58042Y-20723D02*
X58042Y-20133D01*
X58312Y-20723D02*
X58110Y-20386D01*
X58312Y-20133D02*
X58042Y-20470D01*
X58695Y-20695D02*
X58650Y-20723D01*
X58560Y-20723D01*
X58515Y-20695D01*
X58492Y-20639D01*
X58492Y-20414D01*
X58515Y-20358D01*
X58560Y-20330D01*
X58650Y-20330D01*
X58695Y-20358D01*
X58717Y-20414D01*
X58717Y-20470D01*
X58492Y-20526D01*
X58875Y-20330D02*
X58987Y-20723D01*
X59100Y-20330D02*
X58987Y-20723D01*
X58942Y-20864D01*
X58920Y-20892D01*
X58875Y-20920D01*
X59865Y-20723D02*
X59640Y-20723D01*
X59640Y-20133D01*
X60022Y-20723D02*
X60022Y-20330D01*
X60022Y-20133D02*
X60000Y-20161D01*
X60022Y-20189D01*
X60044Y-20161D01*
X60022Y-20133D01*
X60022Y-20189D01*
X60247Y-20330D02*
X60247Y-20723D01*
X60247Y-20386D02*
X60269Y-20358D01*
X60314Y-20330D01*
X60382Y-20330D01*
X60427Y-20358D01*
X60449Y-20414D01*
X60449Y-20723D01*
X60854Y-20695D02*
X60809Y-20723D01*
X60719Y-20723D01*
X60674Y-20695D01*
X60652Y-20639D01*
X60652Y-20414D01*
X60674Y-20358D01*
X60719Y-20330D01*
X60809Y-20330D01*
X60854Y-20358D01*
X60877Y-20414D01*
X60877Y-20470D01*
X60652Y-20526D01*
X44251Y-57064D02*
X44251Y-57401D01*
X44229Y-57469D01*
X44184Y-57514D01*
X44116Y-57536D01*
X44071Y-57536D01*
X44701Y-57064D02*
X44476Y-57064D01*
X44454Y-57289D01*
X44476Y-57266D01*
X44521Y-57244D01*
X44634Y-57244D01*
X44679Y-57266D01*
X44701Y-57289D01*
X44724Y-57334D01*
X44724Y-57446D01*
X44701Y-57491D01*
X44679Y-57514D01*
X44634Y-57536D01*
X44521Y-57536D01*
X44476Y-57514D01*
X44454Y-57491D01*
X45337Y-58613D02*
X45337Y-58023D01*
X45517Y-58023D01*
X45562Y-58051D01*
X45584Y-58079D01*
X45607Y-58135D01*
X45607Y-58219D01*
X45584Y-58276D01*
X45562Y-58304D01*
X45517Y-58332D01*
X45337Y-58332D01*
X45809Y-58613D02*
X45809Y-58023D01*
X46012Y-58613D02*
X46012Y-58304D01*
X45989Y-58248D01*
X45944Y-58219D01*
X45877Y-58219D01*
X45832Y-58248D01*
X45809Y-58276D01*
X46304Y-58613D02*
X46259Y-58585D01*
X46237Y-58557D01*
X46214Y-58501D01*
X46214Y-58332D01*
X46237Y-58276D01*
X46259Y-58248D01*
X46304Y-58219D01*
X46372Y-58219D01*
X46417Y-58248D01*
X46439Y-58276D01*
X46462Y-58332D01*
X46462Y-58501D01*
X46439Y-58557D01*
X46417Y-58585D01*
X46372Y-58613D01*
X46304Y-58613D01*
X46664Y-58219D02*
X46664Y-58613D01*
X46664Y-58276D02*
X46687Y-58248D01*
X46732Y-58219D01*
X46799Y-58219D01*
X46844Y-58248D01*
X46867Y-58304D01*
X46867Y-58613D01*
X47272Y-58585D02*
X47227Y-58613D01*
X47137Y-58613D01*
X47092Y-58585D01*
X47069Y-58529D01*
X47069Y-58304D01*
X47092Y-58248D01*
X47137Y-58219D01*
X47227Y-58219D01*
X47272Y-58248D01*
X47294Y-58304D01*
X47294Y-58360D01*
X47069Y-58416D01*
X47474Y-58585D02*
X47519Y-58613D01*
X47609Y-58613D01*
X47654Y-58585D01*
X47677Y-58529D01*
X47677Y-58501D01*
X47654Y-58444D01*
X47609Y-58416D01*
X47542Y-58416D01*
X47497Y-58388D01*
X47474Y-58332D01*
X47474Y-58304D01*
X47497Y-58248D01*
X47542Y-58219D01*
X47609Y-58219D01*
X47654Y-58248D01*
G54D21*
X51541Y-40906D02*
X51541Y-40434D01*
X51721Y-40434D01*
X51766Y-40456D01*
X51788Y-40479D01*
X51811Y-40524D01*
X51811Y-40591D01*
X51788Y-40636D01*
X51766Y-40659D01*
X51721Y-40681D01*
X51541Y-40681D01*
X52260Y-40906D02*
X51991Y-40906D01*
X52125Y-40906D02*
X52125Y-40434D01*
X52080Y-40501D01*
X52035Y-40546D01*
X51991Y-40569D01*
G54D22*
X51487Y-45725D02*
X52078Y-45410D01*
X51487Y-45410D02*
X52078Y-45725D01*
X51487Y-45298D02*
X51487Y-45028D01*
X52078Y-45163D02*
X51487Y-45163D01*
X51909Y-44893D02*
X51909Y-44668D01*
X52078Y-44938D02*
X51487Y-44780D01*
X52078Y-44623D01*
X52078Y-44240D02*
X52078Y-44465D01*
X51487Y-44465D01*
X51515Y-43475D02*
X51487Y-43520D01*
X51487Y-43588D01*
X51515Y-43655D01*
X51571Y-43700D01*
X51628Y-43723D01*
X51740Y-43745D01*
X51825Y-43745D01*
X51937Y-43723D01*
X51993Y-43700D01*
X52050Y-43655D01*
X52078Y-43588D01*
X52078Y-43543D01*
X52050Y-43475D01*
X52021Y-43453D01*
X51825Y-43453D01*
X51825Y-43543D01*
X52078Y-43250D02*
X51487Y-43250D01*
X52078Y-42980D01*
X51487Y-42980D01*
X52078Y-42755D02*
X51487Y-42755D01*
X51487Y-42643D01*
X51515Y-42575D01*
X51571Y-42530D01*
X51628Y-42508D01*
X51740Y-42485D01*
X51825Y-42485D01*
X51937Y-42508D01*
X51993Y-42530D01*
X52050Y-42575D01*
X52078Y-42643D01*
X52078Y-42755D01*
G54D21*
X54415Y-31615D02*
X54415Y-31142D01*
X54595Y-31142D01*
X54640Y-31165D01*
X54662Y-31187D01*
X54685Y-31232D01*
X54685Y-31300D01*
X54662Y-31345D01*
X54640Y-31367D01*
X54595Y-31390D01*
X54415Y-31390D01*
X54865Y-31187D02*
X54887Y-31165D01*
X54932Y-31142D01*
X55044Y-31142D01*
X55089Y-31165D01*
X55112Y-31187D01*
X55134Y-31232D01*
X55134Y-31277D01*
X55112Y-31345D01*
X54842Y-31615D01*
X55134Y-31615D01*
G54D22*
X54347Y-33422D02*
X54415Y-33450D01*
X54437Y-33478D01*
X54460Y-33534D01*
X54460Y-33619D01*
X54437Y-33675D01*
X54415Y-33703D01*
X54370Y-33731D01*
X54190Y-33731D01*
X54190Y-33141D01*
X54347Y-33141D01*
X54392Y-33169D01*
X54415Y-33197D01*
X54437Y-33253D01*
X54437Y-33309D01*
X54415Y-33366D01*
X54392Y-33394D01*
X54347Y-33422D01*
X54190Y-33422D01*
X54820Y-33422D02*
X54662Y-33422D01*
X54662Y-33731D02*
X54662Y-33141D01*
X54887Y-33141D01*
X55157Y-33141D02*
X55247Y-33141D01*
X55292Y-33169D01*
X55337Y-33225D01*
X55359Y-33338D01*
X55359Y-33534D01*
X55337Y-33647D01*
X55292Y-33703D01*
X55247Y-33731D01*
X55157Y-33731D01*
X55112Y-33703D01*
X55067Y-33647D01*
X55044Y-33534D01*
X55044Y-33338D01*
X55067Y-33225D01*
X55112Y-33169D01*
X55157Y-33141D01*
G54D21*
X57446Y-44528D02*
X57446Y-44056D01*
X57626Y-44056D01*
X57671Y-44078D01*
X57694Y-44101D01*
X57716Y-44146D01*
X57716Y-44213D01*
X57694Y-44258D01*
X57671Y-44281D01*
X57626Y-44303D01*
X57446Y-44303D01*
X57874Y-44056D02*
X58166Y-44056D01*
X58008Y-44236D01*
X58076Y-44236D01*
X58121Y-44258D01*
X58143Y-44281D01*
X58166Y-44326D01*
X58166Y-44438D01*
X58143Y-44483D01*
X58121Y-44506D01*
X58076Y-44528D01*
X57941Y-44528D01*
X57896Y-44506D01*
X57874Y-44483D01*
G54D22*
X57204Y-46015D02*
X57362Y-46605D01*
X57519Y-46015D01*
X57632Y-46015D02*
X57947Y-46605D01*
X57947Y-46015D02*
X57632Y-46605D01*
X58217Y-46015D02*
X58307Y-46015D01*
X58352Y-46043D01*
X58397Y-46099D01*
X58419Y-46212D01*
X58419Y-46408D01*
X58397Y-46521D01*
X58352Y-46577D01*
X58307Y-46605D01*
X58217Y-46605D01*
X58172Y-46577D01*
X58127Y-46521D01*
X58104Y-46408D01*
X58104Y-46212D01*
X58127Y-46099D01*
X58172Y-46043D01*
X58217Y-46015D01*
G54D21*
X62997Y-40410D02*
X62997Y-39938D01*
X63177Y-39938D01*
X63222Y-39960D01*
X63245Y-39983D01*
X63267Y-40028D01*
X63267Y-40095D01*
X63245Y-40140D01*
X63222Y-40163D01*
X63177Y-40185D01*
X62997Y-40185D01*
X63672Y-40095D02*
X63672Y-40410D01*
X63560Y-39915D02*
X63447Y-40253D01*
X63740Y-40253D01*
G54D22*
X62587Y-42325D02*
X62654Y-42353D01*
X62767Y-42353D01*
X62812Y-42325D01*
X62834Y-42297D01*
X62857Y-42241D01*
X62857Y-42185D01*
X62834Y-42128D01*
X62812Y-42100D01*
X62767Y-42072D01*
X62677Y-42044D01*
X62632Y-42016D01*
X62609Y-41988D01*
X62587Y-41931D01*
X62587Y-41875D01*
X62609Y-41819D01*
X62632Y-41791D01*
X62677Y-41763D01*
X62789Y-41763D01*
X62857Y-41791D01*
X63059Y-42353D02*
X63059Y-41960D01*
X63059Y-41763D02*
X63037Y-41791D01*
X63059Y-41819D01*
X63082Y-41791D01*
X63059Y-41763D01*
X63059Y-41819D01*
X63487Y-42353D02*
X63487Y-41763D01*
X63487Y-42325D02*
X63442Y-42353D01*
X63352Y-42353D01*
X63307Y-42325D01*
X63284Y-42297D01*
X63262Y-42241D01*
X63262Y-42072D01*
X63284Y-42016D01*
X63307Y-41988D01*
X63352Y-41960D01*
X63442Y-41960D01*
X63487Y-41988D01*
X63892Y-42325D02*
X63847Y-42353D01*
X63757Y-42353D01*
X63712Y-42325D01*
X63689Y-42269D01*
X63689Y-42044D01*
X63712Y-41988D01*
X63757Y-41960D01*
X63847Y-41960D01*
X63892Y-41988D01*
X63914Y-42044D01*
X63914Y-42100D01*
X63689Y-42156D01*
X64049Y-41960D02*
X64229Y-41960D01*
X64116Y-41763D02*
X64116Y-42269D01*
X64139Y-42325D01*
X64184Y-42353D01*
X64229Y-42353D01*
X64454Y-42353D02*
X64409Y-42325D01*
X64386Y-42297D01*
X64364Y-42241D01*
X64364Y-42072D01*
X64386Y-42016D01*
X64409Y-41988D01*
X64454Y-41960D01*
X64521Y-41960D01*
X64566Y-41988D01*
X64589Y-42016D01*
X64611Y-42072D01*
X64611Y-42241D01*
X64589Y-42297D01*
X64566Y-42325D01*
X64521Y-42353D01*
X64454Y-42353D01*
X64814Y-41960D02*
X64814Y-42353D01*
X64814Y-42016D02*
X64836Y-41988D01*
X64881Y-41960D01*
X64949Y-41960D01*
X64994Y-41988D01*
X65016Y-42044D01*
X65016Y-42353D01*
X65421Y-42325D02*
X65376Y-42353D01*
X65286Y-42353D01*
X65241Y-42325D01*
X65219Y-42269D01*
X65219Y-42044D01*
X65241Y-41988D01*
X65286Y-41960D01*
X65376Y-41960D01*
X65421Y-41988D01*
X65444Y-42044D01*
X65444Y-42100D01*
X65219Y-42156D01*
G54D21*
X62919Y-53898D02*
X62919Y-53426D01*
X63098Y-53426D01*
X63143Y-53448D01*
X63166Y-53471D01*
X63188Y-53516D01*
X63188Y-53583D01*
X63166Y-53628D01*
X63143Y-53651D01*
X63098Y-53673D01*
X62919Y-53673D01*
X63616Y-53426D02*
X63391Y-53426D01*
X63368Y-53651D01*
X63391Y-53628D01*
X63436Y-53606D01*
X63548Y-53606D01*
X63593Y-53628D01*
X63616Y-53651D01*
X63638Y-53696D01*
X63638Y-53808D01*
X63616Y-53853D01*
X63593Y-53876D01*
X63548Y-53898D01*
X63436Y-53898D01*
X63391Y-53876D01*
X63368Y-53853D01*
G54D22*
X64285Y-54429D02*
X64240Y-54401D01*
X64173Y-54401D01*
X64105Y-54429D01*
X64060Y-54485D01*
X64038Y-54541D01*
X64015Y-54654D01*
X64015Y-54738D01*
X64038Y-54850D01*
X64060Y-54907D01*
X64105Y-54963D01*
X64173Y-54991D01*
X64218Y-54991D01*
X64285Y-54963D01*
X64308Y-54935D01*
X64308Y-54738D01*
X64218Y-54738D01*
X64510Y-54991D02*
X64510Y-54401D01*
X64780Y-54991D01*
X64780Y-54401D01*
X65005Y-54991D02*
X65005Y-54401D01*
X65118Y-54401D01*
X65185Y-54429D01*
X65230Y-54485D01*
X65253Y-54541D01*
X65275Y-54654D01*
X65275Y-54738D01*
X65253Y-54850D01*
X65230Y-54907D01*
X65185Y-54963D01*
X65118Y-54991D01*
X65005Y-54991D01*
G54D11*
X57716Y-57497D02*
X57559Y-57272D01*
X57446Y-57497D02*
X57446Y-57024D01*
X57626Y-57024D01*
X57671Y-57047D01*
X57694Y-57069D01*
X57716Y-57114D01*
X57716Y-57182D01*
X57694Y-57227D01*
X57671Y-57249D01*
X57626Y-57272D01*
X57446Y-57272D01*
X58166Y-57497D02*
X57896Y-57497D01*
X58031Y-57497D02*
X58031Y-57024D01*
X57986Y-57092D01*
X57941Y-57137D01*
X57896Y-57159D01*
X59195Y-58062D02*
X59465Y-58062D01*
X59330Y-58652D02*
X59330Y-58062D01*
X59825Y-58259D02*
X59825Y-58652D01*
X59623Y-58259D02*
X59623Y-58568D01*
X59645Y-58624D01*
X59690Y-58652D01*
X59758Y-58652D01*
X59803Y-58624D01*
X59825Y-58596D01*
X60050Y-58259D02*
X60050Y-58652D01*
X60050Y-58315D02*
X60073Y-58287D01*
X60118Y-58259D01*
X60185Y-58259D01*
X60230Y-58287D01*
X60253Y-58343D01*
X60253Y-58652D01*
X60658Y-58624D02*
X60613Y-58652D01*
X60523Y-58652D01*
X60478Y-58624D01*
X60455Y-58568D01*
X60455Y-58343D01*
X60478Y-58287D01*
X60523Y-58259D01*
X60613Y-58259D01*
X60658Y-58287D01*
X60680Y-58343D01*
X60680Y-58399D01*
X60455Y-58456D01*
X50956Y-57536D02*
X50798Y-57311D01*
X50686Y-57536D02*
X50686Y-57064D01*
X50866Y-57064D01*
X50911Y-57086D01*
X50933Y-57109D01*
X50956Y-57154D01*
X50956Y-57221D01*
X50933Y-57266D01*
X50911Y-57289D01*
X50866Y-57311D01*
X50686Y-57311D01*
X51136Y-57109D02*
X51158Y-57086D01*
X51203Y-57064D01*
X51316Y-57064D01*
X51361Y-57086D01*
X51383Y-57109D01*
X51406Y-57154D01*
X51406Y-57199D01*
X51383Y-57266D01*
X51113Y-57536D01*
X51406Y-57536D01*
X51631Y-57536D02*
X51721Y-57536D01*
X51766Y-57514D01*
X51788Y-57491D01*
X51833Y-57424D01*
X51856Y-57334D01*
X51856Y-57154D01*
X51833Y-57109D01*
X51811Y-57086D01*
X51766Y-57064D01*
X51676Y-57064D01*
X51631Y-57086D01*
X51608Y-57109D01*
X51586Y-57154D01*
X51586Y-57266D01*
X51608Y-57311D01*
X51631Y-57334D01*
X51676Y-57356D01*
X51766Y-57356D01*
X51811Y-57334D01*
X51833Y-57311D01*
X51856Y-57266D01*
X52350Y-58444D02*
X52575Y-58444D01*
X52305Y-58613D02*
X52463Y-58023D01*
X52620Y-58613D01*
X52935Y-58304D02*
X52778Y-58304D01*
X52778Y-58613D02*
X52778Y-58023D01*
X53003Y-58023D01*
X53790Y-58051D02*
X53745Y-58023D01*
X53678Y-58023D01*
X53610Y-58051D01*
X53565Y-58107D01*
X53543Y-58163D01*
X53520Y-58276D01*
X53520Y-58360D01*
X53543Y-58473D01*
X53565Y-58529D01*
X53610Y-58585D01*
X53678Y-58613D01*
X53723Y-58613D01*
X53790Y-58585D01*
X53813Y-58557D01*
X53813Y-58360D01*
X53723Y-58360D01*
X54218Y-58613D02*
X54218Y-58304D01*
X54195Y-58248D01*
X54150Y-58219D01*
X54060Y-58219D01*
X54015Y-58248D01*
X54218Y-58585D02*
X54173Y-58613D01*
X54060Y-58613D01*
X54015Y-58585D01*
X53993Y-58529D01*
X53993Y-58473D01*
X54015Y-58416D01*
X54060Y-58388D01*
X54173Y-58388D01*
X54218Y-58360D01*
X54443Y-58613D02*
X54443Y-58219D01*
X54443Y-58023D02*
X54420Y-58051D01*
X54443Y-58079D01*
X54465Y-58051D01*
X54443Y-58023D01*
X54443Y-58079D01*
X54668Y-58219D02*
X54668Y-58613D01*
X54668Y-58276D02*
X54690Y-58248D01*
X54735Y-58219D01*
X54803Y-58219D01*
X54848Y-58248D01*
X54870Y-58304D01*
X54870Y-58613D01*
G54D10*
X58841Y-39233D02*
X58710Y-39045D01*
X58616Y-39233D02*
X58616Y-38839D01*
X58766Y-38839D01*
X58803Y-38858D01*
X58822Y-38877D01*
X58841Y-38914D01*
X58841Y-38970D01*
X58822Y-39008D01*
X58803Y-39026D01*
X58766Y-39045D01*
X58616Y-39045D01*
X58972Y-38839D02*
X59216Y-38839D01*
X59085Y-38989D01*
X59141Y-38989D01*
X59178Y-39008D01*
X59197Y-39026D01*
X59216Y-39064D01*
X59216Y-39158D01*
X59197Y-39195D01*
X59178Y-39214D01*
X59141Y-39233D01*
X59028Y-39233D01*
X58991Y-39214D01*
X58972Y-39195D01*
X59553Y-38839D02*
X59478Y-38839D01*
X59441Y-38858D01*
X59422Y-38877D01*
X59385Y-38933D01*
X59366Y-39008D01*
X59366Y-39158D01*
X59385Y-39195D01*
X59403Y-39214D01*
X59441Y-39233D01*
X59516Y-39233D01*
X59553Y-39214D01*
X59572Y-39195D01*
X59591Y-39158D01*
X59591Y-39064D01*
X59572Y-39026D01*
X59553Y-39008D01*
X59516Y-38989D01*
X59441Y-38989D01*
X59403Y-39008D01*
X59385Y-39026D01*
X59366Y-39064D01*
X61183Y-41625D02*
X61212Y-41557D01*
X61212Y-41445D01*
X61183Y-41400D01*
X61155Y-41377D01*
X61099Y-41355D01*
X61043Y-41355D01*
X60987Y-41377D01*
X60958Y-41400D01*
X60930Y-41445D01*
X60902Y-41535D01*
X60874Y-41580D01*
X60846Y-41602D01*
X60790Y-41625D01*
X60733Y-41625D01*
X60677Y-41602D01*
X60649Y-41580D01*
X60621Y-41535D01*
X60621Y-41422D01*
X60649Y-41355D01*
X61212Y-41152D02*
X60818Y-41152D01*
X60621Y-41152D02*
X60649Y-41175D01*
X60677Y-41152D01*
X60649Y-41130D01*
X60621Y-41152D01*
X60677Y-41152D01*
X61212Y-40725D02*
X60621Y-40725D01*
X61183Y-40725D02*
X61212Y-40770D01*
X61212Y-40860D01*
X61183Y-40905D01*
X61155Y-40928D01*
X61099Y-40950D01*
X60930Y-40950D01*
X60874Y-40928D01*
X60846Y-40905D01*
X60818Y-40860D01*
X60818Y-40770D01*
X60846Y-40725D01*
X61183Y-40320D02*
X61212Y-40365D01*
X61212Y-40455D01*
X61183Y-40500D01*
X61127Y-40523D01*
X60902Y-40523D01*
X60846Y-40500D01*
X60818Y-40455D01*
X60818Y-40365D01*
X60846Y-40320D01*
X60902Y-40298D01*
X60958Y-40298D01*
X61015Y-40523D01*
X60818Y-40163D02*
X60818Y-39983D01*
X60621Y-40095D02*
X61127Y-40095D01*
X61183Y-40073D01*
X61212Y-40028D01*
X61212Y-39983D01*
X61212Y-39758D02*
X61183Y-39803D01*
X61155Y-39825D01*
X61099Y-39848D01*
X60930Y-39848D01*
X60874Y-39825D01*
X60846Y-39803D01*
X60818Y-39758D01*
X60818Y-39690D01*
X60846Y-39645D01*
X60874Y-39623D01*
X60930Y-39600D01*
X61099Y-39600D01*
X61155Y-39623D01*
X61183Y-39645D01*
X61212Y-39690D01*
X61212Y-39758D01*
X60818Y-39398D02*
X61212Y-39398D01*
X60874Y-39398D02*
X60846Y-39375D01*
X60818Y-39330D01*
X60818Y-39263D01*
X60846Y-39218D01*
X60902Y-39195D01*
X61212Y-39195D01*
X61183Y-38790D02*
X61212Y-38835D01*
X61212Y-38925D01*
X61183Y-38970D01*
X61127Y-38993D01*
X60902Y-38993D01*
X60846Y-38970D01*
X60818Y-38925D01*
X60818Y-38835D01*
X60846Y-38790D01*
X60902Y-38768D01*
X60958Y-38768D01*
X61015Y-38993D01*
X55251Y-35689D02*
X55476Y-35689D01*
X55363Y-36083D02*
X55363Y-35689D01*
X55813Y-36083D02*
X55588Y-36083D01*
X55701Y-36083D02*
X55701Y-35689D01*
X55663Y-35746D01*
X55626Y-35783D01*
X55588Y-35802D01*
G54D11*
X63543Y-27678D02*
X63543Y-28015D01*
X63520Y-28083D01*
X63475Y-28128D01*
X63408Y-28150D01*
X63363Y-28150D01*
X63768Y-28150D02*
X63768Y-27678D01*
X63948Y-27678D01*
X63993Y-27700D01*
X64015Y-27723D01*
X64038Y-27768D01*
X64038Y-27835D01*
X64015Y-27880D01*
X63993Y-27903D01*
X63948Y-27925D01*
X63768Y-27925D01*
X64218Y-27723D02*
X64240Y-27700D01*
X64285Y-27678D01*
X64398Y-27678D01*
X64443Y-27700D01*
X64465Y-27723D01*
X64488Y-27768D01*
X64488Y-27813D01*
X64465Y-27880D01*
X64195Y-28150D01*
X64488Y-28150D01*
X62587Y-30199D02*
X62654Y-30227D01*
X62767Y-30227D01*
X62812Y-30199D01*
X62834Y-30171D01*
X62857Y-30115D01*
X62857Y-30059D01*
X62834Y-30002D01*
X62812Y-29974D01*
X62767Y-29946D01*
X62677Y-29918D01*
X62632Y-29890D01*
X62609Y-29862D01*
X62587Y-29805D01*
X62587Y-29749D01*
X62609Y-29693D01*
X62632Y-29665D01*
X62677Y-29637D01*
X62789Y-29637D01*
X62857Y-29665D01*
X63059Y-30227D02*
X63059Y-29834D01*
X63059Y-29637D02*
X63037Y-29665D01*
X63059Y-29693D01*
X63082Y-29665D01*
X63059Y-29637D01*
X63059Y-29693D01*
X63487Y-30227D02*
X63487Y-29637D01*
X63487Y-30199D02*
X63442Y-30227D01*
X63352Y-30227D01*
X63307Y-30199D01*
X63284Y-30171D01*
X63262Y-30115D01*
X63262Y-29946D01*
X63284Y-29890D01*
X63307Y-29862D01*
X63352Y-29834D01*
X63442Y-29834D01*
X63487Y-29862D01*
X63892Y-30199D02*
X63847Y-30227D01*
X63757Y-30227D01*
X63712Y-30199D01*
X63689Y-30143D01*
X63689Y-29918D01*
X63712Y-29862D01*
X63757Y-29834D01*
X63847Y-29834D01*
X63892Y-29862D01*
X63914Y-29918D01*
X63914Y-29974D01*
X63689Y-30030D01*
X64049Y-29834D02*
X64229Y-29834D01*
X64116Y-29637D02*
X64116Y-30143D01*
X64139Y-30199D01*
X64184Y-30227D01*
X64229Y-30227D01*
X64454Y-30227D02*
X64409Y-30199D01*
X64386Y-30171D01*
X64364Y-30115D01*
X64364Y-29946D01*
X64386Y-29890D01*
X64409Y-29862D01*
X64454Y-29834D01*
X64521Y-29834D01*
X64566Y-29862D01*
X64589Y-29890D01*
X64611Y-29946D01*
X64611Y-30115D01*
X64589Y-30171D01*
X64566Y-30199D01*
X64521Y-30227D01*
X64454Y-30227D01*
X64814Y-29834D02*
X64814Y-30227D01*
X64814Y-29890D02*
X64836Y-29862D01*
X64881Y-29834D01*
X64949Y-29834D01*
X64994Y-29862D01*
X65016Y-29918D01*
X65016Y-30227D01*
X65421Y-30199D02*
X65376Y-30227D01*
X65286Y-30227D01*
X65241Y-30199D01*
X65219Y-30143D01*
X65219Y-29918D01*
X65241Y-29862D01*
X65286Y-29834D01*
X65376Y-29834D01*
X65421Y-29862D01*
X65444Y-29918D01*
X65444Y-29974D01*
X65219Y-30030D01*
X57379Y-50354D02*
X57716Y-50354D01*
X57784Y-50376D01*
X57829Y-50421D01*
X57851Y-50489D01*
X57851Y-50534D01*
X57851Y-50129D02*
X57379Y-50129D01*
X57379Y-49949D01*
X57401Y-49904D01*
X57424Y-49881D01*
X57469Y-49859D01*
X57536Y-49859D01*
X57581Y-49881D01*
X57604Y-49904D01*
X57626Y-49949D01*
X57626Y-50129D01*
X57851Y-49409D02*
X57851Y-49679D01*
X57851Y-49544D02*
X57379Y-49544D01*
X57446Y-49589D01*
X57491Y-49634D01*
X57514Y-49679D01*
X56290Y-50163D02*
X56881Y-50005D01*
X56290Y-49848D01*
X56290Y-49735D02*
X56881Y-49420D01*
X56290Y-49420D02*
X56881Y-49735D01*
X56290Y-49150D02*
X56290Y-49060D01*
X56318Y-49015D01*
X56375Y-48970D01*
X56487Y-48948D01*
X56684Y-48948D01*
X56796Y-48970D01*
X56853Y-49015D01*
X56881Y-49060D01*
X56881Y-49150D01*
X56853Y-49195D01*
X56796Y-49240D01*
X56684Y-49263D01*
X56487Y-49263D01*
X56375Y-49240D01*
X56318Y-49195D01*
X56290Y-49150D01*
X56881Y-48385D02*
X56290Y-48385D01*
X56290Y-48205D01*
X56318Y-48160D01*
X56347Y-48138D01*
X56403Y-48115D01*
X56487Y-48115D01*
X56543Y-48138D01*
X56571Y-48160D01*
X56600Y-48205D01*
X56600Y-48385D01*
X56881Y-47845D02*
X56853Y-47890D01*
X56825Y-47913D01*
X56768Y-47935D01*
X56600Y-47935D01*
X56543Y-47913D01*
X56515Y-47890D01*
X56487Y-47845D01*
X56487Y-47778D01*
X56515Y-47733D01*
X56543Y-47710D01*
X56600Y-47688D01*
X56768Y-47688D01*
X56825Y-47710D01*
X56853Y-47733D01*
X56881Y-47778D01*
X56881Y-47845D01*
X56487Y-47530D02*
X56881Y-47440D01*
X56600Y-47350D01*
X56881Y-47260D01*
X56487Y-47170D01*
X56853Y-46811D02*
X56881Y-46856D01*
X56881Y-46946D01*
X56853Y-46991D01*
X56796Y-47013D01*
X56571Y-47013D01*
X56515Y-46991D01*
X56487Y-46946D01*
X56487Y-46856D01*
X56515Y-46811D01*
X56571Y-46788D01*
X56628Y-46788D01*
X56684Y-47013D01*
X56881Y-46586D02*
X56487Y-46586D01*
X56600Y-46586D02*
X56543Y-46563D01*
X56515Y-46541D01*
X56487Y-46496D01*
X56487Y-46451D01*
X51299Y-21197D02*
X51299Y-21535D01*
X51276Y-21602D01*
X51231Y-21647D01*
X51164Y-21670D01*
X51119Y-21670D01*
X51726Y-21355D02*
X51726Y-21670D01*
X51614Y-21175D02*
X51501Y-21512D01*
X51794Y-21512D01*
X51586Y-20498D02*
X51946Y-20498D01*
X51766Y-20723D02*
X51766Y-20273D01*
X52418Y-20723D02*
X52148Y-20723D01*
X52283Y-20723D02*
X52283Y-20133D01*
X52238Y-20217D01*
X52193Y-20273D01*
X52148Y-20302D01*
X52598Y-20189D02*
X52620Y-20161D01*
X52665Y-20133D01*
X52778Y-20133D01*
X52823Y-20161D01*
X52845Y-20189D01*
X52868Y-20245D01*
X52868Y-20302D01*
X52845Y-20386D01*
X52575Y-20723D01*
X52868Y-20723D01*
X53363Y-20133D02*
X53520Y-20723D01*
X53678Y-20133D01*
X53835Y-20723D02*
X53835Y-20133D01*
X53948Y-20133D01*
X54015Y-20161D01*
X54060Y-20217D01*
X54083Y-20273D01*
X54105Y-20386D01*
X54105Y-20470D01*
X54083Y-20583D01*
X54060Y-20639D01*
X54015Y-20695D01*
X53948Y-20723D01*
X53835Y-20723D01*
X54578Y-20667D02*
X54555Y-20695D01*
X54488Y-20723D01*
X54443Y-20723D01*
X54375Y-20695D01*
X54330Y-20639D01*
X54308Y-20583D01*
X54285Y-20470D01*
X54285Y-20386D01*
X54308Y-20273D01*
X54330Y-20217D01*
X54375Y-20161D01*
X54443Y-20133D01*
X54488Y-20133D01*
X54555Y-20161D01*
X54578Y-20189D01*
X41709Y-34724D02*
X42047Y-34724D01*
X42114Y-34746D01*
X42159Y-34791D01*
X42182Y-34859D01*
X42182Y-34904D01*
X41754Y-34521D02*
X41732Y-34499D01*
X41709Y-34454D01*
X41709Y-34341D01*
X41732Y-34296D01*
X41754Y-34274D01*
X41799Y-34251D01*
X41844Y-34251D01*
X41912Y-34274D01*
X42182Y-34544D01*
X42182Y-34251D01*
X40784Y-34409D02*
X40784Y-34251D01*
X41093Y-34184D02*
X41093Y-34409D01*
X40503Y-34409D01*
X40503Y-34184D01*
X40503Y-34026D02*
X41093Y-33712D01*
X40503Y-33712D02*
X41093Y-34026D01*
X40503Y-33599D02*
X40503Y-33329D01*
X41093Y-33464D02*
X40503Y-33464D01*
X40503Y-32879D02*
X41093Y-32722D01*
X40503Y-32564D01*
X40784Y-32249D02*
X40784Y-32407D01*
X41093Y-32407D02*
X40503Y-32407D01*
X40503Y-32182D01*
X40503Y-31912D02*
X40503Y-31822D01*
X40531Y-31777D01*
X40587Y-31732D01*
X40700Y-31709D01*
X40897Y-31709D01*
X41009Y-31732D01*
X41065Y-31777D01*
X41093Y-31822D01*
X41093Y-31912D01*
X41065Y-31957D01*
X41009Y-32002D01*
X40897Y-32024D01*
X40700Y-32024D01*
X40587Y-32002D01*
X40531Y-31957D01*
X40503Y-31912D01*
X44173Y-21197D02*
X44173Y-21535D01*
X44150Y-21602D01*
X44105Y-21647D01*
X44038Y-21670D01*
X43993Y-21670D01*
X44645Y-21670D02*
X44375Y-21670D01*
X44510Y-21670D02*
X44510Y-21197D01*
X44465Y-21265D01*
X44420Y-21310D01*
X44375Y-21332D01*
X45326Y-20531D02*
X45551Y-20531D01*
X45281Y-20700D02*
X45438Y-20109D01*
X45596Y-20700D01*
X45753Y-20700D02*
X45753Y-20109D01*
X46023Y-20700D01*
X46023Y-20109D01*
X46181Y-20109D02*
X46451Y-20109D01*
X46316Y-20700D02*
X46316Y-20109D01*
G54D10*
X43644Y-51479D02*
X43625Y-51497D01*
X43569Y-51516D01*
X43532Y-51516D01*
X43475Y-51497D01*
X43438Y-51460D01*
X43419Y-51422D01*
X43400Y-51347D01*
X43400Y-51291D01*
X43419Y-51216D01*
X43438Y-51179D01*
X43475Y-51141D01*
X43532Y-51122D01*
X43569Y-51122D01*
X43625Y-51141D01*
X43644Y-51160D01*
X43982Y-51254D02*
X43982Y-51516D01*
X43888Y-51104D02*
X43794Y-51385D01*
X44038Y-51385D01*
X44150Y-51122D02*
X44394Y-51122D01*
X44263Y-51272D01*
X44319Y-51272D01*
X44356Y-51291D01*
X44375Y-51310D01*
X44394Y-51347D01*
X44394Y-51441D01*
X44375Y-51479D01*
X44356Y-51497D01*
X44319Y-51516D01*
X44206Y-51516D01*
X44169Y-51497D01*
X44150Y-51479D01*
X55298Y-47109D02*
X55279Y-47127D01*
X55223Y-47146D01*
X55185Y-47146D01*
X55129Y-47127D01*
X55091Y-47090D01*
X55073Y-47052D01*
X55054Y-46977D01*
X55054Y-46921D01*
X55073Y-46846D01*
X55091Y-46809D01*
X55129Y-46771D01*
X55185Y-46752D01*
X55223Y-46752D01*
X55279Y-46771D01*
X55298Y-46790D01*
X55635Y-46884D02*
X55635Y-47146D01*
X55541Y-46734D02*
X55448Y-47015D01*
X55691Y-47015D01*
X55823Y-46790D02*
X55841Y-46771D01*
X55879Y-46752D01*
X55973Y-46752D01*
X56010Y-46771D01*
X56029Y-46790D01*
X56047Y-46827D01*
X56047Y-46865D01*
X56029Y-46921D01*
X55804Y-47146D01*
X56047Y-47146D01*
X51321Y-53053D02*
X51302Y-53072D01*
X51246Y-53091D01*
X51209Y-53091D01*
X51152Y-53072D01*
X51115Y-53035D01*
X51096Y-52997D01*
X51077Y-52922D01*
X51077Y-52866D01*
X51096Y-52791D01*
X51115Y-52754D01*
X51152Y-52716D01*
X51209Y-52697D01*
X51246Y-52697D01*
X51302Y-52716D01*
X51321Y-52735D01*
X51452Y-52697D02*
X51696Y-52697D01*
X51565Y-52847D01*
X51621Y-52847D01*
X51659Y-52866D01*
X51677Y-52885D01*
X51696Y-52922D01*
X51696Y-53016D01*
X51677Y-53053D01*
X51659Y-53072D01*
X51621Y-53091D01*
X51509Y-53091D01*
X51471Y-53072D01*
X51452Y-53053D01*
X52034Y-52829D02*
X52034Y-53091D01*
X51940Y-52679D02*
X51846Y-52960D01*
X52090Y-52960D01*
X58290Y-35731D02*
X58271Y-35749D01*
X58215Y-35768D01*
X58177Y-35768D01*
X58121Y-35749D01*
X58083Y-35712D01*
X58065Y-35674D01*
X58046Y-35599D01*
X58046Y-35543D01*
X58065Y-35468D01*
X58083Y-35431D01*
X58121Y-35393D01*
X58177Y-35374D01*
X58215Y-35374D01*
X58271Y-35393D01*
X58290Y-35412D01*
X58440Y-35412D02*
X58458Y-35393D01*
X58496Y-35374D01*
X58590Y-35374D01*
X58627Y-35393D01*
X58646Y-35412D01*
X58665Y-35449D01*
X58665Y-35487D01*
X58646Y-35543D01*
X58421Y-35768D01*
X58665Y-35768D01*
X59021Y-35374D02*
X58833Y-35374D01*
X58815Y-35562D01*
X58833Y-35543D01*
X58871Y-35524D01*
X58965Y-35524D01*
X59002Y-35543D01*
X59021Y-35562D01*
X59040Y-35599D01*
X59040Y-35693D01*
X59021Y-35731D01*
X59002Y-35749D01*
X58965Y-35768D01*
X58871Y-35768D01*
X58833Y-35749D01*
X58815Y-35731D01*
X60416Y-35770D02*
X60397Y-35789D01*
X60341Y-35808D01*
X60303Y-35808D01*
X60247Y-35789D01*
X60209Y-35751D01*
X60191Y-35714D01*
X60172Y-35639D01*
X60172Y-35583D01*
X60191Y-35508D01*
X60209Y-35470D01*
X60247Y-35433D01*
X60303Y-35414D01*
X60341Y-35414D01*
X60397Y-35433D01*
X60416Y-35451D01*
X60566Y-35451D02*
X60584Y-35433D01*
X60622Y-35414D01*
X60716Y-35414D01*
X60753Y-35433D01*
X60772Y-35451D01*
X60791Y-35489D01*
X60791Y-35526D01*
X60772Y-35583D01*
X60547Y-35808D01*
X60791Y-35808D01*
X60922Y-35414D02*
X61166Y-35414D01*
X61034Y-35564D01*
X61091Y-35564D01*
X61128Y-35583D01*
X61147Y-35601D01*
X61166Y-35639D01*
X61166Y-35733D01*
X61147Y-35770D01*
X61128Y-35789D01*
X61091Y-35808D01*
X60978Y-35808D01*
X60941Y-35789D01*
X60922Y-35770D01*
X45356Y-33207D02*
X45318Y-33188D01*
X45281Y-33151D01*
X45224Y-33095D01*
X45187Y-33076D01*
X45149Y-33076D01*
X45168Y-33170D02*
X45131Y-33151D01*
X45093Y-33113D01*
X45074Y-33038D01*
X45074Y-32907D01*
X45093Y-32832D01*
X45131Y-32795D01*
X45168Y-32776D01*
X45243Y-32776D01*
X45281Y-32795D01*
X45318Y-32832D01*
X45337Y-32907D01*
X45337Y-33038D01*
X45318Y-33113D01*
X45281Y-33151D01*
X45243Y-33170D01*
X45168Y-33170D01*
X45693Y-32776D02*
X45506Y-32776D01*
X45487Y-32964D01*
X45506Y-32945D01*
X45543Y-32926D01*
X45637Y-32926D01*
X45674Y-32945D01*
X45693Y-32964D01*
X45712Y-33001D01*
X45712Y-33095D01*
X45693Y-33132D01*
X45674Y-33151D01*
X45637Y-33170D01*
X45543Y-33170D01*
X45506Y-33151D01*
X45487Y-33132D01*
X60238Y-32971D02*
X60200Y-32952D01*
X60163Y-32915D01*
X60106Y-32859D01*
X60069Y-32840D01*
X60031Y-32840D01*
X60050Y-32934D02*
X60013Y-32915D01*
X59975Y-32877D01*
X59956Y-32802D01*
X59956Y-32671D01*
X59975Y-32596D01*
X60013Y-32559D01*
X60050Y-32540D01*
X60125Y-32540D01*
X60163Y-32559D01*
X60200Y-32596D01*
X60219Y-32671D01*
X60219Y-32802D01*
X60200Y-32877D01*
X60163Y-32915D01*
X60125Y-32934D01*
X60050Y-32934D01*
X60556Y-32671D02*
X60556Y-32934D01*
X60463Y-32521D02*
X60369Y-32802D01*
X60613Y-32802D01*
X45811Y-47776D02*
X45811Y-47382D01*
X45905Y-47382D01*
X45961Y-47401D01*
X45999Y-47439D01*
X46017Y-47476D01*
X46036Y-47551D01*
X46036Y-47607D01*
X46017Y-47682D01*
X45999Y-47720D01*
X45961Y-47757D01*
X45905Y-47776D01*
X45811Y-47776D01*
X46261Y-47551D02*
X46224Y-47532D01*
X46205Y-47514D01*
X46186Y-47476D01*
X46186Y-47457D01*
X46205Y-47420D01*
X46224Y-47401D01*
X46261Y-47382D01*
X46336Y-47382D01*
X46374Y-47401D01*
X46392Y-47420D01*
X46411Y-47457D01*
X46411Y-47476D01*
X46392Y-47514D01*
X46374Y-47532D01*
X46336Y-47551D01*
X46261Y-47551D01*
X46224Y-47570D01*
X46205Y-47589D01*
X46186Y-47626D01*
X46186Y-47701D01*
X46205Y-47739D01*
X46224Y-47757D01*
X46261Y-47776D01*
X46336Y-47776D01*
X46374Y-47757D01*
X46392Y-47739D01*
X46411Y-47701D01*
X46411Y-47626D01*
X46392Y-47589D01*
X46374Y-47570D01*
X46336Y-47551D01*
X48213Y-47776D02*
X48213Y-47382D01*
X48307Y-47382D01*
X48363Y-47401D01*
X48400Y-47439D01*
X48419Y-47476D01*
X48438Y-47551D01*
X48438Y-47607D01*
X48419Y-47682D01*
X48400Y-47720D01*
X48363Y-47757D01*
X48307Y-47776D01*
X48213Y-47776D01*
X48569Y-47382D02*
X48832Y-47382D01*
X48663Y-47776D01*
G54D23*
X45052Y-38998D02*
X45033Y-39017D01*
X44977Y-39036D01*
X44940Y-39036D01*
X44883Y-39017D01*
X44846Y-38980D01*
X44827Y-38942D01*
X44808Y-38867D01*
X44808Y-38811D01*
X44827Y-38736D01*
X44846Y-38698D01*
X44883Y-38661D01*
X44940Y-38642D01*
X44977Y-38642D01*
X45033Y-38661D01*
X45052Y-38680D01*
X45427Y-39036D02*
X45202Y-39036D01*
X45314Y-39036D02*
X45314Y-38642D01*
X45277Y-38698D01*
X45239Y-38736D01*
X45202Y-38755D01*
X43005Y-25455D02*
X42986Y-25474D01*
X42930Y-25493D01*
X42892Y-25493D01*
X42836Y-25474D01*
X42799Y-25436D01*
X42780Y-25399D01*
X42761Y-25324D01*
X42761Y-25268D01*
X42780Y-25193D01*
X42799Y-25155D01*
X42836Y-25118D01*
X42892Y-25099D01*
X42930Y-25099D01*
X42986Y-25118D01*
X43005Y-25136D01*
X43136Y-25099D02*
X43380Y-25099D01*
X43248Y-25249D01*
X43305Y-25249D01*
X43342Y-25268D01*
X43361Y-25286D01*
X43380Y-25324D01*
X43380Y-25418D01*
X43361Y-25455D01*
X43342Y-25474D01*
X43305Y-25493D01*
X43192Y-25493D01*
X43155Y-25474D01*
X43136Y-25455D01*
X45013Y-46085D02*
X44994Y-46104D01*
X44938Y-46122D01*
X44900Y-46122D01*
X44844Y-46104D01*
X44806Y-46066D01*
X44788Y-46029D01*
X44769Y-45954D01*
X44769Y-45898D01*
X44788Y-45823D01*
X44806Y-45785D01*
X44844Y-45748D01*
X44900Y-45729D01*
X44938Y-45729D01*
X44994Y-45748D01*
X45013Y-45766D01*
X45350Y-45860D02*
X45350Y-46122D01*
X45256Y-45710D02*
X45163Y-45991D01*
X45406Y-45991D01*
X59265Y-55416D02*
X59246Y-55434D01*
X59190Y-55453D01*
X59152Y-55453D01*
X59096Y-55434D01*
X59058Y-55397D01*
X59040Y-55359D01*
X59021Y-55284D01*
X59021Y-55228D01*
X59040Y-55153D01*
X59058Y-55116D01*
X59096Y-55078D01*
X59152Y-55059D01*
X59190Y-55059D01*
X59246Y-55078D01*
X59265Y-55097D01*
X59621Y-55059D02*
X59433Y-55059D01*
X59415Y-55247D01*
X59433Y-55228D01*
X59471Y-55209D01*
X59565Y-55209D01*
X59602Y-55228D01*
X59621Y-55247D01*
X59640Y-55284D01*
X59640Y-55378D01*
X59621Y-55416D01*
X59602Y-55434D01*
X59565Y-55453D01*
X59471Y-55453D01*
X59433Y-55434D01*
X59415Y-55416D01*
X48438Y-38998D02*
X48419Y-39017D01*
X48363Y-39036D01*
X48325Y-39036D01*
X48269Y-39017D01*
X48232Y-38980D01*
X48213Y-38942D01*
X48194Y-38867D01*
X48194Y-38811D01*
X48213Y-38736D01*
X48232Y-38698D01*
X48269Y-38661D01*
X48325Y-38642D01*
X48363Y-38642D01*
X48419Y-38661D01*
X48438Y-38680D01*
X48775Y-38642D02*
X48700Y-38642D01*
X48663Y-38661D01*
X48644Y-38680D01*
X48607Y-38736D01*
X48588Y-38811D01*
X48588Y-38961D01*
X48607Y-38998D01*
X48625Y-39017D01*
X48663Y-39036D01*
X48738Y-39036D01*
X48775Y-39017D01*
X48794Y-38998D01*
X48813Y-38961D01*
X48813Y-38867D01*
X48794Y-38830D01*
X48775Y-38811D01*
X48738Y-38792D01*
X48663Y-38792D01*
X48625Y-38811D01*
X48607Y-38830D01*
X48588Y-38867D01*
X60406Y-29235D02*
X60388Y-29253D01*
X60331Y-29272D01*
X60294Y-29272D01*
X60238Y-29253D01*
X60200Y-29216D01*
X60181Y-29178D01*
X60163Y-29103D01*
X60163Y-29047D01*
X60181Y-28972D01*
X60200Y-28935D01*
X60238Y-28897D01*
X60294Y-28878D01*
X60331Y-28878D01*
X60388Y-28897D01*
X60406Y-28916D01*
X60538Y-28878D02*
X60800Y-28878D01*
X60631Y-29272D01*
X57847Y-30691D02*
X57829Y-30710D01*
X57772Y-30729D01*
X57735Y-30729D01*
X57679Y-30710D01*
X57641Y-30673D01*
X57622Y-30635D01*
X57604Y-30560D01*
X57604Y-30504D01*
X57622Y-30429D01*
X57641Y-30391D01*
X57679Y-30354D01*
X57735Y-30335D01*
X57772Y-30335D01*
X57829Y-30354D01*
X57847Y-30373D01*
X58072Y-30504D02*
X58035Y-30485D01*
X58016Y-30466D01*
X57997Y-30429D01*
X57997Y-30410D01*
X58016Y-30373D01*
X58035Y-30354D01*
X58072Y-30335D01*
X58147Y-30335D01*
X58185Y-30354D01*
X58203Y-30373D01*
X58222Y-30410D01*
X58222Y-30429D01*
X58203Y-30466D01*
X58185Y-30485D01*
X58147Y-30504D01*
X58072Y-30504D01*
X58035Y-30523D01*
X58016Y-30541D01*
X57997Y-30579D01*
X57997Y-30654D01*
X58016Y-30691D01*
X58035Y-30710D01*
X58072Y-30729D01*
X58147Y-30729D01*
X58185Y-30710D01*
X58203Y-30691D01*
X58222Y-30654D01*
X58222Y-30579D01*
X58203Y-30541D01*
X58185Y-30523D01*
X58147Y-30504D01*
X56469Y-30691D02*
X56451Y-30710D01*
X56394Y-30729D01*
X56357Y-30729D01*
X56301Y-30710D01*
X56263Y-30673D01*
X56244Y-30635D01*
X56226Y-30560D01*
X56226Y-30504D01*
X56244Y-30429D01*
X56263Y-30391D01*
X56301Y-30354D01*
X56357Y-30335D01*
X56394Y-30335D01*
X56451Y-30354D01*
X56469Y-30373D01*
X56657Y-30729D02*
X56732Y-30729D01*
X56769Y-30710D01*
X56788Y-30691D01*
X56826Y-30635D01*
X56844Y-30560D01*
X56844Y-30410D01*
X56826Y-30373D01*
X56807Y-30354D01*
X56769Y-30335D01*
X56694Y-30335D01*
X56657Y-30354D01*
X56638Y-30373D01*
X56619Y-30410D01*
X56619Y-30504D01*
X56638Y-30541D01*
X56657Y-30560D01*
X56694Y-30579D01*
X56769Y-30579D01*
X56807Y-30560D01*
X56826Y-30541D01*
X56844Y-30504D01*
X48250Y-46085D02*
X48232Y-46104D01*
X48175Y-46122D01*
X48138Y-46122D01*
X48082Y-46104D01*
X48044Y-46066D01*
X48025Y-46029D01*
X48007Y-45954D01*
X48007Y-45898D01*
X48025Y-45823D01*
X48044Y-45785D01*
X48082Y-45748D01*
X48138Y-45729D01*
X48175Y-45729D01*
X48232Y-45748D01*
X48250Y-45766D01*
X48625Y-46122D02*
X48400Y-46122D01*
X48513Y-46122D02*
X48513Y-45729D01*
X48475Y-45785D01*
X48438Y-45823D01*
X48400Y-45841D01*
X48869Y-45729D02*
X48907Y-45729D01*
X48944Y-45748D01*
X48963Y-45766D01*
X48982Y-45804D01*
X49000Y-45879D01*
X49000Y-45973D01*
X48982Y-46047D01*
X48963Y-46085D01*
X48944Y-46104D01*
X48907Y-46122D01*
X48869Y-46122D01*
X48832Y-46104D01*
X48813Y-46085D01*
X48794Y-46047D01*
X48775Y-45973D01*
X48775Y-45879D01*
X48794Y-45804D01*
X48813Y-45766D01*
X48832Y-45748D01*
X48869Y-45729D01*
X47502Y-28408D02*
X47484Y-28427D01*
X47427Y-28445D01*
X47390Y-28445D01*
X47334Y-28427D01*
X47296Y-28389D01*
X47277Y-28352D01*
X47259Y-28277D01*
X47259Y-28220D01*
X47277Y-28145D01*
X47296Y-28108D01*
X47334Y-28070D01*
X47390Y-28052D01*
X47427Y-28052D01*
X47484Y-28070D01*
X47502Y-28089D01*
X47877Y-28445D02*
X47652Y-28445D01*
X47765Y-28445D02*
X47765Y-28052D01*
X47727Y-28108D01*
X47690Y-28145D01*
X47652Y-28164D01*
X48252Y-28445D02*
X48027Y-28445D01*
X48140Y-28445D02*
X48140Y-28052D01*
X48102Y-28108D01*
X48065Y-28145D01*
X48027Y-28164D01*
X52266Y-33093D02*
X52247Y-33112D01*
X52191Y-33130D01*
X52154Y-33130D01*
X52097Y-33112D01*
X52060Y-33074D01*
X52041Y-33037D01*
X52022Y-32962D01*
X52022Y-32905D01*
X52041Y-32830D01*
X52060Y-32793D01*
X52097Y-32755D01*
X52154Y-32737D01*
X52191Y-32737D01*
X52247Y-32755D01*
X52266Y-32774D01*
X52641Y-33130D02*
X52416Y-33130D01*
X52529Y-33130D02*
X52529Y-32737D01*
X52491Y-32793D01*
X52454Y-32830D01*
X52416Y-32849D01*
X52791Y-32774D02*
X52810Y-32755D01*
X52847Y-32737D01*
X52941Y-32737D01*
X52979Y-32755D01*
X52997Y-32774D01*
X53016Y-32812D01*
X53016Y-32849D01*
X52997Y-32905D01*
X52772Y-33130D01*
X53016Y-33130D01*
X56676Y-29235D02*
X56657Y-29253D01*
X56601Y-29272D01*
X56563Y-29272D01*
X56507Y-29253D01*
X56469Y-29216D01*
X56451Y-29178D01*
X56432Y-29103D01*
X56432Y-29047D01*
X56451Y-28972D01*
X56469Y-28935D01*
X56507Y-28897D01*
X56563Y-28878D01*
X56601Y-28878D01*
X56657Y-28897D01*
X56676Y-28916D01*
X57050Y-29272D02*
X56826Y-29272D01*
X56938Y-29272D02*
X56938Y-28878D01*
X56901Y-28935D01*
X56863Y-28972D01*
X56826Y-28991D01*
X57182Y-28878D02*
X57425Y-28878D01*
X57294Y-29028D01*
X57350Y-29028D01*
X57388Y-29047D01*
X57407Y-29066D01*
X57425Y-29103D01*
X57425Y-29197D01*
X57407Y-29235D01*
X57388Y-29253D01*
X57350Y-29272D01*
X57238Y-29272D01*
X57200Y-29253D01*
X57182Y-29235D01*
X64038Y-46479D02*
X64019Y-46497D01*
X63963Y-46516D01*
X63925Y-46516D01*
X63869Y-46497D01*
X63832Y-46460D01*
X63813Y-46422D01*
X63794Y-46347D01*
X63794Y-46291D01*
X63813Y-46216D01*
X63832Y-46179D01*
X63869Y-46141D01*
X63925Y-46122D01*
X63963Y-46122D01*
X64019Y-46141D01*
X64038Y-46160D01*
X64413Y-46516D02*
X64188Y-46516D01*
X64300Y-46516D02*
X64300Y-46122D01*
X64263Y-46179D01*
X64225Y-46216D01*
X64188Y-46235D01*
X64769Y-46122D02*
X64581Y-46122D01*
X64563Y-46310D01*
X64581Y-46291D01*
X64619Y-46272D01*
X64713Y-46272D01*
X64750Y-46291D01*
X64769Y-46310D01*
X64788Y-46347D01*
X64788Y-46441D01*
X64769Y-46479D01*
X64750Y-46497D01*
X64713Y-46516D01*
X64619Y-46516D01*
X64581Y-46497D01*
X64563Y-46479D01*
X60219Y-45809D02*
X60200Y-45828D01*
X60144Y-45847D01*
X60106Y-45847D01*
X60050Y-45828D01*
X60013Y-45791D01*
X59994Y-45753D01*
X59975Y-45678D01*
X59975Y-45622D01*
X59994Y-45547D01*
X60013Y-45509D01*
X60050Y-45472D01*
X60106Y-45453D01*
X60144Y-45453D01*
X60200Y-45472D01*
X60219Y-45491D01*
X60594Y-45847D02*
X60369Y-45847D01*
X60481Y-45847D02*
X60481Y-45453D01*
X60444Y-45509D01*
X60406Y-45547D01*
X60369Y-45566D01*
X60931Y-45453D02*
X60856Y-45453D01*
X60819Y-45472D01*
X60800Y-45491D01*
X60763Y-45547D01*
X60744Y-45622D01*
X60744Y-45772D01*
X60763Y-45809D01*
X60781Y-45828D01*
X60819Y-45847D01*
X60894Y-45847D01*
X60931Y-45828D01*
X60950Y-45809D01*
X60969Y-45772D01*
X60969Y-45678D01*
X60950Y-45641D01*
X60931Y-45622D01*
X60894Y-45603D01*
X60819Y-45603D01*
X60781Y-45622D01*
X60763Y-45641D01*
X60744Y-45678D01*
X58880Y-45809D02*
X58862Y-45828D01*
X58805Y-45847D01*
X58768Y-45847D01*
X58712Y-45828D01*
X58674Y-45791D01*
X58655Y-45753D01*
X58637Y-45678D01*
X58637Y-45622D01*
X58655Y-45547D01*
X58674Y-45509D01*
X58712Y-45472D01*
X58768Y-45453D01*
X58805Y-45453D01*
X58862Y-45472D01*
X58880Y-45491D01*
X59255Y-45847D02*
X59030Y-45847D01*
X59143Y-45847D02*
X59143Y-45453D01*
X59105Y-45509D01*
X59068Y-45547D01*
X59030Y-45566D01*
X59386Y-45453D02*
X59649Y-45453D01*
X59480Y-45847D01*
X53211Y-38605D02*
X53192Y-38623D01*
X53136Y-38642D01*
X53098Y-38642D01*
X53042Y-38623D01*
X53005Y-38586D01*
X52986Y-38548D01*
X52967Y-38473D01*
X52967Y-38417D01*
X52986Y-38342D01*
X53005Y-38305D01*
X53042Y-38267D01*
X53098Y-38248D01*
X53136Y-38248D01*
X53192Y-38267D01*
X53211Y-38286D01*
X53586Y-38642D02*
X53361Y-38642D01*
X53473Y-38642D02*
X53473Y-38248D01*
X53436Y-38305D01*
X53398Y-38342D01*
X53361Y-38361D01*
X53811Y-38417D02*
X53773Y-38398D01*
X53755Y-38380D01*
X53736Y-38342D01*
X53736Y-38323D01*
X53755Y-38286D01*
X53773Y-38267D01*
X53811Y-38248D01*
X53886Y-38248D01*
X53923Y-38267D01*
X53942Y-38286D01*
X53961Y-38323D01*
X53961Y-38342D01*
X53942Y-38380D01*
X53923Y-38398D01*
X53886Y-38417D01*
X53811Y-38417D01*
X53773Y-38436D01*
X53755Y-38455D01*
X53736Y-38492D01*
X53736Y-38567D01*
X53755Y-38605D01*
X53773Y-38623D01*
X53811Y-38642D01*
X53886Y-38642D01*
X53923Y-38623D01*
X53942Y-38605D01*
X53961Y-38567D01*
X53961Y-38492D01*
X53942Y-38455D01*
X53923Y-38436D01*
X53886Y-38417D01*
X47502Y-29943D02*
X47484Y-29962D01*
X47427Y-29981D01*
X47390Y-29981D01*
X47334Y-29962D01*
X47296Y-29925D01*
X47277Y-29887D01*
X47259Y-29812D01*
X47259Y-29756D01*
X47277Y-29681D01*
X47296Y-29643D01*
X47334Y-29606D01*
X47390Y-29587D01*
X47427Y-29587D01*
X47484Y-29606D01*
X47502Y-29625D01*
X47877Y-29981D02*
X47652Y-29981D01*
X47765Y-29981D02*
X47765Y-29587D01*
X47727Y-29643D01*
X47690Y-29681D01*
X47652Y-29700D01*
X48065Y-29981D02*
X48140Y-29981D01*
X48177Y-29962D01*
X48196Y-29943D01*
X48233Y-29887D01*
X48252Y-29812D01*
X48252Y-29662D01*
X48233Y-29625D01*
X48215Y-29606D01*
X48177Y-29587D01*
X48102Y-29587D01*
X48065Y-29606D01*
X48046Y-29625D01*
X48027Y-29662D01*
X48027Y-29756D01*
X48046Y-29793D01*
X48065Y-29812D01*
X48102Y-29831D01*
X48177Y-29831D01*
X48215Y-29812D01*
X48233Y-29793D01*
X48252Y-29756D01*
X47502Y-31479D02*
X47484Y-31497D01*
X47427Y-31516D01*
X47390Y-31516D01*
X47334Y-31497D01*
X47296Y-31460D01*
X47277Y-31422D01*
X47259Y-31347D01*
X47259Y-31291D01*
X47277Y-31216D01*
X47296Y-31179D01*
X47334Y-31141D01*
X47390Y-31122D01*
X47427Y-31122D01*
X47484Y-31141D01*
X47502Y-31160D01*
X47652Y-31160D02*
X47671Y-31141D01*
X47709Y-31122D01*
X47802Y-31122D01*
X47840Y-31141D01*
X47859Y-31160D01*
X47877Y-31197D01*
X47877Y-31235D01*
X47859Y-31291D01*
X47634Y-31516D01*
X47877Y-31516D01*
X48252Y-31516D02*
X48027Y-31516D01*
X48140Y-31516D02*
X48140Y-31122D01*
X48102Y-31179D01*
X48065Y-31216D01*
X48027Y-31235D01*
X60022Y-44353D02*
X60003Y-44371D01*
X59947Y-44390D01*
X59910Y-44390D01*
X59853Y-44371D01*
X59816Y-44334D01*
X59797Y-44296D01*
X59778Y-44221D01*
X59778Y-44165D01*
X59797Y-44090D01*
X59816Y-44053D01*
X59853Y-44015D01*
X59910Y-43997D01*
X59947Y-43997D01*
X60003Y-44015D01*
X60022Y-44034D01*
X60172Y-44034D02*
X60191Y-44015D01*
X60228Y-43997D01*
X60322Y-43997D01*
X60359Y-44015D01*
X60378Y-44034D01*
X60397Y-44071D01*
X60397Y-44109D01*
X60378Y-44165D01*
X60153Y-44390D01*
X60397Y-44390D01*
X60547Y-44034D02*
X60566Y-44015D01*
X60603Y-43997D01*
X60697Y-43997D01*
X60734Y-44015D01*
X60753Y-44034D01*
X60772Y-44071D01*
X60772Y-44109D01*
X60753Y-44165D01*
X60528Y-44390D01*
X60772Y-44390D01*
X43014Y-34904D02*
X42995Y-34923D01*
X42939Y-34941D01*
X42902Y-34941D01*
X42845Y-34923D01*
X42808Y-34885D01*
X42789Y-34848D01*
X42770Y-34773D01*
X42770Y-34716D01*
X42789Y-34641D01*
X42808Y-34604D01*
X42845Y-34566D01*
X42902Y-34548D01*
X42939Y-34548D01*
X42995Y-34566D01*
X43014Y-34585D01*
X43164Y-34585D02*
X43183Y-34566D01*
X43220Y-34548D01*
X43314Y-34548D01*
X43352Y-34566D01*
X43370Y-34585D01*
X43389Y-34623D01*
X43389Y-34660D01*
X43370Y-34716D01*
X43145Y-34941D01*
X43389Y-34941D01*
X43727Y-34679D02*
X43727Y-34941D01*
X43633Y-34529D02*
X43539Y-34810D01*
X43783Y-34810D01*
X56321Y-38250D02*
X56302Y-38269D01*
X56246Y-38288D01*
X56209Y-38288D01*
X56152Y-38269D01*
X56115Y-38232D01*
X56096Y-38194D01*
X56077Y-38119D01*
X56077Y-38063D01*
X56096Y-37988D01*
X56115Y-37950D01*
X56152Y-37913D01*
X56209Y-37894D01*
X56246Y-37894D01*
X56302Y-37913D01*
X56321Y-37932D01*
X56471Y-37932D02*
X56490Y-37913D01*
X56527Y-37894D01*
X56621Y-37894D01*
X56659Y-37913D01*
X56677Y-37932D01*
X56696Y-37969D01*
X56696Y-38007D01*
X56677Y-38063D01*
X56452Y-38288D01*
X56696Y-38288D01*
X57034Y-37894D02*
X56959Y-37894D01*
X56921Y-37913D01*
X56902Y-37932D01*
X56865Y-37988D01*
X56846Y-38063D01*
X56846Y-38213D01*
X56865Y-38250D01*
X56884Y-38269D01*
X56921Y-38288D01*
X56996Y-38288D01*
X57034Y-38269D01*
X57052Y-38250D01*
X57071Y-38213D01*
X57071Y-38119D01*
X57052Y-38082D01*
X57034Y-38063D01*
X56996Y-38044D01*
X56921Y-38044D01*
X56884Y-38063D01*
X56865Y-38082D01*
X56846Y-38119D01*
X48053Y-37620D02*
X48035Y-37639D01*
X47979Y-37658D01*
X47941Y-37658D01*
X47885Y-37639D01*
X47847Y-37602D01*
X47829Y-37564D01*
X47810Y-37489D01*
X47810Y-37433D01*
X47829Y-37358D01*
X47847Y-37320D01*
X47885Y-37283D01*
X47941Y-37264D01*
X47979Y-37264D01*
X48035Y-37283D01*
X48053Y-37302D01*
X48203Y-37302D02*
X48222Y-37283D01*
X48260Y-37264D01*
X48353Y-37264D01*
X48391Y-37283D01*
X48410Y-37302D01*
X48428Y-37339D01*
X48428Y-37377D01*
X48410Y-37433D01*
X48185Y-37658D01*
X48428Y-37658D01*
X48560Y-37264D02*
X48822Y-37264D01*
X48653Y-37658D01*
X43329Y-36400D02*
X43310Y-36419D01*
X43254Y-36437D01*
X43217Y-36437D01*
X43160Y-36419D01*
X43123Y-36381D01*
X43104Y-36344D01*
X43085Y-36269D01*
X43085Y-36212D01*
X43104Y-36137D01*
X43123Y-36100D01*
X43160Y-36062D01*
X43217Y-36044D01*
X43254Y-36044D01*
X43310Y-36062D01*
X43329Y-36081D01*
X43479Y-36081D02*
X43498Y-36062D01*
X43535Y-36044D01*
X43629Y-36044D01*
X43667Y-36062D01*
X43685Y-36081D01*
X43704Y-36119D01*
X43704Y-36156D01*
X43685Y-36212D01*
X43460Y-36437D01*
X43704Y-36437D01*
X43929Y-36212D02*
X43892Y-36194D01*
X43873Y-36175D01*
X43854Y-36137D01*
X43854Y-36119D01*
X43873Y-36081D01*
X43892Y-36062D01*
X43929Y-36044D01*
X44004Y-36044D01*
X44041Y-36062D01*
X44060Y-36081D01*
X44079Y-36119D01*
X44079Y-36137D01*
X44060Y-36175D01*
X44041Y-36194D01*
X44004Y-36212D01*
X43929Y-36212D01*
X43892Y-36231D01*
X43873Y-36250D01*
X43854Y-36287D01*
X43854Y-36362D01*
X43873Y-36400D01*
X43892Y-36419D01*
X43929Y-36437D01*
X44004Y-36437D01*
X44041Y-36419D01*
X44060Y-36400D01*
X44079Y-36362D01*
X44079Y-36287D01*
X44060Y-36250D01*
X44041Y-36231D01*
X44004Y-36212D01*
X54707Y-38250D02*
X54688Y-38269D01*
X54632Y-38288D01*
X54595Y-38288D01*
X54538Y-38269D01*
X54501Y-38232D01*
X54482Y-38194D01*
X54463Y-38119D01*
X54463Y-38063D01*
X54482Y-37988D01*
X54501Y-37950D01*
X54538Y-37913D01*
X54595Y-37894D01*
X54632Y-37894D01*
X54688Y-37913D01*
X54707Y-37932D01*
X54857Y-37932D02*
X54876Y-37913D01*
X54913Y-37894D01*
X55007Y-37894D01*
X55044Y-37913D01*
X55063Y-37932D01*
X55082Y-37969D01*
X55082Y-38007D01*
X55063Y-38063D01*
X54838Y-38288D01*
X55082Y-38288D01*
X55269Y-38288D02*
X55344Y-38288D01*
X55382Y-38269D01*
X55401Y-38250D01*
X55438Y-38194D01*
X55457Y-38119D01*
X55457Y-37969D01*
X55438Y-37932D01*
X55419Y-37913D01*
X55382Y-37894D01*
X55307Y-37894D01*
X55269Y-37913D01*
X55251Y-37932D01*
X55232Y-37969D01*
X55232Y-38063D01*
X55251Y-38100D01*
X55269Y-38119D01*
X55307Y-38138D01*
X55382Y-38138D01*
X55419Y-38119D01*
X55438Y-38100D01*
X55457Y-38063D01*
X54668Y-39628D02*
X54649Y-39647D01*
X54593Y-39666D01*
X54555Y-39666D01*
X54499Y-39647D01*
X54461Y-39610D01*
X54443Y-39572D01*
X54424Y-39497D01*
X54424Y-39441D01*
X54443Y-39366D01*
X54461Y-39328D01*
X54499Y-39291D01*
X54555Y-39272D01*
X54593Y-39272D01*
X54649Y-39291D01*
X54668Y-39310D01*
X54799Y-39272D02*
X55043Y-39272D01*
X54911Y-39422D01*
X54968Y-39422D01*
X55005Y-39441D01*
X55024Y-39460D01*
X55043Y-39497D01*
X55043Y-39591D01*
X55024Y-39628D01*
X55005Y-39647D01*
X54968Y-39666D01*
X54855Y-39666D01*
X54818Y-39647D01*
X54799Y-39628D01*
X55286Y-39272D02*
X55324Y-39272D01*
X55361Y-39291D01*
X55380Y-39310D01*
X55399Y-39347D01*
X55418Y-39422D01*
X55418Y-39516D01*
X55399Y-39591D01*
X55380Y-39628D01*
X55361Y-39647D01*
X55324Y-39666D01*
X55286Y-39666D01*
X55249Y-39647D01*
X55230Y-39628D01*
X55211Y-39591D01*
X55193Y-39516D01*
X55193Y-39422D01*
X55211Y-39347D01*
X55230Y-39310D01*
X55249Y-39291D01*
X55286Y-39272D01*
X55455Y-55416D02*
X55436Y-55434D01*
X55380Y-55453D01*
X55343Y-55453D01*
X55286Y-55434D01*
X55249Y-55397D01*
X55230Y-55359D01*
X55211Y-55284D01*
X55211Y-55228D01*
X55230Y-55153D01*
X55249Y-55116D01*
X55286Y-55078D01*
X55343Y-55059D01*
X55380Y-55059D01*
X55436Y-55078D01*
X55455Y-55097D01*
X55586Y-55059D02*
X55830Y-55059D01*
X55699Y-55209D01*
X55755Y-55209D01*
X55793Y-55228D01*
X55811Y-55247D01*
X55830Y-55284D01*
X55830Y-55378D01*
X55811Y-55416D01*
X55793Y-55434D01*
X55755Y-55453D01*
X55643Y-55453D01*
X55605Y-55434D01*
X55586Y-55416D01*
X56205Y-55453D02*
X55980Y-55453D01*
X56092Y-55453D02*
X56092Y-55059D01*
X56055Y-55116D01*
X56017Y-55153D01*
X55980Y-55172D01*
X55455Y-53841D02*
X55436Y-53860D01*
X55380Y-53878D01*
X55343Y-53878D01*
X55286Y-53860D01*
X55249Y-53822D01*
X55230Y-53785D01*
X55211Y-53710D01*
X55211Y-53653D01*
X55230Y-53578D01*
X55249Y-53541D01*
X55286Y-53503D01*
X55343Y-53485D01*
X55380Y-53485D01*
X55436Y-53503D01*
X55455Y-53522D01*
X55586Y-53485D02*
X55830Y-53485D01*
X55699Y-53635D01*
X55755Y-53635D01*
X55793Y-53653D01*
X55811Y-53672D01*
X55830Y-53710D01*
X55830Y-53803D01*
X55811Y-53841D01*
X55793Y-53860D01*
X55755Y-53878D01*
X55643Y-53878D01*
X55605Y-53860D01*
X55586Y-53841D01*
X55980Y-53522D02*
X55999Y-53503D01*
X56036Y-53485D01*
X56130Y-53485D01*
X56167Y-53503D01*
X56186Y-53522D01*
X56205Y-53560D01*
X56205Y-53597D01*
X56186Y-53653D01*
X55961Y-53878D01*
X56205Y-53878D01*
X60022Y-42266D02*
X60003Y-42285D01*
X59947Y-42304D01*
X59910Y-42304D01*
X59853Y-42285D01*
X59816Y-42247D01*
X59797Y-42210D01*
X59778Y-42135D01*
X59778Y-42079D01*
X59797Y-42004D01*
X59816Y-41966D01*
X59853Y-41929D01*
X59910Y-41910D01*
X59947Y-41910D01*
X60003Y-41929D01*
X60022Y-41947D01*
X60153Y-41910D02*
X60397Y-41910D01*
X60266Y-42060D01*
X60322Y-42060D01*
X60359Y-42079D01*
X60378Y-42097D01*
X60397Y-42135D01*
X60397Y-42229D01*
X60378Y-42266D01*
X60359Y-42285D01*
X60322Y-42304D01*
X60209Y-42304D01*
X60172Y-42285D01*
X60153Y-42266D01*
X60528Y-41910D02*
X60772Y-41910D01*
X60641Y-42060D01*
X60697Y-42060D01*
X60734Y-42079D01*
X60753Y-42097D01*
X60772Y-42135D01*
X60772Y-42229D01*
X60753Y-42266D01*
X60734Y-42285D01*
X60697Y-42304D01*
X60584Y-42304D01*
X60547Y-42285D01*
X60528Y-42266D01*
X51282Y-48526D02*
X51263Y-48545D01*
X51207Y-48563D01*
X51169Y-48563D01*
X51113Y-48545D01*
X51076Y-48507D01*
X51057Y-48470D01*
X51038Y-48395D01*
X51038Y-48338D01*
X51057Y-48263D01*
X51076Y-48226D01*
X51113Y-48188D01*
X51169Y-48170D01*
X51207Y-48170D01*
X51263Y-48188D01*
X51282Y-48207D01*
X51413Y-48170D02*
X51657Y-48170D01*
X51526Y-48320D01*
X51582Y-48320D01*
X51619Y-48338D01*
X51638Y-48357D01*
X51657Y-48395D01*
X51657Y-48488D01*
X51638Y-48526D01*
X51619Y-48545D01*
X51582Y-48563D01*
X51469Y-48563D01*
X51432Y-48545D01*
X51413Y-48526D01*
X52013Y-48170D02*
X51826Y-48170D01*
X51807Y-48357D01*
X51826Y-48338D01*
X51863Y-48320D01*
X51957Y-48320D01*
X51994Y-48338D01*
X52013Y-48357D01*
X52032Y-48395D01*
X52032Y-48488D01*
X52013Y-48526D01*
X51994Y-48545D01*
X51957Y-48563D01*
X51863Y-48563D01*
X51826Y-48545D01*
X51807Y-48526D01*
X49274Y-51479D02*
X49255Y-51497D01*
X49199Y-51516D01*
X49161Y-51516D01*
X49105Y-51497D01*
X49068Y-51460D01*
X49049Y-51422D01*
X49030Y-51347D01*
X49030Y-51291D01*
X49049Y-51216D01*
X49068Y-51179D01*
X49105Y-51141D01*
X49161Y-51122D01*
X49199Y-51122D01*
X49255Y-51141D01*
X49274Y-51160D01*
X49405Y-51122D02*
X49649Y-51122D01*
X49518Y-51272D01*
X49574Y-51272D01*
X49611Y-51291D01*
X49630Y-51310D01*
X49649Y-51347D01*
X49649Y-51441D01*
X49630Y-51479D01*
X49611Y-51497D01*
X49574Y-51516D01*
X49461Y-51516D01*
X49424Y-51497D01*
X49405Y-51479D01*
X49986Y-51122D02*
X49911Y-51122D01*
X49874Y-51141D01*
X49855Y-51160D01*
X49818Y-51216D01*
X49799Y-51291D01*
X49799Y-51441D01*
X49818Y-51479D01*
X49836Y-51497D01*
X49874Y-51516D01*
X49949Y-51516D01*
X49986Y-51497D01*
X50005Y-51479D01*
X50024Y-51441D01*
X50024Y-51347D01*
X50005Y-51310D01*
X49986Y-51291D01*
X49949Y-51272D01*
X49874Y-51272D01*
X49836Y-51291D01*
X49818Y-51310D01*
X49799Y-51347D01*
X47581Y-53723D02*
X47562Y-53742D01*
X47506Y-53760D01*
X47469Y-53760D01*
X47412Y-53742D01*
X47375Y-53704D01*
X47356Y-53667D01*
X47337Y-53592D01*
X47337Y-53535D01*
X47356Y-53460D01*
X47375Y-53423D01*
X47412Y-53385D01*
X47469Y-53367D01*
X47506Y-53367D01*
X47562Y-53385D01*
X47581Y-53404D01*
X47712Y-53367D02*
X47956Y-53367D01*
X47825Y-53517D01*
X47881Y-53517D01*
X47919Y-53535D01*
X47937Y-53554D01*
X47956Y-53592D01*
X47956Y-53685D01*
X47937Y-53723D01*
X47919Y-53742D01*
X47881Y-53760D01*
X47769Y-53760D01*
X47731Y-53742D01*
X47712Y-53723D01*
X48087Y-53367D02*
X48350Y-53367D01*
X48181Y-53760D01*
X63211Y-35967D02*
X63192Y-35986D01*
X63136Y-36004D01*
X63098Y-36004D01*
X63042Y-35986D01*
X63005Y-35948D01*
X62986Y-35911D01*
X62967Y-35836D01*
X62967Y-35779D01*
X62986Y-35704D01*
X63005Y-35667D01*
X63042Y-35629D01*
X63098Y-35611D01*
X63136Y-35611D01*
X63192Y-35629D01*
X63211Y-35648D01*
X63342Y-35611D02*
X63586Y-35611D01*
X63455Y-35761D01*
X63511Y-35761D01*
X63548Y-35779D01*
X63567Y-35798D01*
X63586Y-35836D01*
X63586Y-35929D01*
X63567Y-35967D01*
X63548Y-35986D01*
X63511Y-36004D01*
X63398Y-36004D01*
X63361Y-35986D01*
X63342Y-35967D01*
X63811Y-35779D02*
X63773Y-35761D01*
X63755Y-35742D01*
X63736Y-35704D01*
X63736Y-35686D01*
X63755Y-35648D01*
X63773Y-35629D01*
X63811Y-35611D01*
X63886Y-35611D01*
X63923Y-35629D01*
X63942Y-35648D01*
X63961Y-35686D01*
X63961Y-35704D01*
X63942Y-35742D01*
X63923Y-35761D01*
X63886Y-35779D01*
X63811Y-35779D01*
X63773Y-35798D01*
X63755Y-35817D01*
X63736Y-35854D01*
X63736Y-35929D01*
X63755Y-35967D01*
X63773Y-35986D01*
X63811Y-36004D01*
X63886Y-36004D01*
X63923Y-35986D01*
X63942Y-35967D01*
X63961Y-35929D01*
X63961Y-35854D01*
X63942Y-35817D01*
X63923Y-35798D01*
X63886Y-35779D01*
X64865Y-37463D02*
X64846Y-37482D01*
X64790Y-37500D01*
X64752Y-37500D01*
X64696Y-37482D01*
X64658Y-37444D01*
X64640Y-37407D01*
X64621Y-37332D01*
X64621Y-37275D01*
X64640Y-37200D01*
X64658Y-37163D01*
X64696Y-37125D01*
X64752Y-37107D01*
X64790Y-37107D01*
X64846Y-37125D01*
X64865Y-37144D01*
X64996Y-37107D02*
X65239Y-37107D01*
X65108Y-37257D01*
X65164Y-37257D01*
X65202Y-37275D01*
X65221Y-37294D01*
X65239Y-37332D01*
X65239Y-37425D01*
X65221Y-37463D01*
X65202Y-37482D01*
X65164Y-37500D01*
X65052Y-37500D01*
X65014Y-37482D01*
X64996Y-37463D01*
X65427Y-37500D02*
X65502Y-37500D01*
X65539Y-37482D01*
X65558Y-37463D01*
X65596Y-37407D01*
X65614Y-37332D01*
X65614Y-37182D01*
X65596Y-37144D01*
X65577Y-37125D01*
X65539Y-37107D01*
X65464Y-37107D01*
X65427Y-37125D01*
X65408Y-37144D01*
X65389Y-37182D01*
X65389Y-37275D01*
X65408Y-37313D01*
X65427Y-37332D01*
X65464Y-37350D01*
X65539Y-37350D01*
X65577Y-37332D01*
X65596Y-37313D01*
X65614Y-37275D01*
X63211Y-37463D02*
X63192Y-37482D01*
X63136Y-37500D01*
X63098Y-37500D01*
X63042Y-37482D01*
X63005Y-37444D01*
X62986Y-37407D01*
X62967Y-37332D01*
X62967Y-37275D01*
X62986Y-37200D01*
X63005Y-37163D01*
X63042Y-37125D01*
X63098Y-37107D01*
X63136Y-37107D01*
X63192Y-37125D01*
X63211Y-37144D01*
X63548Y-37238D02*
X63548Y-37500D01*
X63455Y-37088D02*
X63361Y-37369D01*
X63605Y-37369D01*
X63830Y-37107D02*
X63867Y-37107D01*
X63905Y-37125D01*
X63923Y-37144D01*
X63942Y-37182D01*
X63961Y-37257D01*
X63961Y-37350D01*
X63942Y-37425D01*
X63923Y-37463D01*
X63905Y-37482D01*
X63867Y-37500D01*
X63830Y-37500D01*
X63792Y-37482D01*
X63773Y-37463D01*
X63755Y-37425D01*
X63736Y-37350D01*
X63736Y-37257D01*
X63755Y-37182D01*
X63773Y-37144D01*
X63792Y-37125D01*
X63830Y-37107D01*
X64865Y-35967D02*
X64846Y-35986D01*
X64790Y-36004D01*
X64752Y-36004D01*
X64696Y-35986D01*
X64658Y-35948D01*
X64640Y-35911D01*
X64621Y-35836D01*
X64621Y-35779D01*
X64640Y-35704D01*
X64658Y-35667D01*
X64696Y-35629D01*
X64752Y-35611D01*
X64790Y-35611D01*
X64846Y-35629D01*
X64865Y-35648D01*
X65202Y-35742D02*
X65202Y-36004D01*
X65108Y-35592D02*
X65014Y-35873D01*
X65258Y-35873D01*
X65614Y-36004D02*
X65389Y-36004D01*
X65502Y-36004D02*
X65502Y-35611D01*
X65464Y-35667D01*
X65427Y-35704D01*
X65389Y-35723D01*
X59265Y-53997D02*
X59077Y-53997D01*
X59077Y-53603D01*
X59377Y-53640D02*
X59396Y-53622D01*
X59433Y-53603D01*
X59527Y-53603D01*
X59565Y-53622D01*
X59583Y-53640D01*
X59602Y-53678D01*
X59602Y-53715D01*
X59583Y-53772D01*
X59358Y-53997D01*
X59602Y-53997D01*
X50564Y-37658D02*
X50376Y-37658D01*
X50376Y-37264D01*
X50658Y-37264D02*
X50901Y-37264D01*
X50770Y-37414D01*
X50826Y-37414D01*
X50864Y-37433D01*
X50883Y-37452D01*
X50901Y-37489D01*
X50901Y-37583D01*
X50883Y-37620D01*
X50864Y-37639D01*
X50826Y-37658D01*
X50714Y-37658D01*
X50676Y-37639D01*
X50658Y-37620D01*
X61233Y-55453D02*
X61102Y-55266D01*
X61008Y-55453D02*
X61008Y-55059D01*
X61158Y-55059D01*
X61196Y-55078D01*
X61214Y-55097D01*
X61233Y-55134D01*
X61233Y-55191D01*
X61214Y-55228D01*
X61196Y-55247D01*
X61158Y-55266D01*
X61008Y-55266D01*
X61383Y-55097D02*
X61402Y-55078D01*
X61439Y-55059D01*
X61533Y-55059D01*
X61571Y-55078D01*
X61589Y-55097D01*
X61608Y-55134D01*
X61608Y-55172D01*
X61589Y-55228D01*
X61364Y-55453D01*
X61608Y-55453D01*
X60879Y-30768D02*
X60748Y-30581D01*
X60654Y-30768D02*
X60654Y-30374D01*
X60804Y-30374D01*
X60841Y-30393D01*
X60860Y-30412D01*
X60879Y-30449D01*
X60879Y-30506D01*
X60860Y-30543D01*
X60841Y-30562D01*
X60804Y-30581D01*
X60654Y-30581D01*
X61010Y-30374D02*
X61254Y-30374D01*
X61122Y-30524D01*
X61179Y-30524D01*
X61216Y-30543D01*
X61235Y-30562D01*
X61254Y-30599D01*
X61254Y-30693D01*
X61235Y-30731D01*
X61216Y-30749D01*
X61179Y-30768D01*
X61066Y-30768D01*
X61029Y-30749D01*
X61010Y-30731D01*
X57414Y-54863D02*
X57283Y-54675D01*
X57189Y-54863D02*
X57189Y-54469D01*
X57339Y-54469D01*
X57377Y-54488D01*
X57395Y-54506D01*
X57414Y-54544D01*
X57414Y-54600D01*
X57395Y-54638D01*
X57377Y-54656D01*
X57339Y-54675D01*
X57189Y-54675D01*
X57752Y-54600D02*
X57752Y-54863D01*
X57658Y-54450D02*
X57564Y-54731D01*
X57808Y-54731D01*
X52454Y-31674D02*
X52322Y-31486D01*
X52229Y-31674D02*
X52229Y-31280D01*
X52379Y-31280D01*
X52416Y-31299D01*
X52435Y-31317D01*
X52454Y-31355D01*
X52454Y-31411D01*
X52435Y-31449D01*
X52416Y-31467D01*
X52379Y-31486D01*
X52229Y-31486D01*
X52810Y-31280D02*
X52622Y-31280D01*
X52604Y-31467D01*
X52622Y-31449D01*
X52660Y-31430D01*
X52754Y-31430D01*
X52791Y-31449D01*
X52810Y-31467D01*
X52829Y-31505D01*
X52829Y-31599D01*
X52810Y-31636D01*
X52791Y-31655D01*
X52754Y-31674D01*
X52660Y-31674D01*
X52622Y-31655D01*
X52604Y-31636D01*
X62296Y-30847D02*
X62165Y-30659D01*
X62071Y-30847D02*
X62071Y-30453D01*
X62221Y-30453D01*
X62259Y-30472D01*
X62277Y-30491D01*
X62296Y-30528D01*
X62296Y-30584D01*
X62277Y-30622D01*
X62259Y-30641D01*
X62221Y-30659D01*
X62071Y-30659D01*
X62634Y-30453D02*
X62559Y-30453D01*
X62521Y-30472D01*
X62502Y-30491D01*
X62465Y-30547D01*
X62446Y-30622D01*
X62446Y-30772D01*
X62465Y-30809D01*
X62484Y-30828D01*
X62521Y-30847D01*
X62596Y-30847D01*
X62634Y-30828D01*
X62652Y-30809D01*
X62671Y-30772D01*
X62671Y-30678D01*
X62652Y-30641D01*
X62634Y-30622D01*
X62596Y-30603D01*
X62521Y-30603D01*
X62484Y-30622D01*
X62465Y-30641D01*
X62446Y-30678D01*
X52414Y-34981D02*
X52283Y-34793D01*
X52189Y-34981D02*
X52189Y-34587D01*
X52339Y-34587D01*
X52377Y-34606D01*
X52395Y-34625D01*
X52414Y-34662D01*
X52414Y-34718D01*
X52395Y-34756D01*
X52377Y-34775D01*
X52339Y-34793D01*
X52189Y-34793D01*
X52545Y-34587D02*
X52808Y-34587D01*
X52639Y-34981D01*
X61233Y-53997D02*
X61102Y-53809D01*
X61008Y-53997D02*
X61008Y-53603D01*
X61158Y-53603D01*
X61196Y-53622D01*
X61214Y-53640D01*
X61233Y-53678D01*
X61233Y-53734D01*
X61214Y-53772D01*
X61196Y-53790D01*
X61158Y-53809D01*
X61008Y-53809D01*
X61458Y-53772D02*
X61421Y-53753D01*
X61402Y-53734D01*
X61383Y-53697D01*
X61383Y-53678D01*
X61402Y-53640D01*
X61421Y-53622D01*
X61458Y-53603D01*
X61533Y-53603D01*
X61571Y-53622D01*
X61589Y-53640D01*
X61608Y-53678D01*
X61608Y-53697D01*
X61589Y-53734D01*
X61571Y-53753D01*
X61533Y-53772D01*
X61458Y-53772D01*
X61421Y-53790D01*
X61402Y-53809D01*
X61383Y-53847D01*
X61383Y-53922D01*
X61402Y-53959D01*
X61421Y-53978D01*
X61458Y-53997D01*
X61533Y-53997D01*
X61571Y-53978D01*
X61589Y-53959D01*
X61608Y-53922D01*
X61608Y-53847D01*
X61589Y-53809D01*
X61571Y-53790D01*
X61533Y-53772D01*
X58674Y-29272D02*
X58543Y-29085D01*
X58449Y-29272D02*
X58449Y-28878D01*
X58599Y-28878D01*
X58637Y-28897D01*
X58655Y-28916D01*
X58674Y-28953D01*
X58674Y-29010D01*
X58655Y-29047D01*
X58637Y-29066D01*
X58599Y-29085D01*
X58449Y-29085D01*
X58862Y-29272D02*
X58937Y-29272D01*
X58974Y-29253D01*
X58993Y-29235D01*
X59030Y-29178D01*
X59049Y-29103D01*
X59049Y-28953D01*
X59030Y-28916D01*
X59011Y-28897D01*
X58974Y-28878D01*
X58899Y-28878D01*
X58862Y-28897D01*
X58843Y-28916D01*
X58824Y-28953D01*
X58824Y-29047D01*
X58843Y-29085D01*
X58862Y-29103D01*
X58899Y-29122D01*
X58974Y-29122D01*
X59011Y-29103D01*
X59030Y-29085D01*
X59049Y-29047D01*
X51951Y-38642D02*
X51820Y-38455D01*
X51726Y-38642D02*
X51726Y-38248D01*
X51876Y-38248D01*
X51914Y-38267D01*
X51932Y-38286D01*
X51951Y-38323D01*
X51951Y-38380D01*
X51932Y-38417D01*
X51914Y-38436D01*
X51876Y-38455D01*
X51726Y-38455D01*
X52326Y-38642D02*
X52101Y-38642D01*
X52214Y-38642D02*
X52214Y-38248D01*
X52176Y-38305D01*
X52139Y-38342D01*
X52101Y-38361D01*
X52570Y-38248D02*
X52607Y-38248D01*
X52645Y-38267D01*
X52664Y-38286D01*
X52682Y-38323D01*
X52701Y-38398D01*
X52701Y-38492D01*
X52682Y-38567D01*
X52664Y-38605D01*
X52645Y-38623D01*
X52607Y-38642D01*
X52570Y-38642D01*
X52532Y-38623D01*
X52514Y-38605D01*
X52495Y-38567D01*
X52476Y-38492D01*
X52476Y-38398D01*
X52495Y-38323D01*
X52514Y-38286D01*
X52532Y-38267D01*
X52570Y-38248D01*
X62109Y-32185D02*
X61977Y-31998D01*
X61884Y-32185D02*
X61884Y-31792D01*
X62034Y-31792D01*
X62071Y-31811D01*
X62090Y-31829D01*
X62109Y-31867D01*
X62109Y-31923D01*
X62090Y-31961D01*
X62071Y-31979D01*
X62034Y-31998D01*
X61884Y-31998D01*
X62484Y-32185D02*
X62259Y-32185D01*
X62371Y-32185D02*
X62371Y-31792D01*
X62334Y-31848D01*
X62296Y-31886D01*
X62259Y-31904D01*
X62859Y-32185D02*
X62634Y-32185D01*
X62746Y-32185D02*
X62746Y-31792D01*
X62709Y-31848D01*
X62671Y-31886D01*
X62634Y-31904D01*
X56400Y-32894D02*
X56269Y-32707D01*
X56175Y-32894D02*
X56175Y-32500D01*
X56325Y-32500D01*
X56362Y-32519D01*
X56381Y-32538D01*
X56400Y-32575D01*
X56400Y-32632D01*
X56381Y-32669D01*
X56362Y-32688D01*
X56325Y-32707D01*
X56175Y-32707D01*
X56775Y-32894D02*
X56550Y-32894D01*
X56662Y-32894D02*
X56662Y-32500D01*
X56625Y-32557D01*
X56587Y-32594D01*
X56550Y-32613D01*
X56925Y-32538D02*
X56944Y-32519D01*
X56981Y-32500D01*
X57075Y-32500D01*
X57112Y-32519D01*
X57131Y-32538D01*
X57150Y-32575D01*
X57150Y-32613D01*
X57131Y-32669D01*
X56906Y-32894D01*
X57150Y-32894D01*
X64038Y-44981D02*
X63907Y-44793D01*
X63813Y-44981D02*
X63813Y-44587D01*
X63963Y-44587D01*
X64000Y-44606D01*
X64019Y-44625D01*
X64038Y-44662D01*
X64038Y-44718D01*
X64019Y-44756D01*
X64000Y-44775D01*
X63963Y-44793D01*
X63813Y-44793D01*
X64413Y-44981D02*
X64188Y-44981D01*
X64300Y-44981D02*
X64300Y-44587D01*
X64263Y-44643D01*
X64225Y-44681D01*
X64188Y-44700D01*
X64544Y-44587D02*
X64788Y-44587D01*
X64656Y-44737D01*
X64713Y-44737D01*
X64750Y-44756D01*
X64769Y-44775D01*
X64788Y-44812D01*
X64788Y-44906D01*
X64769Y-44943D01*
X64750Y-44962D01*
X64713Y-44981D01*
X64600Y-44981D01*
X64563Y-44962D01*
X64544Y-44943D01*
X62030Y-44390D02*
X61899Y-44203D01*
X61805Y-44390D02*
X61805Y-43997D01*
X61955Y-43997D01*
X61992Y-44015D01*
X62011Y-44034D01*
X62030Y-44071D01*
X62030Y-44128D01*
X62011Y-44165D01*
X61992Y-44184D01*
X61955Y-44203D01*
X61805Y-44203D01*
X62405Y-44390D02*
X62180Y-44390D01*
X62292Y-44390D02*
X62292Y-43997D01*
X62255Y-44053D01*
X62217Y-44090D01*
X62180Y-44109D01*
X62742Y-44128D02*
X62742Y-44390D01*
X62649Y-43978D02*
X62555Y-44259D01*
X62799Y-44259D01*
X63250Y-33682D02*
X63119Y-33494D01*
X63025Y-33682D02*
X63025Y-33288D01*
X63175Y-33288D01*
X63213Y-33307D01*
X63232Y-33325D01*
X63250Y-33363D01*
X63250Y-33419D01*
X63232Y-33457D01*
X63213Y-33475D01*
X63175Y-33494D01*
X63025Y-33494D01*
X63625Y-33682D02*
X63400Y-33682D01*
X63513Y-33682D02*
X63513Y-33288D01*
X63475Y-33344D01*
X63438Y-33382D01*
X63400Y-33400D01*
X63982Y-33288D02*
X63794Y-33288D01*
X63775Y-33475D01*
X63794Y-33457D01*
X63832Y-33438D01*
X63925Y-33438D01*
X63963Y-33457D01*
X63982Y-33475D01*
X64000Y-33513D01*
X64000Y-33607D01*
X63982Y-33644D01*
X63963Y-33663D01*
X63925Y-33682D01*
X63832Y-33682D01*
X63794Y-33663D01*
X63775Y-33644D01*
X61872Y-33682D02*
X61741Y-33494D01*
X61647Y-33682D02*
X61647Y-33288D01*
X61797Y-33288D01*
X61835Y-33307D01*
X61854Y-33325D01*
X61872Y-33363D01*
X61872Y-33419D01*
X61854Y-33457D01*
X61835Y-33475D01*
X61797Y-33494D01*
X61647Y-33494D01*
X62247Y-33682D02*
X62022Y-33682D01*
X62135Y-33682D02*
X62135Y-33288D01*
X62097Y-33344D01*
X62060Y-33382D01*
X62022Y-33400D01*
X62585Y-33288D02*
X62510Y-33288D01*
X62472Y-33307D01*
X62454Y-33325D01*
X62416Y-33382D01*
X62397Y-33457D01*
X62397Y-33607D01*
X62416Y-33644D01*
X62435Y-33663D01*
X62472Y-33682D01*
X62547Y-33682D01*
X62585Y-33663D01*
X62604Y-33644D01*
X62622Y-33607D01*
X62622Y-33513D01*
X62604Y-33475D01*
X62585Y-33457D01*
X62547Y-33438D01*
X62472Y-33438D01*
X62435Y-33457D01*
X62416Y-33475D01*
X62397Y-33513D01*
X58053Y-33603D02*
X57922Y-33415D01*
X57829Y-33603D02*
X57829Y-33209D01*
X57979Y-33209D01*
X58016Y-33228D01*
X58035Y-33247D01*
X58053Y-33284D01*
X58053Y-33340D01*
X58035Y-33378D01*
X58016Y-33397D01*
X57979Y-33415D01*
X57829Y-33415D01*
X58428Y-33603D02*
X58203Y-33603D01*
X58316Y-33603D02*
X58316Y-33209D01*
X58278Y-33265D01*
X58241Y-33303D01*
X58203Y-33322D01*
X58560Y-33209D02*
X58822Y-33209D01*
X58653Y-33603D01*
X47187Y-33209D02*
X47056Y-33022D01*
X46962Y-33209D02*
X46962Y-32815D01*
X47112Y-32815D01*
X47150Y-32834D01*
X47169Y-32853D01*
X47187Y-32890D01*
X47187Y-32947D01*
X47169Y-32984D01*
X47150Y-33003D01*
X47112Y-33022D01*
X46962Y-33022D01*
X47562Y-33209D02*
X47337Y-33209D01*
X47450Y-33209D02*
X47450Y-32815D01*
X47412Y-32872D01*
X47375Y-32909D01*
X47337Y-32928D01*
X47787Y-32984D02*
X47750Y-32965D01*
X47731Y-32947D01*
X47712Y-32909D01*
X47712Y-32890D01*
X47731Y-32853D01*
X47750Y-32834D01*
X47787Y-32815D01*
X47862Y-32815D01*
X47900Y-32834D01*
X47919Y-32853D01*
X47937Y-32890D01*
X47937Y-32909D01*
X47919Y-32947D01*
X47900Y-32965D01*
X47862Y-32984D01*
X47787Y-32984D01*
X47750Y-33003D01*
X47731Y-33022D01*
X47712Y-33059D01*
X47712Y-33134D01*
X47731Y-33172D01*
X47750Y-33190D01*
X47787Y-33209D01*
X47862Y-33209D01*
X47900Y-33190D01*
X47919Y-33172D01*
X47937Y-33134D01*
X47937Y-33059D01*
X47919Y-33022D01*
X47900Y-33003D01*
X47862Y-32984D01*
X45179Y-31516D02*
X45048Y-31329D01*
X44955Y-31516D02*
X44955Y-31122D01*
X45104Y-31122D01*
X45142Y-31141D01*
X45161Y-31160D01*
X45179Y-31197D01*
X45179Y-31254D01*
X45161Y-31291D01*
X45142Y-31310D01*
X45104Y-31329D01*
X44955Y-31329D01*
X45554Y-31516D02*
X45329Y-31516D01*
X45442Y-31516D02*
X45442Y-31122D01*
X45404Y-31179D01*
X45367Y-31216D01*
X45329Y-31235D01*
X45742Y-31516D02*
X45817Y-31516D01*
X45854Y-31497D01*
X45873Y-31479D01*
X45911Y-31422D01*
X45929Y-31347D01*
X45929Y-31197D01*
X45911Y-31160D01*
X45892Y-31141D01*
X45854Y-31122D01*
X45779Y-31122D01*
X45742Y-31141D01*
X45723Y-31160D01*
X45704Y-31197D01*
X45704Y-31291D01*
X45723Y-31329D01*
X45742Y-31347D01*
X45779Y-31366D01*
X45854Y-31366D01*
X45892Y-31347D01*
X45911Y-31329D01*
X45929Y-31291D01*
X46203Y-36437D02*
X46072Y-36250D01*
X45978Y-36437D02*
X45978Y-36044D01*
X46128Y-36044D01*
X46166Y-36062D01*
X46184Y-36081D01*
X46203Y-36119D01*
X46203Y-36175D01*
X46184Y-36212D01*
X46166Y-36231D01*
X46128Y-36250D01*
X45978Y-36250D01*
X46353Y-36081D02*
X46372Y-36062D01*
X46409Y-36044D01*
X46503Y-36044D01*
X46541Y-36062D01*
X46559Y-36081D01*
X46578Y-36119D01*
X46578Y-36156D01*
X46559Y-36212D01*
X46334Y-36437D01*
X46578Y-36437D01*
X46822Y-36044D02*
X46859Y-36044D01*
X46897Y-36062D01*
X46916Y-36081D01*
X46934Y-36119D01*
X46953Y-36194D01*
X46953Y-36287D01*
X46934Y-36362D01*
X46916Y-36400D01*
X46897Y-36419D01*
X46859Y-36437D01*
X46822Y-36437D01*
X46784Y-36419D01*
X46766Y-36400D01*
X46747Y-36362D01*
X46728Y-36287D01*
X46728Y-36194D01*
X46747Y-36119D01*
X46766Y-36081D01*
X46784Y-36062D01*
X46822Y-36044D01*
X44786Y-36437D02*
X44655Y-36250D01*
X44561Y-36437D02*
X44561Y-36044D01*
X44711Y-36044D01*
X44748Y-36062D01*
X44767Y-36081D01*
X44786Y-36119D01*
X44786Y-36175D01*
X44767Y-36212D01*
X44748Y-36231D01*
X44711Y-36250D01*
X44561Y-36250D01*
X44936Y-36081D02*
X44955Y-36062D01*
X44992Y-36044D01*
X45086Y-36044D01*
X45123Y-36062D01*
X45142Y-36081D01*
X45161Y-36119D01*
X45161Y-36156D01*
X45142Y-36212D01*
X44917Y-36437D01*
X45161Y-36437D01*
X45536Y-36437D02*
X45311Y-36437D01*
X45423Y-36437D02*
X45423Y-36044D01*
X45386Y-36100D01*
X45348Y-36137D01*
X45311Y-36156D01*
X41872Y-36437D02*
X41741Y-36250D01*
X41647Y-36437D02*
X41647Y-36044D01*
X41797Y-36044D01*
X41835Y-36062D01*
X41854Y-36081D01*
X41872Y-36119D01*
X41872Y-36175D01*
X41854Y-36212D01*
X41835Y-36231D01*
X41797Y-36250D01*
X41647Y-36250D01*
X42022Y-36081D02*
X42041Y-36062D01*
X42079Y-36044D01*
X42172Y-36044D01*
X42210Y-36062D01*
X42229Y-36081D01*
X42247Y-36119D01*
X42247Y-36156D01*
X42229Y-36212D01*
X42004Y-36437D01*
X42247Y-36437D01*
X42397Y-36081D02*
X42416Y-36062D01*
X42454Y-36044D01*
X42547Y-36044D01*
X42585Y-36062D01*
X42604Y-36081D01*
X42622Y-36119D01*
X42622Y-36156D01*
X42604Y-36212D01*
X42379Y-36437D01*
X42622Y-36437D01*
X54746Y-42973D02*
X54615Y-42785D01*
X54521Y-42973D02*
X54521Y-42579D01*
X54671Y-42579D01*
X54709Y-42598D01*
X54728Y-42617D01*
X54746Y-42654D01*
X54746Y-42710D01*
X54728Y-42748D01*
X54709Y-42767D01*
X54671Y-42785D01*
X54521Y-42785D01*
X54896Y-42617D02*
X54915Y-42598D01*
X54953Y-42579D01*
X55046Y-42579D01*
X55084Y-42598D01*
X55103Y-42617D01*
X55121Y-42654D01*
X55121Y-42692D01*
X55103Y-42748D01*
X54878Y-42973D01*
X55121Y-42973D01*
X55253Y-42579D02*
X55496Y-42579D01*
X55365Y-42729D01*
X55421Y-42729D01*
X55459Y-42748D01*
X55478Y-42767D01*
X55496Y-42804D01*
X55496Y-42898D01*
X55478Y-42935D01*
X55459Y-42954D01*
X55421Y-42973D01*
X55309Y-42973D01*
X55271Y-42954D01*
X55253Y-42935D01*
X52975Y-45059D02*
X52844Y-44872D01*
X52750Y-45059D02*
X52750Y-44666D01*
X52900Y-44666D01*
X52937Y-44685D01*
X52956Y-44703D01*
X52975Y-44741D01*
X52975Y-44797D01*
X52956Y-44835D01*
X52937Y-44853D01*
X52900Y-44872D01*
X52750Y-44872D01*
X53125Y-44703D02*
X53143Y-44685D01*
X53181Y-44666D01*
X53275Y-44666D01*
X53312Y-44685D01*
X53331Y-44703D01*
X53350Y-44741D01*
X53350Y-44778D01*
X53331Y-44835D01*
X53106Y-45059D01*
X53350Y-45059D01*
X53687Y-44797D02*
X53687Y-45059D01*
X53593Y-44647D02*
X53500Y-44928D01*
X53743Y-44928D01*
X63132Y-24587D02*
X63001Y-24400D01*
X62907Y-24587D02*
X62907Y-24193D01*
X63057Y-24193D01*
X63095Y-24212D01*
X63113Y-24231D01*
X63132Y-24268D01*
X63132Y-24325D01*
X63113Y-24362D01*
X63095Y-24381D01*
X63057Y-24400D01*
X62907Y-24400D01*
X63282Y-24231D02*
X63301Y-24212D01*
X63338Y-24193D01*
X63432Y-24193D01*
X63470Y-24212D01*
X63488Y-24231D01*
X63507Y-24268D01*
X63507Y-24306D01*
X63488Y-24362D01*
X63263Y-24587D01*
X63507Y-24587D01*
X63863Y-24193D02*
X63676Y-24193D01*
X63657Y-24381D01*
X63676Y-24362D01*
X63713Y-24343D01*
X63807Y-24343D01*
X63845Y-24362D01*
X63863Y-24381D01*
X63882Y-24418D01*
X63882Y-24512D01*
X63863Y-24550D01*
X63845Y-24568D01*
X63807Y-24587D01*
X63713Y-24587D01*
X63676Y-24568D01*
X63657Y-24550D01*
X56321Y-39666D02*
X56190Y-39478D01*
X56096Y-39666D02*
X56096Y-39272D01*
X56246Y-39272D01*
X56284Y-39291D01*
X56302Y-39310D01*
X56321Y-39347D01*
X56321Y-39403D01*
X56302Y-39441D01*
X56284Y-39460D01*
X56246Y-39478D01*
X56096Y-39478D01*
X56471Y-39310D02*
X56490Y-39291D01*
X56527Y-39272D01*
X56621Y-39272D01*
X56659Y-39291D01*
X56677Y-39310D01*
X56696Y-39347D01*
X56696Y-39385D01*
X56677Y-39441D01*
X56452Y-39666D01*
X56696Y-39666D01*
X57034Y-39272D02*
X56959Y-39272D01*
X56921Y-39291D01*
X56902Y-39310D01*
X56865Y-39366D01*
X56846Y-39441D01*
X56846Y-39591D01*
X56865Y-39628D01*
X56884Y-39647D01*
X56921Y-39666D01*
X56996Y-39666D01*
X57034Y-39647D01*
X57052Y-39628D01*
X57071Y-39591D01*
X57071Y-39497D01*
X57052Y-39460D01*
X57034Y-39441D01*
X56996Y-39422D01*
X56921Y-39422D01*
X56884Y-39441D01*
X56865Y-39460D01*
X56846Y-39497D01*
X55337Y-25493D02*
X55206Y-25305D01*
X55112Y-25493D02*
X55112Y-25099D01*
X55262Y-25099D01*
X55299Y-25118D01*
X55318Y-25136D01*
X55337Y-25174D01*
X55337Y-25230D01*
X55318Y-25268D01*
X55299Y-25286D01*
X55262Y-25305D01*
X55112Y-25305D01*
X55487Y-25136D02*
X55506Y-25118D01*
X55543Y-25099D01*
X55637Y-25099D01*
X55674Y-25118D01*
X55693Y-25136D01*
X55712Y-25174D01*
X55712Y-25211D01*
X55693Y-25268D01*
X55468Y-25493D01*
X55712Y-25493D01*
X55843Y-25099D02*
X56106Y-25099D01*
X55937Y-25493D01*
X64707Y-25886D02*
X64576Y-25699D01*
X64482Y-25886D02*
X64482Y-25493D01*
X64632Y-25493D01*
X64670Y-25511D01*
X64688Y-25530D01*
X64707Y-25568D01*
X64707Y-25624D01*
X64688Y-25661D01*
X64670Y-25680D01*
X64632Y-25699D01*
X64482Y-25699D01*
X64857Y-25530D02*
X64876Y-25511D01*
X64913Y-25493D01*
X65007Y-25493D01*
X65044Y-25511D01*
X65063Y-25530D01*
X65082Y-25568D01*
X65082Y-25605D01*
X65063Y-25661D01*
X64838Y-25886D01*
X65082Y-25886D01*
X65307Y-25661D02*
X65269Y-25643D01*
X65251Y-25624D01*
X65232Y-25586D01*
X65232Y-25568D01*
X65251Y-25530D01*
X65269Y-25511D01*
X65307Y-25493D01*
X65382Y-25493D01*
X65419Y-25511D01*
X65438Y-25530D01*
X65457Y-25568D01*
X65457Y-25586D01*
X65438Y-25624D01*
X65419Y-25643D01*
X65382Y-25661D01*
X65307Y-25661D01*
X65269Y-25680D01*
X65251Y-25699D01*
X65232Y-25736D01*
X65232Y-25811D01*
X65251Y-25849D01*
X65269Y-25868D01*
X65307Y-25886D01*
X65382Y-25886D01*
X65419Y-25868D01*
X65438Y-25849D01*
X65457Y-25811D01*
X65457Y-25736D01*
X65438Y-25699D01*
X65419Y-25680D01*
X65382Y-25661D01*
X53526Y-53878D02*
X53395Y-53691D01*
X53301Y-53878D02*
X53301Y-53485D01*
X53451Y-53485D01*
X53488Y-53503D01*
X53507Y-53522D01*
X53526Y-53560D01*
X53526Y-53616D01*
X53507Y-53653D01*
X53488Y-53672D01*
X53451Y-53691D01*
X53301Y-53691D01*
X53657Y-53485D02*
X53901Y-53485D01*
X53770Y-53635D01*
X53826Y-53635D01*
X53863Y-53653D01*
X53882Y-53672D01*
X53901Y-53710D01*
X53901Y-53803D01*
X53882Y-53841D01*
X53863Y-53860D01*
X53826Y-53878D01*
X53713Y-53878D01*
X53676Y-53860D01*
X53657Y-53841D01*
X54145Y-53485D02*
X54182Y-53485D01*
X54220Y-53503D01*
X54238Y-53522D01*
X54257Y-53560D01*
X54276Y-53635D01*
X54276Y-53728D01*
X54257Y-53803D01*
X54238Y-53841D01*
X54220Y-53860D01*
X54182Y-53878D01*
X54145Y-53878D01*
X54107Y-53860D01*
X54088Y-53841D01*
X54070Y-53803D01*
X54051Y-53728D01*
X54051Y-53635D01*
X54070Y-53560D01*
X54088Y-53522D01*
X54107Y-53503D01*
X54145Y-53485D01*
X55416Y-52304D02*
X55284Y-52116D01*
X55191Y-52304D02*
X55191Y-51910D01*
X55341Y-51910D01*
X55378Y-51929D01*
X55397Y-51947D01*
X55416Y-51985D01*
X55416Y-52041D01*
X55397Y-52079D01*
X55378Y-52097D01*
X55341Y-52116D01*
X55191Y-52116D01*
X55547Y-51910D02*
X55791Y-51910D01*
X55659Y-52060D01*
X55716Y-52060D01*
X55753Y-52079D01*
X55772Y-52097D01*
X55791Y-52135D01*
X55791Y-52229D01*
X55772Y-52266D01*
X55753Y-52285D01*
X55716Y-52304D01*
X55603Y-52304D01*
X55566Y-52285D01*
X55547Y-52266D01*
X56166Y-52304D02*
X55941Y-52304D01*
X56053Y-52304D02*
X56053Y-51910D01*
X56016Y-51966D01*
X55978Y-52004D01*
X55941Y-52022D01*
X58250Y-42304D02*
X58119Y-42116D01*
X58025Y-42304D02*
X58025Y-41910D01*
X58175Y-41910D01*
X58213Y-41929D01*
X58232Y-41947D01*
X58250Y-41985D01*
X58250Y-42041D01*
X58232Y-42079D01*
X58213Y-42097D01*
X58175Y-42116D01*
X58025Y-42116D01*
X58382Y-41910D02*
X58625Y-41910D01*
X58494Y-42060D01*
X58550Y-42060D01*
X58588Y-42079D01*
X58607Y-42097D01*
X58625Y-42135D01*
X58625Y-42229D01*
X58607Y-42266D01*
X58588Y-42285D01*
X58550Y-42304D01*
X58438Y-42304D01*
X58400Y-42285D01*
X58382Y-42266D01*
X58775Y-41947D02*
X58794Y-41929D01*
X58832Y-41910D01*
X58925Y-41910D01*
X58963Y-41929D01*
X58982Y-41947D01*
X59000Y-41985D01*
X59000Y-42022D01*
X58982Y-42079D01*
X58757Y-42304D01*
X59000Y-42304D01*
X53526Y-55453D02*
X53395Y-55266D01*
X53301Y-55453D02*
X53301Y-55059D01*
X53451Y-55059D01*
X53488Y-55078D01*
X53507Y-55097D01*
X53526Y-55134D01*
X53526Y-55191D01*
X53507Y-55228D01*
X53488Y-55247D01*
X53451Y-55266D01*
X53301Y-55266D01*
X53657Y-55059D02*
X53901Y-55059D01*
X53770Y-55209D01*
X53826Y-55209D01*
X53863Y-55228D01*
X53882Y-55247D01*
X53901Y-55284D01*
X53901Y-55378D01*
X53882Y-55416D01*
X53863Y-55434D01*
X53826Y-55453D01*
X53713Y-55453D01*
X53676Y-55434D01*
X53657Y-55416D01*
X54032Y-55059D02*
X54276Y-55059D01*
X54145Y-55209D01*
X54201Y-55209D01*
X54238Y-55228D01*
X54257Y-55247D01*
X54276Y-55284D01*
X54276Y-55378D01*
X54257Y-55416D01*
X54238Y-55434D01*
X54201Y-55453D01*
X54088Y-55453D01*
X54051Y-55434D01*
X54032Y-55416D01*
X51282Y-51516D02*
X51151Y-51329D01*
X51057Y-51516D02*
X51057Y-51122D01*
X51207Y-51122D01*
X51244Y-51141D01*
X51263Y-51160D01*
X51282Y-51197D01*
X51282Y-51254D01*
X51263Y-51291D01*
X51244Y-51310D01*
X51207Y-51329D01*
X51057Y-51329D01*
X51413Y-51122D02*
X51657Y-51122D01*
X51526Y-51272D01*
X51582Y-51272D01*
X51619Y-51291D01*
X51638Y-51310D01*
X51657Y-51347D01*
X51657Y-51441D01*
X51638Y-51479D01*
X51619Y-51497D01*
X51582Y-51516D01*
X51469Y-51516D01*
X51432Y-51497D01*
X51413Y-51479D01*
X51994Y-51254D02*
X51994Y-51516D01*
X51901Y-51104D02*
X51807Y-51385D01*
X52050Y-51385D01*
X51242Y-49981D02*
X51111Y-49793D01*
X51017Y-49981D02*
X51017Y-49587D01*
X51167Y-49587D01*
X51205Y-49606D01*
X51224Y-49625D01*
X51242Y-49662D01*
X51242Y-49718D01*
X51224Y-49756D01*
X51205Y-49775D01*
X51167Y-49793D01*
X51017Y-49793D01*
X51374Y-49587D02*
X51617Y-49587D01*
X51486Y-49737D01*
X51542Y-49737D01*
X51580Y-49756D01*
X51599Y-49775D01*
X51617Y-49812D01*
X51617Y-49906D01*
X51599Y-49943D01*
X51580Y-49962D01*
X51542Y-49981D01*
X51430Y-49981D01*
X51392Y-49962D01*
X51374Y-49943D01*
X51974Y-49587D02*
X51786Y-49587D01*
X51767Y-49775D01*
X51786Y-49756D01*
X51824Y-49737D01*
X51917Y-49737D01*
X51955Y-49756D01*
X51974Y-49775D01*
X51992Y-49812D01*
X51992Y-49906D01*
X51974Y-49943D01*
X51955Y-49962D01*
X51917Y-49981D01*
X51824Y-49981D01*
X51786Y-49962D01*
X51767Y-49943D01*
X61636Y-39311D02*
X61505Y-39124D01*
X61411Y-39311D02*
X61411Y-38918D01*
X61561Y-38918D01*
X61599Y-38937D01*
X61617Y-38955D01*
X61636Y-38993D01*
X61636Y-39049D01*
X61617Y-39086D01*
X61599Y-39105D01*
X61561Y-39124D01*
X61411Y-39124D01*
X61767Y-38918D02*
X62011Y-38918D01*
X61880Y-39068D01*
X61936Y-39068D01*
X61974Y-39086D01*
X61992Y-39105D01*
X62011Y-39143D01*
X62011Y-39236D01*
X61992Y-39274D01*
X61974Y-39293D01*
X61936Y-39311D01*
X61824Y-39311D01*
X61786Y-39293D01*
X61767Y-39274D01*
X62142Y-38918D02*
X62405Y-38918D01*
X62236Y-39311D01*
X49274Y-49981D02*
X49143Y-49793D01*
X49049Y-49981D02*
X49049Y-49587D01*
X49199Y-49587D01*
X49236Y-49606D01*
X49255Y-49625D01*
X49274Y-49662D01*
X49274Y-49718D01*
X49255Y-49756D01*
X49236Y-49775D01*
X49199Y-49793D01*
X49049Y-49793D01*
X49405Y-49587D02*
X49649Y-49587D01*
X49518Y-49737D01*
X49574Y-49737D01*
X49611Y-49756D01*
X49630Y-49775D01*
X49649Y-49812D01*
X49649Y-49906D01*
X49630Y-49943D01*
X49611Y-49962D01*
X49574Y-49981D01*
X49461Y-49981D01*
X49424Y-49962D01*
X49405Y-49943D01*
X49874Y-49756D02*
X49836Y-49737D01*
X49818Y-49718D01*
X49799Y-49681D01*
X49799Y-49662D01*
X49818Y-49625D01*
X49836Y-49606D01*
X49874Y-49587D01*
X49949Y-49587D01*
X49986Y-49606D01*
X50005Y-49625D01*
X50024Y-49662D01*
X50024Y-49681D01*
X50005Y-49718D01*
X49986Y-49737D01*
X49949Y-49756D01*
X49874Y-49756D01*
X49836Y-49775D01*
X49818Y-49793D01*
X49799Y-49831D01*
X49799Y-49906D01*
X49818Y-49943D01*
X49836Y-49962D01*
X49874Y-49981D01*
X49949Y-49981D01*
X49986Y-49962D01*
X50005Y-49943D01*
X50024Y-49906D01*
X50024Y-49831D01*
X50005Y-49793D01*
X49986Y-49775D01*
X49949Y-49756D01*
X49274Y-55414D02*
X49143Y-55226D01*
X49049Y-55414D02*
X49049Y-55020D01*
X49199Y-55020D01*
X49236Y-55039D01*
X49255Y-55058D01*
X49274Y-55095D01*
X49274Y-55151D01*
X49255Y-55189D01*
X49236Y-55208D01*
X49199Y-55226D01*
X49049Y-55226D01*
X49405Y-55020D02*
X49649Y-55020D01*
X49518Y-55170D01*
X49574Y-55170D01*
X49611Y-55189D01*
X49630Y-55208D01*
X49649Y-55245D01*
X49649Y-55339D01*
X49630Y-55376D01*
X49611Y-55395D01*
X49574Y-55414D01*
X49461Y-55414D01*
X49424Y-55395D01*
X49405Y-55376D01*
X49836Y-55414D02*
X49911Y-55414D01*
X49949Y-55395D01*
X49968Y-55376D01*
X50005Y-55320D01*
X50024Y-55245D01*
X50024Y-55095D01*
X50005Y-55058D01*
X49986Y-55039D01*
X49949Y-55020D01*
X49874Y-55020D01*
X49836Y-55039D01*
X49818Y-55058D01*
X49799Y-55095D01*
X49799Y-55189D01*
X49818Y-55226D01*
X49836Y-55245D01*
X49874Y-55264D01*
X49949Y-55264D01*
X49986Y-55245D01*
X50005Y-55226D01*
X50024Y-55189D01*
X64746Y-31083D02*
X64615Y-30896D01*
X64521Y-31083D02*
X64521Y-30689D01*
X64671Y-30689D01*
X64709Y-30708D01*
X64728Y-30727D01*
X64746Y-30764D01*
X64746Y-30821D01*
X64728Y-30858D01*
X64709Y-30877D01*
X64671Y-30896D01*
X64521Y-30896D01*
X65084Y-30821D02*
X65084Y-31083D01*
X64990Y-30671D02*
X64896Y-30952D01*
X65140Y-30952D01*
X65365Y-30689D02*
X65403Y-30689D01*
X65440Y-30708D01*
X65459Y-30727D01*
X65478Y-30764D01*
X65496Y-30839D01*
X65496Y-30933D01*
X65478Y-31008D01*
X65459Y-31046D01*
X65440Y-31064D01*
X65403Y-31083D01*
X65365Y-31083D01*
X65328Y-31064D01*
X65309Y-31046D01*
X65290Y-31008D01*
X65271Y-30933D01*
X65271Y-30839D01*
X65290Y-30764D01*
X65309Y-30727D01*
X65328Y-30708D01*
X65365Y-30689D01*
X63211Y-39036D02*
X63080Y-38848D01*
X62986Y-39036D02*
X62986Y-38642D01*
X63136Y-38642D01*
X63173Y-38661D01*
X63192Y-38680D01*
X63211Y-38717D01*
X63211Y-38773D01*
X63192Y-38811D01*
X63173Y-38830D01*
X63136Y-38848D01*
X62986Y-38848D01*
X63548Y-38773D02*
X63548Y-39036D01*
X63455Y-38623D02*
X63361Y-38905D01*
X63605Y-38905D01*
X63961Y-39036D02*
X63736Y-39036D01*
X63848Y-39036D02*
X63848Y-38642D01*
X63811Y-38698D01*
X63773Y-38736D01*
X63736Y-38755D01*
X63565Y-43052D02*
X63434Y-42864D01*
X63340Y-43052D02*
X63340Y-42658D01*
X63490Y-42658D01*
X63528Y-42677D01*
X63547Y-42695D01*
X63565Y-42733D01*
X63565Y-42789D01*
X63547Y-42827D01*
X63528Y-42845D01*
X63490Y-42864D01*
X63340Y-42864D01*
X63903Y-42789D02*
X63903Y-43052D01*
X63809Y-42639D02*
X63715Y-42920D01*
X63959Y-42920D01*
X64090Y-42695D02*
X64109Y-42677D01*
X64146Y-42658D01*
X64240Y-42658D01*
X64278Y-42677D01*
X64296Y-42695D01*
X64315Y-42733D01*
X64315Y-42770D01*
X64296Y-42827D01*
X64071Y-43052D01*
X64315Y-43052D01*
X64943Y-43052D02*
X64812Y-42864D01*
X64718Y-43052D02*
X64718Y-42658D01*
X64868Y-42658D01*
X64906Y-42677D01*
X64925Y-42695D01*
X64943Y-42733D01*
X64943Y-42789D01*
X64925Y-42827D01*
X64906Y-42845D01*
X64868Y-42864D01*
X64718Y-42864D01*
X65281Y-42789D02*
X65281Y-43052D01*
X65187Y-42639D02*
X65093Y-42920D01*
X65337Y-42920D01*
X65449Y-42658D02*
X65693Y-42658D01*
X65562Y-42808D01*
X65618Y-42808D01*
X65656Y-42827D01*
X65674Y-42845D01*
X65693Y-42883D01*
X65693Y-42977D01*
X65674Y-43014D01*
X65656Y-43033D01*
X65618Y-43052D01*
X65506Y-43052D01*
X65468Y-43033D01*
X65449Y-43014D01*
X64746Y-34469D02*
X64615Y-34281D01*
X64521Y-34469D02*
X64521Y-34075D01*
X64671Y-34075D01*
X64709Y-34094D01*
X64728Y-34113D01*
X64746Y-34150D01*
X64746Y-34206D01*
X64728Y-34244D01*
X64709Y-34263D01*
X64671Y-34281D01*
X64521Y-34281D01*
X65084Y-34206D02*
X65084Y-34469D01*
X64990Y-34056D02*
X64896Y-34338D01*
X65140Y-34338D01*
X65459Y-34206D02*
X65459Y-34469D01*
X65365Y-34056D02*
X65271Y-34338D01*
X65515Y-34338D01*
X43802Y-47934D02*
X43670Y-47746D01*
X43577Y-47934D02*
X43577Y-47540D01*
X43727Y-47540D01*
X43764Y-47559D01*
X43783Y-47577D01*
X43802Y-47615D01*
X43802Y-47671D01*
X43783Y-47709D01*
X43764Y-47727D01*
X43727Y-47746D01*
X43577Y-47746D01*
X44139Y-47671D02*
X44139Y-47934D01*
X44045Y-47521D02*
X43952Y-47802D01*
X44195Y-47802D01*
X44533Y-47540D02*
X44345Y-47540D01*
X44326Y-47727D01*
X44345Y-47709D01*
X44383Y-47690D01*
X44476Y-47690D01*
X44514Y-47709D01*
X44533Y-47727D01*
X44551Y-47765D01*
X44551Y-47859D01*
X44533Y-47896D01*
X44514Y-47915D01*
X44476Y-47934D01*
X44383Y-47934D01*
X44345Y-47915D01*
X44326Y-47896D01*
X64865Y-39036D02*
X64733Y-38848D01*
X64640Y-39036D02*
X64640Y-38642D01*
X64790Y-38642D01*
X64827Y-38661D01*
X64846Y-38680D01*
X64865Y-38717D01*
X64865Y-38773D01*
X64846Y-38811D01*
X64827Y-38830D01*
X64790Y-38848D01*
X64640Y-38848D01*
X65202Y-38773D02*
X65202Y-39036D01*
X65108Y-38623D02*
X65014Y-38905D01*
X65258Y-38905D01*
X65577Y-38642D02*
X65502Y-38642D01*
X65464Y-38661D01*
X65446Y-38680D01*
X65408Y-38736D01*
X65389Y-38811D01*
X65389Y-38961D01*
X65408Y-38998D01*
X65427Y-39017D01*
X65464Y-39036D01*
X65539Y-39036D01*
X65577Y-39017D01*
X65596Y-38998D01*
X65614Y-38961D01*
X65614Y-38867D01*
X65596Y-38830D01*
X65577Y-38811D01*
X65539Y-38792D01*
X65464Y-38792D01*
X65427Y-38811D01*
X65408Y-38830D01*
X65389Y-38867D01*
X54825Y-45138D02*
X54694Y-44951D01*
X54600Y-45138D02*
X54600Y-44745D01*
X54750Y-44745D01*
X54788Y-44763D01*
X54806Y-44782D01*
X54825Y-44820D01*
X54825Y-44876D01*
X54806Y-44913D01*
X54788Y-44932D01*
X54750Y-44951D01*
X54600Y-44951D01*
X55163Y-44876D02*
X55163Y-45138D01*
X55069Y-44726D02*
X54975Y-45007D01*
X55219Y-45007D01*
X55331Y-44745D02*
X55594Y-44745D01*
X55425Y-45138D01*
X47345Y-49941D02*
X47214Y-49754D01*
X47120Y-49941D02*
X47120Y-49548D01*
X47270Y-49548D01*
X47307Y-49566D01*
X47326Y-49585D01*
X47345Y-49623D01*
X47345Y-49679D01*
X47326Y-49716D01*
X47307Y-49735D01*
X47270Y-49754D01*
X47120Y-49754D01*
X47682Y-49679D02*
X47682Y-49941D01*
X47589Y-49529D02*
X47495Y-49810D01*
X47739Y-49810D01*
X47945Y-49716D02*
X47907Y-49698D01*
X47889Y-49679D01*
X47870Y-49641D01*
X47870Y-49623D01*
X47889Y-49585D01*
X47907Y-49566D01*
X47945Y-49548D01*
X48020Y-49548D01*
X48057Y-49566D01*
X48076Y-49585D01*
X48095Y-49623D01*
X48095Y-49641D01*
X48076Y-49679D01*
X48057Y-49698D01*
X48020Y-49716D01*
X47945Y-49716D01*
X47907Y-49735D01*
X47889Y-49754D01*
X47870Y-49791D01*
X47870Y-49866D01*
X47889Y-49904D01*
X47907Y-49923D01*
X47945Y-49941D01*
X48020Y-49941D01*
X48057Y-49923D01*
X48076Y-49904D01*
X48095Y-49866D01*
X48095Y-49791D01*
X48076Y-49754D01*
X48057Y-49735D01*
X48020Y-49716D01*
X45455Y-49941D02*
X45324Y-49754D01*
X45230Y-49941D02*
X45230Y-49548D01*
X45380Y-49548D01*
X45418Y-49566D01*
X45436Y-49585D01*
X45455Y-49623D01*
X45455Y-49679D01*
X45436Y-49716D01*
X45418Y-49735D01*
X45380Y-49754D01*
X45230Y-49754D01*
X45793Y-49679D02*
X45793Y-49941D01*
X45699Y-49529D02*
X45605Y-49810D01*
X45849Y-49810D01*
X46017Y-49941D02*
X46092Y-49941D01*
X46130Y-49923D01*
X46149Y-49904D01*
X46186Y-49848D01*
X46205Y-49773D01*
X46205Y-49623D01*
X46186Y-49585D01*
X46167Y-49566D01*
X46130Y-49548D01*
X46055Y-49548D01*
X46017Y-49566D01*
X45999Y-49585D01*
X45980Y-49623D01*
X45980Y-49716D01*
X45999Y-49754D01*
X46017Y-49773D01*
X46055Y-49791D01*
X46130Y-49791D01*
X46167Y-49773D01*
X46186Y-49754D01*
X46205Y-49716D01*
G54D24*
X42701Y-29567D02*
X42701Y-29174D01*
X42795Y-29174D01*
X42851Y-29192D01*
X42889Y-29230D01*
X42907Y-29267D01*
X42926Y-29342D01*
X42926Y-29399D01*
X42907Y-29474D01*
X42889Y-29511D01*
X42851Y-29549D01*
X42795Y-29567D01*
X42701Y-29567D01*
X43076Y-29211D02*
X43095Y-29192D01*
X43132Y-29174D01*
X43226Y-29174D01*
X43263Y-29192D01*
X43282Y-29211D01*
X43301Y-29249D01*
X43301Y-29286D01*
X43282Y-29342D01*
X43057Y-29567D01*
X43301Y-29567D01*
X42740Y-27225D02*
X42740Y-26831D01*
X42834Y-26831D01*
X42890Y-26850D01*
X42928Y-26887D01*
X42947Y-26925D01*
X42965Y-27000D01*
X42965Y-27056D01*
X42947Y-27131D01*
X42928Y-27169D01*
X42890Y-27206D01*
X42834Y-27225D01*
X42740Y-27225D01*
X43340Y-27225D02*
X43115Y-27225D01*
X43228Y-27225D02*
X43228Y-26831D01*
X43190Y-26887D01*
X43153Y-26925D01*
X43115Y-26944D01*
X64853Y-32499D02*
X64816Y-32480D01*
X64778Y-32442D01*
X64722Y-32386D01*
X64685Y-32367D01*
X64647Y-32367D01*
X64666Y-32461D02*
X64628Y-32442D01*
X64591Y-32405D01*
X64572Y-32330D01*
X64572Y-32199D01*
X64591Y-32124D01*
X64628Y-32086D01*
X64666Y-32067D01*
X64741Y-32067D01*
X64778Y-32086D01*
X64816Y-32124D01*
X64835Y-32199D01*
X64835Y-32330D01*
X64816Y-32405D01*
X64778Y-32442D01*
X64741Y-32461D01*
X64666Y-32461D01*
X65209Y-32461D02*
X64985Y-32461D01*
X65097Y-32461D02*
X65097Y-32067D01*
X65059Y-32124D01*
X65022Y-32161D01*
X64985Y-32180D01*
X65547Y-32199D02*
X65547Y-32461D01*
X65453Y-32049D02*
X65359Y-32330D01*
X65603Y-32330D01*
X53781Y-25510D02*
X53743Y-25492D01*
X53706Y-25454D01*
X53650Y-25398D01*
X53612Y-25379D01*
X53575Y-25379D01*
X53593Y-25473D02*
X53556Y-25454D01*
X53518Y-25417D01*
X53500Y-25342D01*
X53500Y-25210D01*
X53518Y-25135D01*
X53556Y-25098D01*
X53593Y-25079D01*
X53668Y-25079D01*
X53706Y-25098D01*
X53743Y-25135D01*
X53762Y-25210D01*
X53762Y-25342D01*
X53743Y-25417D01*
X53706Y-25454D01*
X53668Y-25473D01*
X53593Y-25473D01*
X53950Y-25473D02*
X54025Y-25473D01*
X54062Y-25454D01*
X54081Y-25435D01*
X54118Y-25379D01*
X54137Y-25304D01*
X54137Y-25154D01*
X54118Y-25117D01*
X54100Y-25098D01*
X54062Y-25079D01*
X53987Y-25079D01*
X53950Y-25098D01*
X53931Y-25117D01*
X53912Y-25154D01*
X53912Y-25248D01*
X53931Y-25285D01*
X53950Y-25304D01*
X53987Y-25323D01*
X54062Y-25323D01*
X54100Y-25304D01*
X54118Y-25285D01*
X54137Y-25248D01*
X53151Y-43010D02*
X53113Y-42992D01*
X53076Y-42954D01*
X53020Y-42898D01*
X52982Y-42879D01*
X52945Y-42879D01*
X52964Y-42973D02*
X52926Y-42954D01*
X52889Y-42917D01*
X52870Y-42842D01*
X52870Y-42710D01*
X52889Y-42635D01*
X52926Y-42598D01*
X52964Y-42579D01*
X53038Y-42579D01*
X53076Y-42598D01*
X53113Y-42635D01*
X53132Y-42710D01*
X53132Y-42842D01*
X53113Y-42917D01*
X53076Y-42954D01*
X53038Y-42973D01*
X52964Y-42973D01*
X53357Y-42748D02*
X53320Y-42729D01*
X53301Y-42710D01*
X53282Y-42673D01*
X53282Y-42654D01*
X53301Y-42617D01*
X53320Y-42598D01*
X53357Y-42579D01*
X53432Y-42579D01*
X53470Y-42598D01*
X53488Y-42617D01*
X53507Y-42654D01*
X53507Y-42673D01*
X53488Y-42710D01*
X53470Y-42729D01*
X53432Y-42748D01*
X53357Y-42748D01*
X53320Y-42767D01*
X53301Y-42785D01*
X53282Y-42823D01*
X53282Y-42898D01*
X53301Y-42935D01*
X53320Y-42954D01*
X53357Y-42973D01*
X53432Y-42973D01*
X53470Y-42954D01*
X53488Y-42935D01*
X53507Y-42898D01*
X53507Y-42823D01*
X53488Y-42785D01*
X53470Y-42767D01*
X53432Y-42748D01*
X53702Y-40924D02*
X53665Y-40905D01*
X53627Y-40868D01*
X53571Y-40811D01*
X53533Y-40793D01*
X53496Y-40793D01*
X53515Y-40886D02*
X53477Y-40868D01*
X53440Y-40830D01*
X53421Y-40755D01*
X53421Y-40624D01*
X53440Y-40549D01*
X53477Y-40511D01*
X53515Y-40493D01*
X53590Y-40493D01*
X53627Y-40511D01*
X53665Y-40549D01*
X53683Y-40624D01*
X53683Y-40755D01*
X53665Y-40830D01*
X53627Y-40868D01*
X53590Y-40886D01*
X53515Y-40886D01*
X53815Y-40493D02*
X54077Y-40493D01*
X53908Y-40886D01*
X56025Y-40963D02*
X55988Y-40944D01*
X55950Y-40907D01*
X55894Y-40851D01*
X55856Y-40832D01*
X55819Y-40832D01*
X55838Y-40926D02*
X55800Y-40907D01*
X55763Y-40869D01*
X55744Y-40794D01*
X55744Y-40663D01*
X55763Y-40588D01*
X55800Y-40551D01*
X55838Y-40532D01*
X55913Y-40532D01*
X55950Y-40551D01*
X55988Y-40588D01*
X56006Y-40663D01*
X56006Y-40794D01*
X55988Y-40869D01*
X55950Y-40907D01*
X55913Y-40926D01*
X55838Y-40926D01*
X56344Y-40532D02*
X56269Y-40532D01*
X56231Y-40551D01*
X56212Y-40569D01*
X56175Y-40626D01*
X56156Y-40701D01*
X56156Y-40851D01*
X56175Y-40888D01*
X56194Y-40907D01*
X56231Y-40926D01*
X56306Y-40926D01*
X56344Y-40907D01*
X56362Y-40888D01*
X56381Y-40851D01*
X56381Y-40757D01*
X56362Y-40719D01*
X56344Y-40701D01*
X56306Y-40682D01*
X56231Y-40682D01*
X56194Y-40701D01*
X56175Y-40719D01*
X56156Y-40757D01*
G54D15*
X47631Y-34916D02*
X47387Y-34916D01*
X47387Y-34404D01*
X48045Y-34404D02*
X47801Y-34404D01*
X47777Y-34648D01*
X47801Y-34624D01*
X47850Y-34599D01*
X47972Y-34599D01*
X48021Y-34624D01*
X48045Y-34648D01*
X48069Y-34697D01*
X48069Y-34819D01*
X48045Y-34867D01*
X48021Y-34892D01*
X47972Y-34916D01*
X47850Y-34916D01*
X47801Y-34892D01*
X47777Y-34867D01*
X50702Y-25428D02*
X50458Y-25428D01*
X50458Y-24916D01*
X51092Y-25087D02*
X51092Y-25428D01*
X50970Y-24892D02*
X50848Y-25257D01*
X51165Y-25257D01*
X45387Y-25389D02*
X45143Y-25389D01*
X45143Y-24877D01*
X45825Y-25389D02*
X45533Y-25389D01*
X45679Y-25389D02*
X45679Y-24877D01*
X45630Y-24950D01*
X45582Y-24999D01*
X45533Y-25023D01*
G54D19*
X61389Y-50607D02*
X61704Y-51079D01*
X61704Y-50607D02*
X61389Y-51079D01*
X62086Y-50607D02*
X61996Y-50607D01*
X61951Y-50629D01*
X61929Y-50652D01*
X61884Y-50719D01*
X61861Y-50809D01*
X61861Y-50989D01*
X61884Y-51034D01*
X61906Y-51057D01*
X61951Y-51079D01*
X62041Y-51079D01*
X62086Y-51057D01*
X62109Y-51034D01*
X62131Y-50989D01*
X62131Y-50877D01*
X62109Y-50832D01*
X62086Y-50809D01*
X62041Y-50787D01*
X61951Y-50787D01*
X61906Y-50809D01*
X61884Y-50832D01*
X61861Y-50877D01*
X61389Y-47694D02*
X61704Y-48166D01*
X61704Y-47694D02*
X61389Y-48166D01*
X62109Y-47694D02*
X61884Y-47694D01*
X61861Y-47919D01*
X61884Y-47896D01*
X61929Y-47874D01*
X62041Y-47874D01*
X62086Y-47896D01*
X62109Y-47919D01*
X62131Y-47964D01*
X62131Y-48076D01*
X62109Y-48121D01*
X62086Y-48143D01*
X62041Y-48166D01*
X61929Y-48166D01*
X61884Y-48143D01*
X61861Y-48121D01*
X49656Y-39190D02*
X49971Y-39662D01*
X49971Y-39190D02*
X49656Y-39662D01*
X50354Y-39347D02*
X50354Y-39662D01*
X50241Y-39167D02*
X50129Y-39505D01*
X50421Y-39505D01*
X46389Y-39150D02*
X46704Y-39623D01*
X46704Y-39150D02*
X46389Y-39623D01*
X46839Y-39150D02*
X47131Y-39150D01*
X46974Y-39330D01*
X47041Y-39330D01*
X47086Y-39353D01*
X47109Y-39375D01*
X47131Y-39420D01*
X47131Y-39533D01*
X47109Y-39578D01*
X47086Y-39600D01*
X47041Y-39623D01*
X46906Y-39623D01*
X46861Y-39600D01*
X46839Y-39578D01*
X58790Y-25843D02*
X59105Y-26316D01*
X59105Y-25843D02*
X58790Y-26316D01*
X59263Y-25888D02*
X59285Y-25866D01*
X59330Y-25843D01*
X59443Y-25843D01*
X59488Y-25866D01*
X59510Y-25888D01*
X59533Y-25933D01*
X59533Y-25978D01*
X59510Y-26046D01*
X59240Y-26316D01*
X59533Y-26316D01*
X42924Y-39150D02*
X43239Y-39623D01*
X43239Y-39150D02*
X42924Y-39623D01*
X43667Y-39623D02*
X43397Y-39623D01*
X43532Y-39623D02*
X43532Y-39150D01*
X43487Y-39218D01*
X43442Y-39263D01*
X43397Y-39285D01*
G54D24*
X43830Y-49388D02*
X43792Y-49370D01*
X43755Y-49332D01*
X43698Y-49276D01*
X43661Y-49257D01*
X43623Y-49257D01*
X43642Y-49351D02*
X43605Y-49332D01*
X43567Y-49295D01*
X43548Y-49220D01*
X43548Y-49088D01*
X43567Y-49013D01*
X43605Y-48976D01*
X43642Y-48957D01*
X43717Y-48957D01*
X43755Y-48976D01*
X43792Y-49013D01*
X43811Y-49088D01*
X43811Y-49220D01*
X43792Y-49295D01*
X43755Y-49332D01*
X43717Y-49351D01*
X43642Y-49351D01*
X44186Y-49351D02*
X43961Y-49351D01*
X44073Y-49351D02*
X44073Y-48957D01*
X44036Y-49013D01*
X43998Y-49051D01*
X43961Y-49070D01*
X44317Y-48957D02*
X44580Y-48957D01*
X44411Y-49351D01*
X47530Y-51495D02*
X47493Y-51476D01*
X47455Y-51438D01*
X47399Y-51382D01*
X47362Y-51363D01*
X47324Y-51363D01*
X47343Y-51457D02*
X47305Y-51438D01*
X47268Y-51401D01*
X47249Y-51326D01*
X47249Y-51195D01*
X47268Y-51120D01*
X47305Y-51082D01*
X47343Y-51063D01*
X47418Y-51063D01*
X47455Y-51082D01*
X47493Y-51120D01*
X47512Y-51195D01*
X47512Y-51326D01*
X47493Y-51401D01*
X47455Y-51438D01*
X47418Y-51457D01*
X47343Y-51457D01*
X47887Y-51457D02*
X47662Y-51457D01*
X47774Y-51457D02*
X47774Y-51063D01*
X47737Y-51120D01*
X47699Y-51157D01*
X47662Y-51176D01*
X48224Y-51063D02*
X48149Y-51063D01*
X48112Y-51082D01*
X48093Y-51101D01*
X48055Y-51157D01*
X48037Y-51232D01*
X48037Y-51382D01*
X48055Y-51420D01*
X48074Y-51438D01*
X48112Y-51457D01*
X48187Y-51457D01*
X48224Y-51438D01*
X48243Y-51420D01*
X48262Y-51382D01*
X48262Y-51288D01*
X48243Y-51251D01*
X48224Y-51232D01*
X48187Y-51213D01*
X48112Y-51213D01*
X48074Y-51232D01*
X48055Y-51251D01*
X48037Y-51288D01*
X50286Y-46770D02*
X50249Y-46751D01*
X50211Y-46714D01*
X50155Y-46658D01*
X50118Y-46639D01*
X50080Y-46639D01*
X50099Y-46733D02*
X50061Y-46714D01*
X50024Y-46676D01*
X50005Y-46601D01*
X50005Y-46470D01*
X50024Y-46395D01*
X50061Y-46358D01*
X50099Y-46339D01*
X50174Y-46339D01*
X50211Y-46358D01*
X50249Y-46395D01*
X50268Y-46470D01*
X50268Y-46601D01*
X50249Y-46676D01*
X50211Y-46714D01*
X50174Y-46733D01*
X50099Y-46733D01*
X50643Y-46733D02*
X50418Y-46733D01*
X50530Y-46733D02*
X50530Y-46339D01*
X50493Y-46395D01*
X50455Y-46433D01*
X50418Y-46452D01*
X50999Y-46339D02*
X50811Y-46339D01*
X50793Y-46526D01*
X50811Y-46508D01*
X50849Y-46489D01*
X50943Y-46489D01*
X50980Y-46508D01*
X50999Y-46526D01*
X51017Y-46564D01*
X51017Y-46658D01*
X50999Y-46695D01*
X50980Y-46714D01*
X50943Y-46733D01*
X50849Y-46733D01*
X50811Y-46714D01*
X50793Y-46695D01*
X64932Y-40412D02*
X64895Y-40393D01*
X64857Y-40356D01*
X64801Y-40299D01*
X64763Y-40281D01*
X64726Y-40281D01*
X64745Y-40374D02*
X64707Y-40356D01*
X64670Y-40318D01*
X64651Y-40243D01*
X64651Y-40112D01*
X64670Y-40037D01*
X64707Y-40000D01*
X64745Y-39981D01*
X64820Y-39981D01*
X64857Y-40000D01*
X64895Y-40037D01*
X64913Y-40112D01*
X64913Y-40243D01*
X64895Y-40318D01*
X64857Y-40356D01*
X64820Y-40374D01*
X64745Y-40374D01*
X65288Y-40374D02*
X65063Y-40374D01*
X65176Y-40374D02*
X65176Y-39981D01*
X65138Y-40037D01*
X65101Y-40074D01*
X65063Y-40093D01*
X65419Y-39981D02*
X65663Y-39981D01*
X65532Y-40131D01*
X65588Y-40131D01*
X65626Y-40149D01*
X65644Y-40168D01*
X65663Y-40206D01*
X65663Y-40299D01*
X65644Y-40337D01*
X65626Y-40356D01*
X65588Y-40374D01*
X65476Y-40374D01*
X65438Y-40356D01*
X65419Y-40337D01*
X49341Y-53069D02*
X49304Y-53051D01*
X49266Y-53013D01*
X49210Y-52957D01*
X49173Y-52938D01*
X49135Y-52938D01*
X49154Y-53032D02*
X49116Y-53013D01*
X49079Y-52976D01*
X49060Y-52901D01*
X49060Y-52769D01*
X49079Y-52694D01*
X49116Y-52657D01*
X49154Y-52638D01*
X49229Y-52638D01*
X49266Y-52657D01*
X49304Y-52694D01*
X49323Y-52769D01*
X49323Y-52901D01*
X49304Y-52976D01*
X49266Y-53013D01*
X49229Y-53032D01*
X49154Y-53032D01*
X49698Y-53032D02*
X49473Y-53032D01*
X49585Y-53032D02*
X49585Y-52638D01*
X49548Y-52694D01*
X49510Y-52732D01*
X49473Y-52751D01*
X49848Y-52676D02*
X49866Y-52657D01*
X49904Y-52638D01*
X49998Y-52638D01*
X50035Y-52657D01*
X50054Y-52676D01*
X50073Y-52713D01*
X50073Y-52751D01*
X50054Y-52807D01*
X49829Y-53032D01*
X50073Y-53032D01*
X53554Y-51928D02*
X53517Y-51909D01*
X53479Y-51871D01*
X53423Y-51815D01*
X53385Y-51796D01*
X53348Y-51796D01*
X53367Y-51890D02*
X53329Y-51871D01*
X53292Y-51834D01*
X53273Y-51759D01*
X53273Y-51628D01*
X53292Y-51553D01*
X53329Y-51515D01*
X53367Y-51497D01*
X53442Y-51497D01*
X53479Y-51515D01*
X53517Y-51553D01*
X53535Y-51628D01*
X53535Y-51759D01*
X53517Y-51834D01*
X53479Y-51871D01*
X53442Y-51890D01*
X53367Y-51890D01*
X53910Y-51890D02*
X53685Y-51890D01*
X53798Y-51890D02*
X53798Y-51497D01*
X53760Y-51553D01*
X53723Y-51590D01*
X53685Y-51609D01*
X54285Y-51890D02*
X54060Y-51890D01*
X54173Y-51890D02*
X54173Y-51497D01*
X54135Y-51553D01*
X54098Y-51590D01*
X54060Y-51609D01*
X63160Y-25943D02*
X63123Y-25925D01*
X63085Y-25887D01*
X63029Y-25831D01*
X62992Y-25812D01*
X62954Y-25812D01*
X62973Y-25906D02*
X62935Y-25887D01*
X62898Y-25850D01*
X62879Y-25775D01*
X62879Y-25643D01*
X62898Y-25568D01*
X62935Y-25531D01*
X62973Y-25512D01*
X63048Y-25512D01*
X63085Y-25531D01*
X63123Y-25568D01*
X63142Y-25643D01*
X63142Y-25775D01*
X63123Y-25850D01*
X63085Y-25887D01*
X63048Y-25906D01*
X62973Y-25906D01*
X63517Y-25906D02*
X63292Y-25906D01*
X63404Y-25906D02*
X63404Y-25512D01*
X63367Y-25568D01*
X63329Y-25606D01*
X63292Y-25625D01*
X63760Y-25512D02*
X63798Y-25512D01*
X63835Y-25531D01*
X63854Y-25550D01*
X63873Y-25587D01*
X63892Y-25662D01*
X63892Y-25756D01*
X63873Y-25831D01*
X63854Y-25868D01*
X63835Y-25887D01*
X63798Y-25906D01*
X63760Y-25906D01*
X63723Y-25887D01*
X63704Y-25868D01*
X63685Y-25831D01*
X63667Y-25756D01*
X63667Y-25662D01*
X63685Y-25587D01*
X63704Y-25550D01*
X63723Y-25531D01*
X63760Y-25512D01*
X52442Y-36514D02*
X52405Y-36496D01*
X52367Y-36458D01*
X52311Y-36402D01*
X52274Y-36383D01*
X52236Y-36383D01*
X52255Y-36477D02*
X52217Y-36458D01*
X52180Y-36421D01*
X52161Y-36346D01*
X52161Y-36214D01*
X52180Y-36139D01*
X52217Y-36102D01*
X52255Y-36083D01*
X52330Y-36083D01*
X52367Y-36102D01*
X52405Y-36139D01*
X52424Y-36214D01*
X52424Y-36346D01*
X52405Y-36421D01*
X52367Y-36458D01*
X52330Y-36477D01*
X52255Y-36477D01*
X52574Y-36121D02*
X52592Y-36102D01*
X52630Y-36083D01*
X52724Y-36083D01*
X52761Y-36102D01*
X52780Y-36121D01*
X52799Y-36158D01*
X52799Y-36196D01*
X52780Y-36252D01*
X52555Y-36477D01*
X52799Y-36477D01*
X62206Y-45884D02*
X62169Y-45866D01*
X62131Y-45828D01*
X62075Y-45772D01*
X62037Y-45753D01*
X62000Y-45753D01*
X62019Y-45847D02*
X61981Y-45828D01*
X61944Y-45791D01*
X61925Y-45716D01*
X61925Y-45584D01*
X61944Y-45509D01*
X61981Y-45472D01*
X62019Y-45453D01*
X62094Y-45453D01*
X62131Y-45472D01*
X62169Y-45509D01*
X62187Y-45584D01*
X62187Y-45716D01*
X62169Y-45791D01*
X62131Y-45828D01*
X62094Y-45847D01*
X62019Y-45847D01*
X62319Y-45453D02*
X62562Y-45453D01*
X62431Y-45603D01*
X62487Y-45603D01*
X62525Y-45622D01*
X62544Y-45641D01*
X62562Y-45678D01*
X62562Y-45772D01*
X62544Y-45809D01*
X62525Y-45828D01*
X62487Y-45847D01*
X62375Y-45847D01*
X62337Y-45828D01*
X62319Y-45809D01*
X59450Y-30727D02*
X59413Y-30708D01*
X59375Y-30671D01*
X59319Y-30614D01*
X59281Y-30596D01*
X59244Y-30596D01*
X59263Y-30689D02*
X59225Y-30671D01*
X59188Y-30633D01*
X59169Y-30558D01*
X59169Y-30427D01*
X59188Y-30352D01*
X59225Y-30314D01*
X59263Y-30296D01*
X59338Y-30296D01*
X59375Y-30314D01*
X59413Y-30352D01*
X59431Y-30427D01*
X59431Y-30558D01*
X59413Y-30633D01*
X59375Y-30671D01*
X59338Y-30689D01*
X59263Y-30689D01*
X59806Y-30689D02*
X59581Y-30689D01*
X59694Y-30689D02*
X59694Y-30296D01*
X59656Y-30352D01*
X59619Y-30389D01*
X59581Y-30408D01*
G54D23*
X47109Y-24550D02*
X47090Y-24568D01*
X47034Y-24587D01*
X46996Y-24587D01*
X46940Y-24568D01*
X46902Y-24531D01*
X46884Y-24493D01*
X46865Y-24418D01*
X46865Y-24362D01*
X46884Y-24287D01*
X46902Y-24250D01*
X46940Y-24212D01*
X46996Y-24193D01*
X47034Y-24193D01*
X47090Y-24212D01*
X47109Y-24231D01*
X47446Y-24325D02*
X47446Y-24587D01*
X47352Y-24175D02*
X47259Y-24456D01*
X47502Y-24456D01*
X47821Y-24325D02*
X47821Y-24587D01*
X47727Y-24175D02*
X47634Y-24456D01*
X47877Y-24456D01*
G54D10*
X61047Y-24390D02*
X61047Y-23997D01*
X61141Y-23997D01*
X61197Y-24015D01*
X61235Y-24053D01*
X61254Y-24090D01*
X61272Y-24165D01*
X61272Y-24221D01*
X61254Y-24296D01*
X61235Y-24334D01*
X61197Y-24371D01*
X61141Y-24390D01*
X61047Y-24390D01*
X61460Y-24390D02*
X61535Y-24390D01*
X61572Y-24371D01*
X61591Y-24353D01*
X61629Y-24296D01*
X61647Y-24221D01*
X61647Y-24071D01*
X61629Y-24034D01*
X61610Y-24015D01*
X61572Y-23997D01*
X61497Y-23997D01*
X61460Y-24015D01*
X61441Y-24034D01*
X61422Y-24071D01*
X61422Y-24165D01*
X61441Y-24203D01*
X61460Y-24221D01*
X61497Y-24240D01*
X61572Y-24240D01*
X61610Y-24221D01*
X61629Y-24203D01*
X61647Y-24165D01*
M02*
