G04 (created by PCBNEW (2013-mar-13)-testing) date Tue 21 May 2013 11:07:50 PM PDT*
%MOIN*%
G04 Gerber Fmt 3.4, Leading zero omitted, Abs format*
%FSLAX34Y34*%
G01*
G70*
G90*
G04 APERTURE LIST*
%ADD10C,0.005906*%
%ADD11C,0.003937*%
%ADD12C,0.078700*%
%ADD13R,0.086614X0.070866*%
%ADD14R,0.025591X0.038189*%
%ADD15R,0.062992X0.039370*%
%ADD16R,0.055000X0.055000*%
%ADD17C,0.055000*%
%ADD18R,0.051181X0.051181*%
%ADD19R,0.051181X0.078740*%
%ADD20C,0.051200*%
%ADD21R,0.059055X0.157480*%
%ADD22R,0.039370X0.118110*%
%ADD23R,0.070866X0.056102*%
%ADD24R,0.039370X0.056102*%
%ADD25C,0.160000*%
%ADD26R,0.039370X0.062992*%
%ADD27R,0.035000X0.055000*%
%ADD28R,0.055000X0.035000*%
%ADD29R,0.036000X0.036000*%
%ADD30R,0.216500X0.078700*%
%ADD31R,0.078700X0.216500*%
G04 APERTURE END LIST*
G54D10*
G54D11*
X66141Y-59055D02*
G75*
G03X66929Y-58267I0J787D01*
G74*
G01*
X39370Y-58267D02*
G75*
G03X40157Y-59055I787J0D01*
G74*
G01*
X66929Y-20472D02*
G75*
G03X66141Y-19685I-787J0D01*
G74*
G01*
X40157Y-19685D02*
G75*
G03X39370Y-20472I0J-787D01*
G74*
G01*
X66141Y-19685D02*
X40157Y-19685D01*
X66929Y-58267D02*
X66929Y-20472D01*
X40157Y-59055D02*
X66141Y-59055D01*
X39370Y-20472D02*
X39370Y-58267D01*
G54D12*
X52913Y-29881D03*
X54881Y-29881D03*
X51062Y-29881D03*
X49094Y-29881D03*
X51062Y-33385D03*
X49094Y-33385D03*
G54D13*
X57559Y-51988D03*
X57559Y-53602D03*
G54D14*
X56574Y-44685D03*
X56574Y-43314D03*
G54D15*
X52204Y-27263D03*
X52204Y-25964D03*
X61929Y-41791D03*
X61929Y-43090D03*
G54D16*
X58448Y-21456D03*
G54D17*
X59448Y-21456D03*
X60448Y-21456D03*
G54D16*
X45496Y-57283D03*
G54D17*
X46496Y-57283D03*
X47496Y-57283D03*
G54D16*
X51889Y-41692D03*
X54763Y-32401D03*
X57795Y-45314D03*
X63346Y-41102D03*
X63267Y-54685D03*
X58921Y-57283D03*
G54D17*
X59921Y-57283D03*
X60921Y-57283D03*
G54D16*
X52622Y-57283D03*
G54D17*
X53622Y-57283D03*
X54622Y-57283D03*
G54D18*
X60216Y-40846D03*
X60216Y-39940D03*
G54D19*
X58051Y-40393D03*
G54D20*
X57598Y-36456D03*
X57598Y-35275D03*
X53858Y-37283D03*
X53858Y-34448D03*
G54D16*
X63437Y-28937D03*
G54D17*
X64437Y-28937D03*
G54D16*
X57677Y-47649D03*
G54D17*
X57677Y-48649D03*
G54D16*
X52570Y-21456D03*
G54D17*
X53570Y-21456D03*
G54D16*
X41929Y-32531D03*
G54D17*
X41929Y-33531D03*
G54D16*
X45405Y-21456D03*
G54D17*
X46405Y-21456D03*
G54D21*
X45039Y-54606D03*
X45039Y-52125D03*
X54409Y-50196D03*
X54409Y-47716D03*
G54D22*
X51574Y-55629D03*
X51574Y-53937D03*
X59370Y-37795D03*
X59370Y-36102D03*
X61614Y-37795D03*
X61614Y-36102D03*
G54D23*
X44921Y-34645D03*
G54D24*
X45866Y-34645D03*
X45866Y-33631D03*
X44921Y-33631D03*
G54D23*
X59803Y-34409D03*
G54D24*
X60748Y-34409D03*
X60748Y-33395D03*
X59803Y-33395D03*
G54D25*
X41338Y-21653D03*
X64960Y-21653D03*
X41338Y-57086D03*
X64960Y-57086D03*
G54D26*
X46751Y-48385D03*
X45452Y-48385D03*
X49153Y-48385D03*
X47854Y-48385D03*
G54D27*
X44743Y-39448D03*
X45493Y-39448D03*
X42695Y-25905D03*
X43445Y-25905D03*
X44703Y-46535D03*
X45453Y-46535D03*
X58955Y-55866D03*
X59705Y-55866D03*
X48128Y-39448D03*
X48878Y-39448D03*
X60097Y-29685D03*
X60847Y-29685D03*
G54D28*
X57952Y-31831D03*
X57952Y-31081D03*
X56535Y-31081D03*
X56535Y-31831D03*
G54D27*
X48128Y-46535D03*
X48878Y-46535D03*
X47380Y-28858D03*
X48130Y-28858D03*
X52894Y-33543D03*
X52144Y-33543D03*
X56554Y-29685D03*
X57304Y-29685D03*
X63916Y-46929D03*
X64666Y-46929D03*
G54D28*
X60472Y-46949D03*
X60472Y-46199D03*
X59133Y-46199D03*
X59133Y-46949D03*
X53464Y-38995D03*
X53464Y-39745D03*
G54D27*
X47380Y-30393D03*
X48130Y-30393D03*
X47380Y-31929D03*
X48130Y-31929D03*
X60650Y-44803D03*
X59900Y-44803D03*
X42892Y-35354D03*
X43642Y-35354D03*
X56199Y-38700D03*
X56949Y-38700D03*
X47892Y-38070D03*
X48642Y-38070D03*
G54D28*
X43543Y-36869D03*
X43543Y-37619D03*
G54D27*
X54585Y-38700D03*
X55335Y-38700D03*
X54546Y-40078D03*
X55296Y-40078D03*
X55333Y-55866D03*
X56083Y-55866D03*
X55333Y-54291D03*
X56083Y-54291D03*
X60611Y-42716D03*
X59861Y-42716D03*
X51910Y-48976D03*
X51160Y-48976D03*
X49152Y-51929D03*
X49902Y-51929D03*
X47459Y-54173D03*
X48209Y-54173D03*
X63089Y-36417D03*
X63839Y-36417D03*
X64743Y-37913D03*
X65493Y-37913D03*
X63839Y-37913D03*
X63089Y-37913D03*
X64743Y-36417D03*
X65493Y-36417D03*
X59705Y-54409D03*
X58955Y-54409D03*
X50254Y-38070D03*
X51004Y-38070D03*
X60924Y-55866D03*
X61674Y-55866D03*
G54D28*
X60984Y-31871D03*
X60984Y-31121D03*
X57519Y-55965D03*
X57519Y-55215D03*
G54D27*
X52144Y-32086D03*
X52894Y-32086D03*
X61987Y-31259D03*
X62737Y-31259D03*
X52855Y-35393D03*
X52105Y-35393D03*
X60924Y-54409D03*
X61674Y-54409D03*
X59115Y-29685D03*
X58365Y-29685D03*
G54D28*
X52165Y-38995D03*
X52165Y-39745D03*
G54D27*
X61987Y-32598D03*
X62737Y-32598D03*
X57028Y-33346D03*
X56278Y-33346D03*
X64666Y-45472D03*
X63916Y-45472D03*
X61908Y-44803D03*
X62658Y-44803D03*
G54D28*
X63464Y-33995D03*
X63464Y-34745D03*
X62165Y-34745D03*
X62165Y-33995D03*
G54D27*
X58682Y-34015D03*
X57932Y-34015D03*
X47065Y-33622D03*
X47815Y-33622D03*
X45058Y-31929D03*
X45808Y-31929D03*
G54D28*
X46456Y-36869D03*
X46456Y-37619D03*
X45039Y-37619D03*
X45039Y-36869D03*
X42125Y-36869D03*
X42125Y-37619D03*
X55039Y-44075D03*
X55039Y-43325D03*
G54D27*
X53642Y-45551D03*
X52892Y-45551D03*
X63010Y-25000D03*
X63760Y-25000D03*
X56199Y-40078D03*
X56949Y-40078D03*
X55215Y-25905D03*
X55965Y-25905D03*
G54D28*
X64921Y-26317D03*
X64921Y-27067D03*
G54D27*
X53404Y-54291D03*
X54154Y-54291D03*
X55294Y-52716D03*
X56044Y-52716D03*
X58878Y-42716D03*
X58128Y-42716D03*
X54154Y-55866D03*
X53404Y-55866D03*
X51160Y-51929D03*
X51910Y-51929D03*
X51910Y-50393D03*
X51160Y-50393D03*
G54D28*
X61850Y-40414D03*
X61850Y-39664D03*
G54D27*
X49152Y-50393D03*
X49902Y-50393D03*
X49152Y-55826D03*
X49902Y-55826D03*
X64625Y-31496D03*
X65375Y-31496D03*
X63089Y-39448D03*
X63839Y-39448D03*
G54D28*
X63818Y-43365D03*
X63818Y-44115D03*
X65196Y-44115D03*
X65196Y-43365D03*
G54D27*
X64625Y-34881D03*
X65375Y-34881D03*
X44430Y-48385D03*
X43680Y-48385D03*
X64743Y-39448D03*
X65493Y-39448D03*
X55453Y-45551D03*
X54703Y-45551D03*
X47973Y-50393D03*
X47223Y-50393D03*
X46123Y-50393D03*
X45373Y-50393D03*
G54D29*
X42642Y-29914D03*
X43342Y-29914D03*
X42992Y-30714D03*
X43342Y-28392D03*
X42642Y-28392D03*
X42992Y-27592D03*
X64639Y-33499D03*
X64639Y-32799D03*
X65439Y-33149D03*
X53468Y-25820D03*
X54168Y-25820D03*
X53818Y-26620D03*
X53588Y-43350D03*
X53588Y-44050D03*
X52788Y-43700D03*
X53379Y-42003D03*
X53379Y-41303D03*
X54179Y-41653D03*
X56305Y-41303D03*
X56305Y-42003D03*
X55505Y-41653D03*
G54D20*
X48228Y-35590D03*
X50197Y-36692D03*
X48228Y-26063D03*
X50197Y-27165D03*
X44960Y-29192D03*
X46062Y-27224D03*
G54D30*
X59921Y-52204D03*
X63621Y-52204D03*
X59921Y-49291D03*
X63621Y-49291D03*
G54D31*
X50039Y-41063D03*
X50039Y-44763D03*
X46771Y-44763D03*
X46771Y-41063D03*
G54D30*
X57323Y-27440D03*
X61023Y-27440D03*
G54D31*
X43307Y-41063D03*
X43307Y-44763D03*
G54D29*
X44376Y-49768D03*
X44376Y-50468D03*
X43576Y-50118D03*
X47405Y-51804D03*
X48105Y-51804D03*
X47755Y-52604D03*
X50161Y-47080D03*
X50861Y-47080D03*
X50511Y-47880D03*
X64757Y-41452D03*
X64757Y-40752D03*
X65557Y-41102D03*
X49216Y-53379D03*
X49916Y-53379D03*
X49566Y-54179D03*
X53429Y-52237D03*
X54129Y-52237D03*
X53779Y-53037D03*
X63035Y-26253D03*
X63735Y-26253D03*
X63385Y-27053D03*
X52080Y-37554D03*
X52080Y-36854D03*
X52880Y-37204D03*
X61894Y-46214D03*
X62594Y-46214D03*
X62244Y-47014D03*
X59138Y-31056D03*
X59838Y-31056D03*
X59488Y-31856D03*
M02*
